<svg clip-rule="evenodd" fill-rule="evenodd" height="654.666" image-rendering="optimizeQuality" shape-rendering="geometricPrecision" text-rendering="geometricPrecision" viewBox="0 0 7681 6819" width="737.333" xmlns="http://www.w3.org/2000/svg"><path d="M7657 5543c5 6 9 12 11 22 3 8 4 14 4 18 0 27-23 41-68 41-24 3-98-1-223-10-124-9-209-13-257-13-80 0-200 6-360 19-60 5-103 7-128 4-42 0-64-15-64-45 0-13 4-23 12-30 8-9 61-54 161-131 78-60 117-114 117-161 5-27 11-67 18-118 6-51 9-111 9-179 0-274-43-544-128-809-122-380-329-735-619-1063-175-194-375-362-599-500s-475-255-751-347c-143 252-265 529-365 829-132 400-198 773-198 1122 0 380 9 652 27 818 29 288 96 545 198 773 65 137 163 257 293 359 69 55 160 111 270 166 30 15 45 32 45 52 0 18-13 30-37 37-73 23-142 46-209 72-66 24-143 59-229 101-87 42-161 86-224 131-42 30-82 61-119 93-20 15-37 23-50 23-22 0-33-20-33-60 0-77-4-167-12-266-7-100-25-259-56-477-45-257-86-513-123-765s-56-490-56-713c0-457 59-909 176-1354 103-389 236-729 401-1017l142-225c364-480 764-851 1205-1114 508-302 1058-453 1654-453 83 0 124 12 124 34 0 10-9 24-27 42-82 92-135 175-158 251-29 105-44 297-44 574v3986c0 48 37 100 112 158 100 75 153 118 158 125zm-795-1892V688c-360 68-718 225-1073 473-195 135-352 263-472 386-121 123-249 283-383 484 215 72 411 157 589 255 157 87 319 197 484 330 183 145 340 298 472 461 123 151 250 342 383 574z" fill="#a06941" fill-rule="nonzero"/><path d="M4934 2031c0 8-114-151-1032-131-503 12-265-1733-1540-1392 177-29 1062 39 854 648-412 89-1135 932-1595 457 156 315 775 157 975 65-195 247-473 421-819 533-330 106-431-50-715 169 199-99 491-7 741-91 351-118 676-247 871-546 767-1045 732 471 1146 406 545-86 1013 110 1015 105z" fill="#a06941"/><path d="M803 2129c155-46 485-64 374 126-127 76-336-25-374-126zm1449 70c-280-28-37 218-310 304 101 0 304 19 354-89 51-108-63-133-44-215zm-800 571c26-14-136-328-190-335 311-143 244 270 190 335zm124-1208c318-367-382-161-390-223 52 270 451 448 390 223z" fill="#3a8051"/><path d="M1495 2103c63-107 261-173 241-246-63-225-387-153-241 246zm266-496c87 253 270-104 296-132-87-23-454-3-296 132zm535-1082c78-254-189-106-500 38 410 364 601-25 500-38zm400-268c138-101 157-168-324-251 35 610 367 348 324 251zm-80 340c-240-122-99 259-112 365 44-133 223-146 288-257 75-127-144-96-176-108zm232-215c68 211 390-233 342-165-57-6-462 51-342 165z" fill="#3a8051"/><path d="M820 3090c-995-804-1142 1040-44 1336 1137-288 1154-1840 44-1336z" fill="#c53a43"/><path d="M857 3025c-23-188 230-481 226-481 22-63-70-82-97-82-90 27-139 335-151 431-51-308-295-466-457-480-108 375 436 617 479 612z" fill="#3a8051"/><g fill="#373435"><path d="M3226 4259c-9 16-9 6-42 238-145 85-343-15-508 60 154-35 590 144 625 3 57-137 143-370-75-301zm-276 429c-144-6-406 133-346 290 42 111 183 358-92 300-2 11 356 286 221-171-114-241 235-425 217-419zm700-374l-97 308c-396 283-207-111-128-320 68-19 206-27 225 12zm-322-463c75 0 135 78 135 175s-60 176-135 176c-74 0-135-79-135-176s61-175 135-175z"/><path d="M3146 4671c208 0 377 212 377 474s-169 475-377 475-376-213-376-475 168-474 376-474zm-31 42c167 0 303 194 303 432 0 239-136 432-303 432s-303-193-303-432c0-238 136-432 303-432z"/><path d="M3103 4994c46 0 84 56 84 126s-38 126-84 126c-47 0-85-56-85-126s38-126 85-126zm5-13c60 0 110 63 110 139 0 77-50 139-110 139-61 0-110-62-110-139 0-76 49-139 110-139zm413-263c249 145 212 649-2 803 432-236 223-746 2-803zm1989 95c39-44-108-674-358-701-173-18-338 432-515 511 182-30 214-134 353-249-149 481-74 1082 5 1251 0-17 63-726 103-818 2 43 116 646 303 815-138-360-160-916-132-1264 62-13 209 347 241 455zm-301-1055c-68-10-134 52-148 140s29 168 97 179 134-52 148-140-30-168-97-179zM1802 5626c237-425 263-758 273-930 121 278 178 513 233 933 72-494-24-1058-100-1168-81-616 128 156 290 125-105-21-208-965-674-480-170 177-157 366-74 496-13-166-43-230 167-395 36 450-44 1017-115 1419z"/><path d="M2077 3617c-74-7-140 59-149 148-8 88 45 166 119 173 73 6 140-60 148-148s-45-166-118-173z"/></g></svg>