<svg clip-rule="evenodd" fill-rule="evenodd" height="770.667" image-rendering="optimizeQuality" shape-rendering="geometricPrecision" text-rendering="geometricPrecision" viewBox="0 0 5681 8028" width="545.333" xmlns="http://www.w3.org/2000/svg"><path d="M2834 7961c155-67 1802-773 2073-894 127-57 215-165 266-296 57-147 67-321 32-483l-4-22 19-11c5-2 11-5 17-9 124-71 248-180 317-316 68-133 81-293-13-467-2-4-5-8-7-13-110-192-201-350-283-490-82-141-158-267-237-394l-13-21 19-17c129-119 232-313 262-528 27-182 0-380-107-559-118-198-527-866-938-1539-416-680-834-1364-958-1572-72-120-156-186-235-222-78-36-153-42-207-42s-128 6-207 42-162 102-234 222c-124 208-542 892-958 1572-411 673-820 1341-938 1539-107 179-134 377-107 559 30 215 133 409 262 528l19 17-13 21c-79 127-155 253-237 394-82 140-173 298-283 490-2 5-5 9-7 13-94 174-81 334-13 467 69 136 193 245 317 316 6 4 12 7 17 9l19 11-4 22c-35 162-25 336 32 483 51 131 139 239 266 296 268 120 1912 827 2066 894zm2097-840c-287 129-2080 897-2085 900l-12-28-11 28c-5-2-1789-770-2079-900-143-64-241-184-297-328-59-152-71-329-40-496-132-76-265-193-339-340-76-149-92-328 14-522l7-14c109-190 199-347 283-491 79-134 151-254 225-375-130-129-232-327-264-546-27-195 1-407 116-598 121-203 528-869 938-1540 417-682 836-1368 958-1572 79-132 172-205 260-245 89-41 172-48 232-48s143 7 232 48c89 40 182 113 261 245 122 204 541 890 958 1572 410 671 817 1337 938 1540 115 191 143 403 115 598-31 219-133 417-263 546 74 121 146 241 225 375 84 144 174 301 283 491l7 14c106 194 90 373 14 522-74 147-207 264-339 340 31 167 19 344-40 496-56 144-154 264-297 328z" fill="#171796" fill-rule="nonzero"/><path d="M712 6160s-212 565 166 730c375 163 1959 848 1959 848s1585-685 1960-848c378-165 166-730 166-730zM2839 269c-116 0-187 32-309 216C2409 669 663 3554 663 3554s-304 542 264 948h3814c568-406 265-948 265-948S3259 669 3138 485c-122-184-189-216-299-216z" fill="#ed2e38" fill-rule="nonzero"/><g fill="#fefefe"><path d="M1370 6993l157-361 38 16-158 362zm111 50l157-362 179 78-19 42-141-61-48 111 141 61-19 43-140-61-54 123 141 61-19 43zm239 100l157-361 39 16 17 345 123-284 36 16-157 361-39-16-17-345-123 284zm524 230l157-362 37 16-157 362z" fill-rule="nonzero"/><path d="M2332 7407l265-315 31 13-43 412-44 2 15-124-119-52-78 97zm133-98l96 42 14-113c4-35 9-63 13-85-14 22-30 43-46 63z"/><path d="M1340 6831l32 28c-25 36-52 60-81 72-30 12-59 11-88-2-31-13-52-32-64-56s-17-53-14-88c4-34 13-68 28-103 16-38 36-68 59-91 24-23 49-38 76-43 27-6 53-3 78 8 28 12 48 31 59 58s13 59 6 95l-41-4c5-30 4-53-4-70-7-18-20-30-39-39-21-9-42-10-63-3-20 7-38 20-53 40-16 20-29 42-40 66-13 30-21 59-24 85s0 48 10 65c10 18 23 31 40 38 21 9 42 9 63 0 22-9 41-28 60-56zm726 464l139-320-93-40 18-43 224 97-19 43-93-41-139 320zM873 6641l37 11c-6 19-9 35-8 50 1 14 7 28 16 40 10 13 23 23 39 30 14 6 28 9 41 8s25-5 34-12c10-7 17-16 22-27 5-12 6-23 5-33-2-11-7-22-16-33-6-7-20-20-43-39-22-19-37-35-45-46-9-15-14-31-15-47s3-33 10-50c8-18 19-33 34-46 15-12 32-19 51-20 19-2 39 2 58 10 20 9 37 21 49 37 12 15 19 33 20 54 2 21-2 42-10 63l-38-12c8-24 9-44 3-60-6-17-20-30-42-39-22-10-41-12-56-6s-25 17-32 32c-6 13-7 25-3 37 4 11 19 28 45 50 27 22 44 39 53 50 12 17 18 35 20 53 1 18-2 37-11 56-8 20-20 36-36 49s-34 21-54 24c-21 2-41-1-61-10-25-11-45-25-58-42s-20-37-22-61c-1-23 3-47 13-71z" fill-rule="nonzero"/><path d="M965 4131l-260-332 31-51 420 65-13 57-131-24-89 149 84 102zm-79-177l72-120-120-22c-36-7-66-13-89-19 20 18 39 38 56 60z"/><path d="M1555 3184l-353-212 28-47 312 187 91-151 42 24zm144-239l-353-212 123-205 42 25-96 158 109 65 69-115 42 25-70 115 121 73 95-159 41 25zm210-350l-420-98c5-9 10-17 14-23 4-7 9-15 14-24l361 90-270-241c5-9-13 21-9 14l36-61 342 124-251-275c6-9 11-17 15-24s8-15 13-23l284 326c-5 9-11 17-15 25-6 9-10 17-15 26l-324-118 256 231c-6 8-11 17-16 25z" fill-rule="nonzero"/><path d="M1937 2160c-59-35-95-79-109-130-15-51-7-102 23-152 20-32 45-57 77-74 31-17 64-24 101-21 36 3 71 15 107 37 35 21 63 48 83 79 19 31 28 65 27 100-2 35-12 68-30 99-20 33-46 58-78 74-31 17-65 24-101 21-36-4-69-15-100-33zm30-48c42 26 82 34 121 26 38-8 67-29 88-64s26-71 15-109-39-70-85-97c-28-17-56-28-83-31-28-3-53 1-76 13s-41 29-55 52c-20 33-26 69-17 106 8 38 39 72 92 104zm587-589l-353-213 60-100c16-27 31-47 43-59 17-18 35-30 56-37 27-9 56-11 86-6 30 6 60 18 92 37 27 16 49 34 65 52 17 19 30 37 37 55 8 18 12 35 13 52 1 16-2 34-7 52-6 19-16 39-29 61zm-13-72l32-54c14-23 23-43 26-58 4-16 4-31 1-43-5-18-14-35-29-53-15-17-36-34-63-50-37-22-69-33-96-33s-49 7-67 20c-12 10-26 28-43 56l-32 52zM1211 3758l-353-212 67-112c14-23 26-41 35-52 14-15 28-26 43-33s32-10 51-8c19 1 37 7 55 18 30 18 49 43 58 74 10 32-1 73-31 123l-41 69 144 86zm-157-158l41-70c18-30 26-55 22-74-4-20-16-36-36-48-15-9-30-13-45-11-15 1-27 6-38 17-7 6-17 20-30 41l-41 69zm340-148l-353-212 67-112c15-23 26-40 36-51 13-16 28-27 43-34s32-10 51-8 37 8 54 18c30 18 50 43 59 75 9 31-1 72-31 122l-41 69 144 86zm-157-158l42-70c18-30 25-55 22-74-4-20-16-35-36-48-15-9-30-12-45-11s-28 7-38 17c-7 6-17 20-30 41l-41 69zm920-1499c-59-35-95-79-109-130s-7-102 23-152c20-32 45-57 77-74 31-17 65-24 101-21s71 15 107 36c35 22 63 48 83 80 19 31 28 65 27 100-2 35-12 68-30 99-20 33-46 58-78 74-31 17-65 24-101 20-36-3-69-14-100-32zm30-48c42 25 82 34 121 26 38-8 67-30 88-64 21-35 26-72 15-109-11-38-39-70-84-97-29-18-57-28-84-31-28-3-53 1-76 13-23 11-41 29-55 52-20 33-26 68-17 106 8 37 39 72 92 104z"/><path d="M3729 7244l-157-361 178-77 19 42-141 61 48 111 141-61 18 42-140 61 53 123 141-61 18 43zm-421 31l43-4c9 42 8 78-3 108-12 29-32 50-61 63-31 13-59 16-85 9-26-8-50-25-73-50-23-26-42-56-57-91-17-38-25-73-26-106s5-61 20-85c14-23 34-40 59-51 28-13 56-14 83-4s52 31 74 61l-32 27c-18-24-36-39-53-45-18-7-36-6-55 2-22 9-37 24-46 44-9 19-11 42-7 67s11 49 21 73c14 31 29 56 46 76s35 32 55 37c19 5 38 4 55-3 21-9 35-25 43-47 7-21 7-49-1-81zm1050-455l42-5c10 43 8 79-3 109-11 29-32 50-61 63-30 13-58 16-84 9-26-8-51-25-74-50-23-26-42-56-57-91-16-38-25-73-26-106s6-61 20-85c14-23 34-41 59-51 28-13 56-14 83-4s52 31 74 61l-32 27c-18-24-35-39-53-45-18-7-36-6-55 2-22 9-37 24-46 44-8 19-11 42-7 67s11 49 22 73c13 31 28 56 45 76s35 32 55 37 38 4 55-3c21-10 35-25 43-47 8-21 8-49 0-81zm406-27l-140-320-93 41-18-43 224-97 18 42-93 41 139 320z" fill-rule="nonzero"/><path d="M4453 6907l-46-389 29-12 258 296-28 32-76-91-113 50 16 116zm19-156l91-40-70-83c-21-25-37-46-50-63 6 24 11 48 14 72z"/><path d="M3889 7035l33-19c10 17 20 31 32 40 11 9 24 14 40 16 16 1 32-1 48-8 15-7 26-15 35-25 8-10 13-21 14-33s0-23-5-35c-5-11-12-20-21-26s-20-10-35-10c-9-1-28 1-58 4-29 3-51 4-64 1-18-3-32-10-45-21-12-10-22-24-29-41-8-18-12-37-11-56 1-20 8-37 20-52s27-27 47-35c20-9 41-13 61-11 19 2 37 9 53 22s29 30 39 51l-35 19c-11-22-25-36-42-43-16-7-35-5-57 4-22 10-36 22-42 38-6 15-5 30 1 45 6 13 14 22 25 27s33 6 68 1c34-4 58-5 72-4 21 3 38 10 53 21 14 12 25 27 34 47 8 19 12 39 11 60-2 20-8 39-20 56-12 16-28 29-48 37-26 12-49 16-71 14-21-2-41-11-59-25-18-15-33-35-44-59z" fill-rule="nonzero"/><path d="M3457 7361l-157-361 118-52c24-10 44-15 59-13 15 1 30 8 45 21 14 13 26 30 34 50 11 25 15 50 10 72-4 23-19 43-42 59 12 2 22 5 29 8 16 9 33 21 50 36l89 78-44 19-68-60c-20-17-35-30-47-38-12-9-21-14-29-17-7-2-14-3-20-2-4 0-11 3-20 7l-41 17 70 161zm-52-217l76-33c16-7 28-15 35-23 7-9 10-19 11-31 0-12-2-24-7-35-8-18-18-30-32-37s-31-6-51 3l-84 36z"/></g><path d="M2804 2572c200-12 235 164 235 164m0 0l223 423-11 1245 1033 482 94 493-904 722-470 253-167-200-209 200-1245-681-141-306 94-470 998-528 118-153h-118l-35-317 118-529 199-669 188-129" fill="none" stroke="#373435" stroke-width="13.89"/><path d="M2834 7082s1773-769 2138-928c364-158 534-358 352-663-182-306-2298-3897-2362-4005-39-65-61-107-125-107-64 1-85 42-124 107-64 106-2180 3699-2362 4005-182 305-12 505 352 663 365 159 2131 928 2131 928z" fill="#171796" fill-rule="nonzero"/><path d="M2838 1682s1123 2334 1829 3827c75 160 63 235-111 342-248 152-1718 988-1718 988s-1471-836-1719-988c-174-107-186-182-111-342 706-1493 1830-3827 1830-3827z" fill="#fefefe" fill-rule="nonzero"/><path d="M2838 1682s1123 2334 1829 3827c75 160 63 235-111 342-248 152-1718 988-1718 988s-1471-836-1719-988c-174-107-186-182-111-342 706-1493 1830-3827 1830-3827z" fill="none" stroke="#fefefe" stroke-width="13.89"/><path d="M3087 6377c-47-238-518-443-983-585s-596-362-624-394c151 200 295 323 615 423s782 295 923 598c35 20 67-11 69-42z" fill="#171796" fill-rule="nonzero"/><path d="M2613 4354c8 10 16 22 24 36-26-65-62-130-107-173-55-54-121-133-123-192-2-67 44-114 81-101-53-20-110 33-107 101 0 80 74 179 134 226 43 35 75 69 98 103zm435-39c148-157 140-390 92-545-49-155-146-243-146-438 0-169 81-214 168-222-86 0-209 53-209 222 0 224 107 307 150 463 42 157 69 320-55 520zm-649-498c-17-74-28-146-28-207 0-219 151-381 269-381 96 0 155 55 155 122 0 88-57 118-90 118-110 0-90-85-90-85s-22 20-22 62c0 164 308 570 308 715 0 23-1 43-6 63 11-31 16-63 16-94 0-92-115-280-200-445-8-73-17-114-17-114l-16-73c9 1 18 2 27 2 46 0 108-37 119-123l7 24c0 9-1 18-1 27 0 142 36 262 71 366 27 83 67 184 67 272 0 50-15 100-37 146 28-32 53-81 53-159 0-172-123-352-123-625s207-379 290-379c84 0 155 62 155 143s-64 130-103 130-76-22-76-68c0-30 37-77 91-62-79-66-158 7-158 106 0 98 246 472 246 630 0 129-59 259-148 377 27 10 43 22 43 34 0 39-162 71-362 71-31 0-61-1-89-2l-18-1c-111-7-200-24-236-46-115-49-183-195-183-311 0-119 56-217 156-217 82 0 125 60 125 120s-35 95-74 95-61-16-75-55c0 75 111 109 202 187-28-33-62-63-101-95l-10-8c52-9 88-59 88-124 0-7 0-14-1-21 39 77 78 155 108 235 19 52 38 141 51 225-4-87-17-174-34-231-77-246-227-422-227-645 0-168 67-220 152-221-86 1-193 53-193 221 0 108 44 216 98 327-26-25-63-41-109-41-26 0-50 5-70 15zm383-567c-33-32-83-52-142-52-7 0-14 1-21 2-19-100-34-191-34-227 0-303 175-416 293-416 108 0 180 57 180 158 0 71-42 103-106 103-30 0-64-28-64-59 0-15 7-52 37-57-60-32-108 16-108 64 0 69 17 165 103 291 12 17 23 36 34 57-48 46-90 111-110 196-54-165-106-314-106-478 0-170 68-208 156-221-87 0-197 51-197 221 0 144 39 276 85 418z" fill="#ed2e38" fill-rule="nonzero"/><path d="M2698 5140c23-1 59-2 106-2 127 0 216-32 216-81 0-15-15-29-41-41 54 17 86 38 86 61 0 48-82 69-191 74-60-1-127-3-176-11zm125-677c-235 0-426-48-428-107 47 46 215 80 414 80 237 0 429-48 429-107 0-18-17-34-48-49 63 20 100 46 100 74 0 67-230 109-467 109zm74-246l-2 7zm298 36c149 46 134 129 116 206-27 116-93 109-206 190-114 81-138 261-123 354 73 25 132 54 132 148 0 93-91 128-147 135-10 192-62 333-131 333s-118-141-128-333c-56-7-148-42-148-135 0-94 60-123 133-148 15-93-9-273-123-354-113-81-179-74-206-190-14-60-27-123 37-170 27 31 58 57 95 72 36 22 125 39 236 46l18 1c28 1 58 2 89 2 200 0 362-32 362-71 0-12-16-24-43-34 13-17 25-34 37-52zM1833 5745c-80-38-225-167-376-198s-204-96-233-145c47 214 89 321 311 359 161 27 260 6 298-16zm349 133c-35-15-166-109-423-62-144 27-259-20-306-24 73 29 270 241 453 175 211-75 276-89 276-89zm-567-329c-80-118-86-238-149-344-62-106-136-183-127-274-60 81-91 298-4 421 78 109 124 138 280 197zm292 156c-56-63-50-154-73-252-24-99-114-307-323-334 80 96 85 207 97 288 13 81 106 228 299 298zm315 116c-58-60-55-152-82-249-27-98-125-302-334-322 83 93 92 204 107 284 16 80 113 224 309 287zm294 187c-36-16-193-145-404-47-212 98-247 82-294 78 153 62 304 173 471 73 158-93 227-104 227-104zm-58-338c67 207 55 212 84 260-206-60-289-158-318-294-23-107-33-204-117-258 126 27 284 85 351 292z" fill="#171796"/><path d="M1271 5492c43 56 214 258 487 246-185-17-368-120-487-246zm344 382c66 26 167 44 251 13 95-35 181-43 229-26-89-37-181-11-231 9-82 33-141 29-249 4zm349 196c65 16 154 24 236-31 81-55 201-65 249-55-88-24-171-14-256 32-86 46-122 62-229 54zm251-647c56 38 117 136 141 240 22 96 95 199 134 228-76-50-130-124-156-218-29-105-41-176-119-250zm-338-122c56 37 141 142 155 240 14 97 81 198 121 227-77-49-120-123-143-217-23-95-55-176-133-250zm-304-138c53 40 140 139 149 238 9 98 71 202 109 233-74-53-113-129-131-224-18-96-54-169-127-247zm-249-163c-2 72 4 336 224 499-133-130-211-325-224-499z" fill="#fefefe"/><path d="M2580 6377c46-238 517-443 982-585s596-362 625-394c-151 200-296 323-616 423s-782 295-922 598c-36 20-67-11-69-42z" fill="#171796" fill-rule="nonzero"/><path d="M3834 5745c79-38 224-167 375-198s205-96 234-145c-47 214-90 321-312 359-160 27-260 6-297-16zm-350 133c36-15 167-109 423-62 145 27 260-20 307-24-73 29-270 241-454 175-211-75-276-89-276-89zm568-329c79-118 86-238 148-344 63-106 136-183 127-274 60 81 91 298 4 421-77 109-124 138-279 197zm-292 156c55-63 49-154 73-252 23-99 114-307 322-334-79 96-84 207-97 288s-105 228-298 298zm-315 116c58-60 55-152 81-249 27-98 125-302 334-322-82 93-91 204-107 284-15 80-113 224-308 287zm-295 187c36-16 194-145 405-47s247 82 294 78c-154 62-304 173-472 73-158-93-227-104-227-104zm59-338c-67 207-56 212-85 260 207-60 289-158 318-294 23-107 33-204 118-258-127 27-284 85-351 292z" fill="#171796"/><path d="M4396 5492c-43 56-215 258-488 246 185-17 369-120 488-246zm-345 382c-66 26-167 44-250 13-95-35-181-43-230-26 89-37 181-11 231 9 83 33 142 29 249 4zm-348 196c-65 16-154 24-236-31s-201-65-250-55c88-24 172-14 257 32s122 62 229 54zm-252-647c-55 38-116 136-140 240-22 96-96 199-135 228 76-50 131-124 157-218 29-105 41-176 118-250zm338-122c-56 37-140 142-154 240-15 97-82 198-121 227 76-49 120-123 142-217 23-95 55-176 133-250zm305-138c-54 40-141 139-149 238-9 98-71 202-109 233 73-53 113-129 131-224 18-96 53-169 127-247zm248-163c3 72-4 336-224 499 134-130 212-325 224-499z" fill="#fefefe"/><path d="M3008 1306l332-200 27 44-137 82 91 152 137-82 26 44-332 199-27-44 157-94-91-151-157 94z" fill="#fefefe" fill-rule="nonzero"/><path d="M3008 1306l332-200 27 44-137 82 91 152 137-82 26 44-332 199-27-44 157-94-91-151-157 94z" fill="none" stroke="#fefefe" stroke-width="3.472"/><path d="M3493 2140l333-200 26 44-332 200z" fill="#fefefe" fill-rule="nonzero"/><path d="M3493 2140l333-200 26 44-332 200z" fill="none" stroke="#fefefe" stroke-width="3.472"/><path d="M4202 3348l294-176-58-96 39-24 149 248-39 23-65-107-293 176z" fill="#fefefe" fill-rule="nonzero"/><path d="M4202 3348l294-176-58-96 39-24 149 248-39 23-65-107-293 176z" fill="none" stroke="#fefefe" stroke-width="3.472"/><path d="M4442 3516l28 39c-15 12-26 25-33 38-6 14-8 30-5 49 2 20 9 39 20 57 10 17 22 31 34 40 13 10 26 16 38 17 13 1 24-2 34-8 11-6 18-15 22-26 4-10 5-24 2-41-2-11-9-34-20-69s-16-61-17-77c-2-21 2-39 9-54 8-15 20-27 35-36 17-10 35-15 56-14 20 0 39 8 58 21 18 14 34 32 48 54 15 25 24 49 27 73 4 23 1 45-9 64-9 20-23 36-42 48l-29-40c20-15 31-32 34-52 3-19-4-42-19-67-16-27-33-43-50-50-17-6-32-5-46 3-12 7-19 18-22 31-2 13 3 40 17 80 13 41 21 70 23 87 2 24 0 45-9 63-8 17-21 31-38 42-18 11-38 15-59 15-22-1-43-8-63-22s-37-32-52-56c-18-30-28-58-32-83-3-26 0-50 11-72s27-40 49-54z" fill="#fefefe" fill-rule="nonzero"/><path d="M4442 3516l28 39c-15 12-26 25-33 38-6 14-8 30-5 49 2 20 9 39 20 57 10 17 22 31 34 40 13 10 26 16 38 17 13 1 24-2 34-8 11-6 18-15 22-26 4-10 5-24 2-41-2-11-9-34-20-69s-16-61-17-77c-2-21 2-39 9-54 8-15 20-27 35-36 17-10 35-15 56-14 20 0 39 8 58 21 18 14 34 32 48 54 15 25 24 49 27 73 4 23 1 45-9 64-9 20-23 36-42 48l-29-40c20-15 31-32 34-52 3-19-4-42-19-67-16-27-33-43-50-50-17-6-32-5-46 3-12 7-19 18-22 31-2 13 3 40 17 80 13 41 21 70 23 87 2 24 0 45-9 63-8 17-21 31-38 42-18 11-38 15-59 15-22-1-43-8-63-22s-37-32-52-56c-18-30-28-58-32-83-3-26 0-50 11-72s27-40 49-54z" fill="none" stroke="#fefefe" stroke-width="3.472"/><path d="M3280 1780l333-199 116 193-39 23-90-149-102 61 66 110-39 23-66-109-113 68 89 149-39 24z" fill="#fefefe" fill-rule="nonzero"/><path d="M3280 1780l333-199 116 193-39 23-90-149-102 61 66 110-39 23-66-109-113 68 89 149-39 24z" fill="none" stroke="#fefefe" stroke-width="3.472"/><path d="M3918 2862l332-199 27 44-137 82 91 151 137-82 26 44-332 200-27-44 157-94-91-152-156 94z" fill="#fefefe" fill-rule="nonzero"/><path d="M3918 2862l332-199 27 44-137 82 91 151 137-82 26 44-332 200-27-44 157-94-91-152-156 94z" fill="none" stroke="#fefefe" stroke-width="3.472"/><path d="M4050 2431c-1-24-9-48-22-71-23-38-55-61-95-70-40-8-80 0-122 25-18 11-34 25-46 41-13 16-21 34-27 54-5 19-6 39-3 58s10 37 21 55c21 35 48 57 81 66 31 9 62 5 93-11l-66-110 35-21 92 151-9 6c-52 31-101 41-149 30-47-11-86-41-116-91-29-50-38-100-25-150 14-50 46-91 97-121 24-14 48-24 74-29s51-4 75 1c27 6 50 16 71 31 20 15 38 35 53 59 20 33 31 66 33 97s-5 61-20 88l-3 4-42-14 3-6c12-24 18-48 17-72z" fill="#fefefe" fill-rule="nonzero"/><path d="M4050 2431c-1-24-9-48-22-71-23-38-55-61-95-70-40-8-80 0-122 25-18 11-34 25-46 41-13 16-21 34-27 54-5 19-6 39-3 58s10 37 21 55c21 35 48 57 81 66 31 9 62 5 93-11l-66-110 35-21 92 151-9 6c-52 31-101 41-149 30-47-11-86-41-116-91-29-50-38-100-25-150 14-50 46-91 97-121 24-14 48-24 74-29s51-4 75 1c27 6 50 16 71 31 20 15 38 35 53 59 20 33 31 66 33 97s-5 61-20 88l-3 4-42-14 3-6c12-24 18-48 17-72z" fill="none" stroke="#fefefe" stroke-width="3.472"/></svg>