<svg width="148" height="120" viewBox="0 0 148 120" fill="none" xmlns="http://www.w3.org/2000/svg">
<path d="M0.411686 43.4008H1.26671C5.95348 43.4008 6.52349 42.8322 6.52349 39.8946V5.90668C6.52349 3.60081 5.57347 3.03224 1.26671 3.03224H0.411686V1.16859H22.4839C29.1023 1.16859 36.7342 3.91669 36.7342 12.4452C36.7342 17.436 32.1107 21.3529 25.8406 22.3005C34.1691 24.48 38.4759 27.3544 38.4759 33.7035C38.4759 39.863 32.8391 45.296 24.2256 45.296H0.411686V43.4008ZM18.5254 21.7003C24.4789 21.7003 28.2156 19.3313 28.0256 11.9083C27.8356 6.28573 25.5556 2.93748 21.0272 2.93748H18.1454C15.3904 2.93748 14.8837 3.69558 14.8837 4.99065V21.7003H18.5254ZM29.1023 33.1665C28.9123 28.7443 27.8673 26.2489 26.2839 24.8906C24.2256 23.2481 21.4072 23.3744 18.6521 23.3744H14.852V40.4632C14.852 42.8322 16.0554 43.4008 20.2988 43.4008C27.234 43.4008 29.2923 39.863 29.1023 33.1665Z" fill="white"/>
<path d="M40.4393 43.4641H40.946C43.9544 43.4641 44.5244 42.8955 44.5244 40.9055V5.36983C44.5244 3.12714 43.5743 2.55857 40.0276 2.43222V0.631745L51.8395 0V41.2214C51.8395 42.706 52.4729 43.4641 54.4046 43.4641H56.7796V45.2645H40.4076V43.4641H40.4393Z" fill="white"/>
<path d="M60.9597 21.7636C60.1997 20.0263 60.1997 19.8368 56.5896 19.5841V17.8468H72.5183V19.5841C68.0216 20.0895 67.8949 20.5317 69.0982 23.3114L75.3367 37.3993L81.5119 23.5641C82.8419 20.5633 83.2536 19.8368 78.3135 19.5841V17.8468H88.3204V19.5841C85.3119 19.9631 85.1219 20.4685 83.7603 23.5641L73.0567 47.8863C69.3833 56.3517 66.6282 58.3733 62.0681 58.3733C58.933 58.3733 56.178 56.1306 56.178 52.6876C56.178 49.1814 58.6797 47.4441 60.9914 47.4441C62.6698 47.4441 64.2531 48.5496 64.2531 50.3185C64.2531 52.6876 61.4981 54.6776 61.4981 55.6252C61.4981 56.0674 62.0048 56.1937 63.4298 56.1937C65.5515 56.1937 67.7366 54.5196 70.1116 49.213L71.6633 45.7068L60.9597 21.7636Z" fill="white"/>
<path d="M94.1155 38.5362V19.8365H89.6187V17.8465H94.1155V7.23322H101.431V17.8465H109.759V19.8365H101.431V38.2203C101.431 42.0424 102.761 43.527 105.737 43.527C108.746 43.527 110.361 42.0424 110.361 37.7781H112.103C111.913 42.9584 109.347 46.2435 103.046 46.2435C98.9289 46.2119 94.1155 44.2219 94.1155 38.5362Z" fill="white"/>
<path d="M113.116 43.4641H113.623C115.808 43.4641 116.821 42.8955 116.821 40.9055V4.80126C116.821 3.19031 116.251 2.49539 112.641 2.36904V0.631745L124.105 0V22.9324C125.91 20.1211 128.791 17.2466 133.478 17.2466C138.228 17.2466 142.282 19.8684 142.282 24.9855V41.253C142.282 42.7376 142.662 43.4957 144.847 43.4957H146.525V45.2961H131.103V43.4957H131.61C134.048 43.4957 134.998 42.9271 134.998 40.9371V24.3222C134.998 21.1951 133.795 19.9 131.23 19.9C127.05 19.9 124.105 24.3854 124.105 26.1227V41.2214C124.105 42.7691 124.548 43.4641 126.86 43.4641H128.063V45.2645H113.116V43.4641Z" fill="white"/>
<path d="M17.6071 84.4642L15.517 79.2523H4.21176L2.09005 84.4958H0L8.7402 63.2376H11.0202L19.7604 84.4958H17.6071V84.4642ZM9.88022 65.1644L4.84511 77.6098H14.8837L9.88022 65.1644Z" fill="white"/>
<path d="M22.0722 73.851C22.0722 67.3125 26.8223 62.8587 32.8707 62.8587C36.2591 62.8587 38.8559 64.3433 40.6292 66.6175L39.1092 67.5967C37.7792 65.7331 35.4358 64.5012 32.8707 64.5012C27.899 64.5012 23.9722 68.2917 23.9722 73.851C23.9722 79.3472 27.8673 83.2008 32.8707 83.2008C35.4358 83.2008 37.7475 81.969 39.1092 80.1053L40.6609 81.0529C38.7292 83.3904 36.2591 84.8434 32.8707 84.8434C26.8223 84.875 22.0722 80.3896 22.0722 73.851Z" fill="white"/>
<path d="M59.7564 84.4646L57.6346 79.2211H46.361L44.2393 84.4646H42.1176L50.8578 63.2064H53.1379L61.8781 84.4646H59.7564ZM51.9978 65.1648L46.9627 77.6102H57.033L51.9978 65.1648Z" fill="white"/>
<path d="M64.9815 84.4646V63.2064H71.79C78.4084 63.2064 82.5569 68.0076 82.5569 73.8513C82.5569 79.7581 78.4084 84.4646 71.79 84.4646H64.9815ZM80.6568 73.8513C80.6568 68.8921 77.4584 64.8489 71.79 64.8489H66.8182V82.7905H71.79C77.4268 82.8221 80.6568 78.8421 80.6568 73.8513Z" fill="white"/>
<path d="M87.117 84.4646V63.2064H100.639V64.8489H88.9537V72.7141H100.417V74.3567H88.9537V82.7589H100.639V84.4014H87.117V84.4646Z" fill="white"/>
<path d="M123.218 84.4646V65.4807L115.459 84.4646H114.763L106.972 65.4807V84.4646H105.136V63.2064H107.859L115.111 80.8952L122.331 63.2064H125.086V84.4646H123.218Z" fill="white"/>
<path d="M136.676 84.4643V75.3672L128.221 63.1745H130.438L137.626 73.6299L144.815 63.1745H147.032L138.576 75.3672V84.4643H136.676Z" fill="white"/>
<path d="M0.47501 95.5833H146.177" stroke="white" stroke-width="2.5"/>
<path d="M1.39335 115.988L2.15337 115.104C3.26172 116.115 4.33841 116.62 5.79511 116.62C7.22015 116.62 8.17017 115.862 8.17017 114.82V114.788C8.17017 113.809 7.63182 113.24 5.41511 112.767C2.97672 112.23 1.83669 111.44 1.83669 109.703V109.671C1.83669 107.997 3.32506 106.765 5.3201 106.765C6.8718 106.765 7.98016 107.207 9.05685 108.06L8.36017 108.976C7.37848 108.186 6.39679 107.839 5.28844 107.839C3.89507 107.839 3.00838 108.597 3.00838 109.545V109.576C3.00838 110.587 3.54673 111.124 5.89012 111.629C8.26517 112.135 9.34186 113.019 9.34186 114.63V114.662C9.34186 116.494 7.82183 117.663 5.70011 117.663C4.05341 117.694 2.66004 117.126 1.39335 115.988Z" fill="white"/>
<path d="M12.0969 106.481H13.2686V111.061C13.7753 110.208 14.5987 109.545 15.9604 109.545C17.8604 109.545 18.9688 110.808 18.9688 112.672V117.536H17.7971V112.956C17.7971 111.503 17.0054 110.587 15.612 110.587C14.2503 110.587 13.2686 111.566 13.2686 113.051V117.536H12.0969V106.481Z" fill="white"/>
<path d="M21.3755 115.262C21.3755 113.556 22.7372 112.672 24.7322 112.672C25.7456 112.672 26.4423 112.798 27.1389 113.019V112.767C27.1389 111.377 26.2839 110.65 24.8272 110.65C23.9089 110.65 23.1805 110.871 22.4522 111.219L22.1038 110.271C22.9589 109.892 23.8139 109.608 24.9539 109.608C26.0623 109.608 26.9173 109.924 27.4873 110.461C28.0256 110.998 28.3106 111.756 28.3106 112.767V117.568H27.1706V116.399C26.6323 117.094 25.7139 117.726 24.3522 117.726C22.8322 117.694 21.3755 116.873 21.3755 115.262ZM27.1706 114.662V113.935C26.6006 113.777 25.8406 113.588 24.8906 113.588C23.4339 113.588 22.6105 114.22 22.6105 115.167V115.199C22.6105 116.178 23.5289 116.747 24.5739 116.747C25.9989 116.778 27.1706 115.894 27.1706 114.662Z" fill="white"/>
<path d="M31.2873 109.703H32.459V111.282C33.0924 110.334 34.0107 109.545 35.4674 109.545C37.3675 109.545 39.2359 111.029 39.2359 113.62V113.651C39.2359 116.21 37.3675 117.726 35.4674 117.726C34.0107 117.726 33.0607 116.936 32.459 116.052V119.969H31.2873V109.703ZM38.0008 113.651C38.0008 111.756 36.7341 110.587 35.2458 110.587C33.7891 110.587 32.3957 111.819 32.3957 113.62V113.651C32.3957 115.483 33.7891 116.683 35.2458 116.683C36.7658 116.652 38.0008 115.546 38.0008 113.651Z" fill="white"/>
<path d="M41.8959 106.702H43.226V107.997H41.8959V106.702ZM41.9909 109.703H43.1626V117.536H41.9909V109.703Z" fill="white"/>
<path d="M46.361 109.703H47.5327V111.061C48.0394 110.208 48.8628 109.545 50.2245 109.545C52.1245 109.545 53.2329 110.808 53.2329 112.672V117.536H52.0612V112.956C52.0612 111.503 51.2695 110.587 49.8761 110.587C48.5144 110.587 47.5327 111.566 47.5327 113.051V117.536H46.361V109.703Z" fill="white"/>
<path d="M56.1463 118.895L56.6846 117.979C57.5713 118.642 58.5847 118.989 59.7247 118.989C61.4664 118.989 62.5748 118.042 62.5748 116.21V115.294C61.8781 116.21 60.928 116.936 59.503 116.936C57.603 116.936 55.7979 115.515 55.7979 113.272V113.24C55.7979 110.966 57.6346 109.545 59.503 109.545C60.9914 109.545 61.9414 110.271 62.5748 111.124V109.703H63.7464V116.178C63.7464 117.378 63.3664 118.326 62.7331 118.958C62.0364 119.653 60.9914 120 59.7247 120C58.4263 120 57.1913 119.621 56.1463 118.895ZM62.6064 113.24C62.6064 111.598 61.2131 110.556 59.7247 110.556C58.2363 110.556 57.0013 111.598 57.0013 113.209V113.24C57.0013 114.82 58.268 115.894 59.7247 115.894C61.1814 115.894 62.6064 114.82 62.6064 113.24Z" fill="white"/>
<path d="M72.2966 115.452V110.714H71.1883V109.672H72.2966V107.302H73.4683V109.672H75.97V110.714H73.4683V115.294C73.4683 116.242 74.0067 116.589 74.7984 116.589C75.1784 116.589 75.5267 116.526 75.9384 116.305V117.316C75.5267 117.537 75.0834 117.663 74.5133 117.663C73.2466 117.663 72.2966 117.063 72.2966 115.452Z" fill="white"/>
<path d="M78.5351 106.481H79.7068V111.061C80.2135 110.208 81.0369 109.545 82.3986 109.545C84.2986 109.545 85.407 110.808 85.407 112.672V117.536H84.2353V112.956C84.2353 111.503 83.4436 110.587 82.0502 110.587C80.6885 110.587 79.7068 111.566 79.7068 113.051V117.536H78.5351V106.481Z" fill="white"/>
<path d="M91.8671 116.715C92.9438 116.715 93.7038 116.273 94.3371 115.609L95.0655 116.273C94.2738 117.157 93.3238 117.757 91.8354 117.757C89.682 117.757 87.9086 116.115 87.9086 113.651C87.9086 111.377 89.492 109.545 91.6771 109.545C93.9888 109.545 95.3505 111.408 95.3505 113.714C95.3505 113.809 95.3505 113.935 95.3505 114.125H89.112C89.2703 115.736 90.4737 116.715 91.8671 116.715ZM94.1471 113.146C94.0204 111.724 93.1971 110.492 91.6454 110.492C90.2837 110.492 89.2703 111.63 89.0803 113.146H94.1471Z" fill="white"/>
<path d="M102.286 109.703H103.521L105.579 115.989L107.701 109.672H108.682L110.804 115.989L112.863 109.703H114.066L111.311 117.6H110.297L108.176 111.409L106.054 117.6H105.009L102.286 109.703Z" fill="white"/>
<path d="M115.681 113.652C115.681 111.409 117.423 109.514 119.798 109.514C122.141 109.514 123.883 111.377 123.883 113.588V113.62C123.883 115.831 122.141 117.726 119.766 117.726C117.391 117.726 115.681 115.863 115.681 113.652ZM122.679 113.652C122.679 111.946 121.413 110.556 119.766 110.556C118.056 110.556 116.884 111.946 116.884 113.588V113.62C116.884 115.294 118.119 116.652 119.798 116.652C121.508 116.684 122.679 115.326 122.679 113.652Z" fill="white"/>
<path d="M126.48 109.703H127.651V111.756C128.221 110.461 129.361 109.513 130.85 109.576V110.84H130.786C129.076 110.84 127.683 112.072 127.683 114.441V117.568H126.511V109.703H126.48Z" fill="white"/>
<path d="M133.256 106.481H134.428V117.536H133.256V106.481Z" fill="white"/>
<path d="M137.183 113.651C137.183 111.061 139.051 109.545 140.952 109.545C142.408 109.545 143.358 110.335 143.96 111.219V106.481H145.132V117.536H143.96V115.957C143.327 116.905 142.408 117.694 140.952 117.694C139.051 117.694 137.183 116.21 137.183 113.651ZM143.992 113.62C143.992 111.788 142.598 110.587 141.142 110.587C139.621 110.587 138.386 111.724 138.386 113.62V113.651C138.386 115.515 139.653 116.684 141.142 116.684C142.63 116.652 143.992 115.42 143.992 113.62Z" fill="white"/>
</svg>
