<svg clip-rule="evenodd" fill-rule="evenodd" height="973.334" image-rendering="optimizeQuality" shape-rendering="geometricPrecision" text-rendering="geometricPrecision" viewBox="0 0 7347 10139" width="705.333" xmlns="http://www.w3.org/2000/svg"><path d="M3697 3043l1851 2733-1924 2867C813 7405 546 4184 1358 1959c102 1372 1578 2136 2339 1084z" fill="#ed3237"/><path d="M3754 3000l1299 2813 14 30-14 30-1327 2818-30 63-64-28-1-1c-399-175-749-391-1053-639s-562-527-778-829C695 5709 700 3555 1291 1935l114-313 25 332c29 400 179 745 394 1002 169 203 379 352 601 432 219 78 451 89 668 16 196-66 382-201 538-416l72-99zm1155 2842L3673 3166c-158 187-342 309-535 374-249 83-513 72-761-17-246-88-477-252-663-475-177-213-313-480-383-785-480 1544-428 3491 586 4911 209 292 458 562 751 801 278 226 597 426 958 591z" fill="#373435" fill-rule="nonzero"/><path d="M3767 3116v5527c2810-1238 3077-4459 2265-6684-102 1372-1504 2209-2265 1157z" fill="#373435"/><path d="M3838 3314v5217c347-162 652-355 919-573 293-238 540-507 747-798 1003-1414 1038-3352 556-4895-72 328-217 617-404 845-182 221-403 385-639 475-239 91-492 104-731 22-159-54-311-150-448-293zm-143 5329V2894l130 180c149 206 324 335 507 398 206 71 426 58 635-21 212-81 413-230 578-432 225-274 384-643 415-1065l25-332 114 313c592 1620 616 3764-479 5308-213 301-470 579-772 826-303 247-652 463-1051 639v-1l-1 1-101 45z" fill="#373435" fill-rule="nonzero"/><path d="M3743 3155l24 5488c2810-1238 3077-4459 2265-6684-102 1372-1528 2248-2289 1196z" fill="#373435"/><path d="M1359 6135c501 1218 1210 1945 2331 2463 846-345 1906-1132 2358-2463z" fill="#fff212"/><path d="M1320 6230h4778v-190H1320zm2368-3539c-228-37-448-54-616 72-166-47-316-19-483 83-246-22-441 18-450 278 168 176 422 77 550-56 178 78 348 59 511-55 166 93 331 85 497 30 195 46 363 51 469-36 186 128 382 150 583 100 113 120 235 194 378 167 116-69 151-145 105-228-46-177-265-204-533-189-189-200-333-33-500-50-104-147-289-161-511-116z" fill="#373435"/><path d="M2647 2950c-138-9-296-11-410 49-54 98-15 146 67 171 203-48 291-129 343-220zm1059-28c-36-80-104-143-257-160-133 3-366 68-317 98 260 157 289 162 574 62zm536-28c61-44 161-50 284-35 81 22 142 59 194 105-62 36-139 63-264 67-101-18-171-66-214-137z" fill="#fefefe"/><path d="M3571 2714h238v-337h-238zm102-717c230 0 415 85 415 190s-185 190-415 190c-229 0-414-85-414-190s185-190 414-190z" fill="#373435"/><path d="M3329 1760h722c53 0 96 43 96 96v70c0 53-43 96-96 96h-722c-52 0-95-43-95-96v-70c0-53 43-96 95-96z" fill="#373435"/><path d="M3363 2022l-4 84-74 148c121 63 220 167 286 331l238-8c28-137 92-256 255-325l-113-167v-117l-588-8z" fill="#373435"/><path d="M3329 1276h722c53 0 96 123 96 272v202c0 150-43 272-96 272h-722c-52 0-95-122-95-272v-202c0-149 43-272 95-272z" fill="#373435"/><path d="M3352 1383c-80 5-195-7-398-103-89-19-117 22-83 125 68 272 248 317 367 415l225-215-111-222zm675 0c80 5 195-7 398-103 89-19 117 22 83 125-68 272-248 317-366 415l-226-215z" fill="#373435"/><path d="M3506 3c-26 18-72 5-73 47-50 262-145 513-243 885-14 225 65 399 207 537l466-6c60 0 222-448 186-608-106-467-210-593-543-855z" fill="#373435"/><path d="M3532 137l-48 19c21 306-276 711-112 928 25-358 211-494 240-670 116 183 295 341 284 594 109-315-27-604-364-871z" fill="#fff212"/><path d="M3572 851c48 99-20 374 62 510-62 3-118-46-160-208-2-144 31-245 98-302zm55-240c3 36-6 126-6 126 78 121 47 503 126 635 101-377 107-428-120-761z" fill="#fff212"/><path d="M3170 1599c20-17 60-3 88 32 29 35 36 76 15 93-20 17-60 3-88-32-29-35-36-76-15-93zm235-6c21-17 60-2 89 32 29 35 36 77 15 94-20 16-60 2-88-33-29-34-36-76-16-93zm286 1c35 0 63 29 63 63 0 35-28 64-63 64s-63-29-63-64c0-34 28-63 63-63zm522 4c-21-16-60-2-89 33-29 34-35 76-15 93s60 2 89-32c28-35 35-77 15-94zm-236-5c-20-17-60-2-89 32-28 35-35 76-15 93s60 3 89-32c28-35 35-76 15-93zm-522 268c159 0 325 2 495-9-72 115-356 111-495 9zm34 420c-3-29 15-43 54-41l290-1c25 4 37 18 38 41-24 68-53 115-96 178s28-101 13-124c-15-22-50-6-52 4l-43 207-43-206c-26-15-66-17-73 7l40 126c-56-65-101-129-128-191z" fill="#fefefe"/><path d="M2080 4135h686c114 0 202 35 263 106 62 70 92 157 92 261 0 87-21 162-65 225-29 41-72 74-128 98 85 26 148 70 188 131 40 62 60 140 60 234 0 77-14 145-42 207-29 61-68 109-118 144-31 22-77 39-139 49-83 13-137 20-164 20h-633zm370 579h159c57 0 97-13 120-37 22-25 33-60 33-106 0-43-11-77-33-101-23-24-62-36-118-36h-161zm0 579h187c63 0 107-14 133-42s39-65 39-112c0-44-13-79-38-105-26-27-71-40-135-40h-186z" fill="#373435" fill-rule="nonzero"/><path d="M5330 4998l405 121c-27 112-70 206-129 281-58 75-131 132-218 170s-197 57-331 57c-163 0-296-23-399-69-103-47-193-129-268-247-74-117-112-267-112-450 0-244 66-432 198-563s318-197 559-197c189 0 337 38 445 113s188 190 241 346l-409 90c-14-45-29-78-45-99-26-35-57-62-95-81-37-18-79-28-126-28-104 0-185 42-241 125-42 62-63 159-63 291 0 163 25 275 76 336 50 61 121 91 212 91 89 0 156-24 201-73s78-120 99-214z" fill="#fff212" fill-rule="nonzero"/><path d="M3275 6744l132-202c-806-482-1238 484-321 732 424 201-176 524-481 183-9 98-17 195-26 293 816 404 1309-491 583-725-630-178-252-581 113-281z" fill="#ed3237"/><path d="M3267 6692l89-138c-245-136-450-132-583-57-65 37-114 91-141 155-27 63-33 135-14 207 39 150 187 302 477 380l3 1 3 2c110 52 160 115 167 176 5 49-16 95-56 132-36 34-88 61-148 76-128 34-296 18-430-91l-6 72c-2 19-4 36-11 122 292 137 537 101 691-9 62-44 109-100 138-160 28-60 39-125 30-189-19-125-119-245-323-311-211-60-317-146-351-227-21-49-17-96 6-136 22-38 61-67 112-83 89-29 218-15 347 78zm169-130l-130 201-22 34-31-26c-118-96-234-114-312-89-33 10-58 28-71 51-12 20-13 45-2 72 27 63 118 133 304 186h1c236 76 351 219 374 370 12 77-2 156-36 229-34 72-89 137-161 189-177 125-458 166-787 3l-22-11 2-24 13-146c2-25 4-50 13-147l7-82 55 62c120 134 290 156 414 123 49-13 90-34 118-59 23-22 36-47 33-72-4-37-40-79-122-118-318-87-481-259-526-432-23-87-15-175 18-253 33-77 92-143 172-188 159-90 402-94 687 76l32 19z" fill="#373435" fill-rule="nonzero"/><path d="M4579 6742l132-201c-806-482-1238 483-321 732 424 200-176 524-481 183-9 97-17 195-26 293 816 404 1309-492 583-725-630-178-252-581 113-282z" fill="#ed3237"/><path d="M4570 6690l90-137c-245-137-450-133-583-58-65 37-114 92-141 155s-33 135-14 207c39 150 186 302 477 381l3 1 3 2c110 51 160 114 166 175 6 49-16 95-56 132-36 34-87 61-147 77-128 33-296 17-430-92-5 56-11 119-17 194 292 137 537 101 691-8 62-44 109-100 138-161 28-60 39-125 30-188-19-125-119-245-323-312-211-59-317-145-351-226-21-49-17-97 6-136 22-38 61-68 111-84 90-28 219-14 347 78zm170-130l-131 201-22 34-31-25c-117-97-233-114-311-90-33 11-58 29-71 52-12 20-14 45-2 72 27 63 118 133 304 186h1c235 76 351 219 374 369 11 78-2 157-36 230-35 71-89 137-162 188-176 126-457 167-786 4l-22-11 2-24c7-74 16-180 26-293l8-82 54 61c120 134 290 156 414 124 49-13 90-34 118-60 23-22 36-47 33-72-4-37-40-78-122-117-318-87-481-260-526-432-23-88-15-176 18-253s92-144 172-189c159-90 402-94 687 77l32 19z" fill="#373435" fill-rule="nonzero"/><path d="M2333 9141c456-87 360-603 365-1056-825-825-2203-864-2656-9-43 60-42 120-21 181 102 333 246 615 543 713 195-7 350-62 362-291 21-122-65-181-201-211 235-183 504-169 784-101-191 71-259 161-288 246 301 245 680 413 1112 528z" fill="#373435"/><path d="M1321 8656c228 228 525 365 893 413 191-30 252-105 252-202-136-218-842-723-1145-211zm-741 85c107 11 153-45 185-118 174 149-71 287-247 189 8-47-3-82 62-71zm127-207c20 27 8 71-28 99s-82 30-103 3c-21-26-8-71 28-99s82-29 103-3z" fill="#fefefe"/><path d="M5014 9131c-456-87-360-603-365-1056 825-825 2203-864 2656-9 46 68 50 123 20 181-101 333-245 615-542 713-195-7-350-62-362-291-21-122 65-181 201-211-231-169-492-202-784-101 158 99 225 191 288 246-302 245-680 413-1112 528z" fill="#373435"/><path d="M6025 8646c-227 228-524 365-892 413-192-30-252-105-253-202 137-218 842-723 1145-211zm741 84c-106 12-153-44-185-117-174 149 71 287 247 189-8-47 4-82-62-72zm-126-206c-21 27-8 71 28 99s82 30 103 3c20-27 8-71-28-99s-82-29-103-3z" fill="#fefefe"/><path d="M1221 8613c1623 980 3258 1016 4905-10l-18 715c-1631 1102-3262 1073-4892 17z" fill="#373435"/><g fill-rule="nonzero"><path d="M1439 9318v-411l259 161v70l-188-118v92l175 109v69l-175-109v112l194 121v69zm433 259l131-164-119-242 90 35 77 161 76-103 89 34-119 154 131 262-93-36-85-175-86 110zm638 228v-342l-119-29v-70l317 79v70l-118-30v342zm404 88v-411l301 42v70l-219-31v91l204 29v69l-204-29v112l227 32v69zm543 64v-411l81 1 168 277v-274l77 1v411l-83-1-166-271v268zm573-417l150-19c34-4 60-4 78-1 24 4 44 14 62 30 17 16 30 37 39 62 8 25 13 57 13 95 0 34-4 64-13 89-10 31-24 57-43 78-15 16-34 29-58 40-18 8-43 14-73 18l-155 19zm82 59v272l62-7c23-3 39-6 50-10 13-5 24-12 33-21s16-24 21-43c6-19 9-44 9-76s-3-56-9-72c-5-16-13-29-23-37s-23-13-38-15c-12-1-34 1-68 5zm485 271v-411l295-78v69l-214 58v91l199-54v69l-199 54v112l221-60v70zm524-155v-411l159-71c40-18 69-27 88-28 18-1 32 6 43 20s17 33 17 57c0 31-9 60-25 88-17 27-42 51-75 71 17 3 30 9 41 16 11 8 25 24 43 48l46 60-91 40-54-65c-20-23-33-38-40-43s-15-7-23-7c-8 1-21 5-38 13l-16 7v171zm75-271l56-25c37-16 60-28 69-35 9-8 16-17 21-27 5-11 8-22 8-34 0-14-4-24-11-29-6-6-16-7-28-4-6 2-25 10-55 23l-60 27zm438 18v-411l255-165v69l-186 121v91l173-112v69l-173 112v112l193-125v69zM2254 8344v-411l109 58 66 316 65-246 110 58v411l-68-36v-323l-72 285-70-38-72-361v323zm-316-271l-55-168-53 137zm146 205l-86-25-35-103-158-46-32 84-85-24 154-367 84 24zm-966-170v-411l124 5 75 282 73-277 125 4v411l-77-3v-323l-82 320-80-2-81-327v324zm-304-64l-68-131-36 173zm158 104l-83 34-43-79-153 61-21 106-82 32 106-468 81-33zm3934 384c-15-79-29-154-43-226-13-69-26-135-38-198 43-20 85-39 126-57 41-19 81-37 120-55 6 20 11 39 17 59-28 13-57 26-85 40-30 13-59 27-89 41 7 30 13 61 20 92 27-13 53-26 79-38 25-13 51-25 76-37 6 21 12 43 18 65l-78 39c-26 13-53 27-80 40 7 30 13 61 20 92s14 64 21 97c-13 7-27 15-41 23-14 7-29 15-43 23zm550-442l-54-137-54 168zm147 120l-87 25-34-83-158 45-33 103-84 24 153-455 85-24zm1167-27l71 40c-12 25-15 47-10 66 5 18 18 35 39 49 22 15 41 22 59 21 18-2 31-9 39-21 6-9 8-17 7-26 0-9-5-19-14-31-6-9-21-26-45-53-30-34-48-63-54-86-7-33-2-63 16-90 12-17 28-30 48-38s42-10 66-5 49 16 75 34c42 29 68 60 76 94 9 33 3 66-17 98l-71-44c9-20 12-37 7-51-4-14-16-28-35-41-20-14-38-21-55-20-11 0-19 5-25 13s-7 18-4 28c3 13 19 35 47 66s47 56 57 75 14 39 13 60-9 42-23 63c-14 20-32 34-54 44-22 9-46 11-72 6-25-5-52-18-82-39-43-29-69-62-78-97-9-36-3-74 19-115zm-275 20l149-383 77 31-149 383zm-294-66l60-336-120-21 12-69 322 58-13 68-119-21-61 336zm-237-138l82 18c-8 46-25 81-52 105-26 25-61 39-105 43-55 5-101-9-139-43-39-34-61-83-67-147-7-68 6-123 38-164 31-41 76-64 133-70 50-4 92 7 126 33 20 16 37 40 49 72l-80 27c-7-21-18-37-35-47-16-11-36-16-58-14-30 3-54 16-70 40-17 24-23 60-19 108 5 52 18 88 39 108 20 21 46 29 75 26 22-2 40-10 55-26 14-15 24-38 28-69zM305 8512c-24-76-48-149-71-218-21-67-42-131-62-192 40-25 80-49 119-73 38-23 75-46 112-68 8 18 16 37 24 56-27 16-53 33-80 50s-55 34-83 52c10 29 21 59 31 89 25-16 50-32 74-48s47-31 71-46c8 20 17 41 26 62-24 16-48 32-72 49-25 16-50 33-75 50 10 28 21 58 31 88 11 30 22 61 33 93-13 9-26 19-38 28-13 10-27 19-40 28z" fill="#fefefe"/></g></svg>