<?xml version="1.0" encoding="utf-8"?>
<!-- Generator: Adobe Illustrator 25.2.1, SVG Export Plug-In . SVG Version: 6.00 Build 0)  -->
<svg version="1.1" id="Layer_1" xmlns="http://www.w3.org/2000/svg" xmlns:xlink="http://www.w3.org/1999/xlink" x="0px" y="0px"
	 viewBox="0 0 256 256" style="enable-background:new 0 0 256 256;" xml:space="preserve">
<style type="text/css">
	.st0{fill:none;}
	.st1{fill:#4B2A7A;}
</style>
<g>
	<path class="st0" d="M128,38.4c-49.48,0-89.6,40.11-89.6,89.6s40.11,89.6,89.6,89.6s89.6-40.11,89.6-89.6S177.48,38.4,128,38.4z
		 M128,183.67c-34.26,0-62.04-24.92-62.04-55.67c0-30.74,27.77-55.67,62.04-55.67c26.22,0,48.62,14.6,57.7,35.23h-29.69
		c-6.1-9.61-16.37-15.92-28.01-15.92c-18.71,0-33.87,16.27-33.87,36.35c0,20.08,15.16,36.35,33.87,36.35
		c13.67,0,25.44-8.7,30.79-21.21h28.9C180.34,166.52,156.41,183.67,128,183.67z"/>
	<path class="st1" d="M128,7.22C61.3,7.22,7.22,61.3,7.22,128S61.3,248.78,128,248.78S248.78,194.7,248.78,128S194.7,7.22,128,7.22z
		 M128,217.6c-49.48,0-89.6-40.11-89.6-89.6S78.52,38.4,128,38.4s89.6,40.11,89.6,89.6S177.48,217.6,128,217.6z"/>
	<path class="st1" d="M128,164.35c-18.71,0-33.87-16.27-33.87-36.35c0-20.08,15.16-36.35,33.87-36.35
		c11.65,0,21.92,6.31,28.01,15.92h29.69c-9.08-20.63-31.48-35.23-57.7-35.23c-34.26,0-62.04,24.92-62.04,55.67
		c0,30.74,27.77,55.67,62.04,55.67c28.41,0,52.34-17.14,59.69-40.53h-28.9C153.44,155.65,141.67,164.35,128,164.35z"/>
</g>
</svg>
