<svg clip-rule="evenodd" fill-rule="evenodd" height="836" image-rendering="optimizeQuality" shape-rendering="geometricPrecision" text-rendering="geometricPrecision" viewBox="0 0 7750 8708" width="744" xmlns="http://www.w3.org/2000/svg"><path d="M3943 565L1216 1738 618 4536l1172 2201 2010 1268 2607-1962 790-2440-1005-2248z" fill="#fefefe"/><path d="M7367 1155c-226-502-967-388-1554-387 262 369 1216 578 1554 387z" fill="#1c5033"/><path d="M7367 1155c-226-502-967-388-1554-387 262 369 1216 578 1554 387z" fill="none" stroke="#febf2c" stroke-width="27.779"/><path d="M785 2023l-296 570-321 925L61 4622l333 1069 985 1222 1377 1021 1104 676 1649-1020c531-373 1058-753 1520-1401l569-1080 72-1258-475-1436-404-594-747-202-107 309 439 570 356 925 71 1009-296 914-713 843-1115 783-831 475-867-522-1187-890-724-1021-106-748 11-498 155-641 605-1199 36-392z" fill="#1c5033"/><path d="M3872 7496l-21-82 20-81c2431-1314 3857-2535 2080-5371-700 579-1413 428-2079-218-23-47-26-99-1-156 639 611 1314 876 2098 200 2652 3842-1249 5149-2097 5708z" fill="#febf2c"/><path d="M3872 7496v-163C1441 6019 15 4798 1792 1962c700 579 1413 428 2080-218-1-51 0-104 0-156-639 611-1314 876-2098 200-2652 3842 1249 5150 2098 5708z" fill="#febf2c"/><path d="M3281 3405l553-1844c-153-48-208-227 32-258 201 11 237 184 38 260l553 1842-396-1780c156-221 113-349-112-392l-11-172-140 1-8 171c-281 57-230 229-112 389z" fill="#febf2c"/><path d="M3281 3405l553-1844c-153-48-208-227 32-258 201 11 237 184 38 260l553 1842-396-1780c156-221 113-349-112-392l-11-172-140 1-8 171c-281 57-230 229-112 389z" fill="none" stroke="#373435" stroke-width="27.779"/><path d="M3325 2330h1092v-70H3325z" fill="#febf2c"/><path d="M3325 2330h1092v-70H3325z" fill="none" stroke="#373435" stroke-width="27.779"/><path d="M3816 2447h112v-302h-112z" fill="#febf2c"/><path d="M3816 2447h112v-302h-112z" fill="none" stroke="#373435" stroke-width="27.779"/><path d="M3797 3567c1244-610 1971-1383 1826-2497l174 54c228 1263-253 2277-1545 3036z" fill="#febf2c"/><path d="M3797 3567c1244-610 1971-1383 1826-2497l174 54c228 1263-253 2277-1545 3036z" fill="none" stroke="#373435" stroke-width="27.779"/><path d="M3872 8702v-224C1313 7050-1124 5451 872 2023l-90-96c-2617 4390 2087 5891 3090 6775zM2104 2365c-550 484-774 704-453 1140 416-70 525-275 453-1140z" fill="#febf2c"/><path d="M2116 2329c-572 476-815 749-466 1195 446-62 559-324 466-1195zm-41 99c-436 411-631 551-414 1061 371-191 463-297 414-1061z" fill="#373435"/><path d="M2043 2527l-76 303c34 30 73 7 106-12-33 48-72 83-132 75l-55 151c69 31 121-9 170-24-47 49-120 114-211 118l-64 156c56 35 134-42 193-70-76 95-165 165-277 187-56-94-97-207-81-342 22 69 31 181 109 198l64-149c-64-64-99-167-88-280 35 93 72 158 129 169l63-137c-56-35-71-103-71-172 24 42 58 100 93 110z" fill="#373435"/><path d="M1473 2888c-340 675-471 971-22 1242 361-236 390-471 22-1242z" fill="#febf2c"/><path d="M1471 2851c-363 676-492 1028-14 1297 391-242 404-530 14-1297zm-3 107c-260 561-392 771-13 1153 277-330 325-465 13-1153z" fill="#373435"/><path d="M1473 3063l36 312c41 14 70-24 93-55-14 58-37 107-96 124l2 162c74 1 109-58 149-91-26 64-71 154-154 196l-5 171c64 9 109-95 154-145-37 120-95 220-190 287-85-64-163-152-195-283 45 55 92 154 170 139l7-165c-81-33-150-113-179-223 65 72 122 117 178 103l11-152c-64-10-102-66-126-130 38 29 89 69 125 63z" fill="#373435"/><path d="M2291 3283c-677 228-960 342-810 876 410 104 581-43 810-876z" fill="#febf2c"/><path d="M2313 3255c-693 212-1012 366-840 922 436 122 630-76 840-922zm-70 75c-546 206-775 258-747 819 409-28 530-89 747-819z" fill="#373435"/><path d="M2179 3409l-174 251c21 42 65 36 102 31-47 32-95 49-148 17l-103 118c54 56 116 41 166 47-60 26-150 57-236 24l-113 119c40 55 139 15 203 13-103 58-209 86-320 62-20-110-20-232 41-351-3 74-32 181 33 228l111-113c-37-85-35-194 14-295 0 101 12 176 62 209l106-101c-41-56-32-125-8-189 8 49 20 117 49 139z" fill="#373435"/><path d="M1140 3751c-79 764-97 1092 413 1158 252-367 197-596-413-1158z" fill="#febf2c"/><path d="M1126 3717c-100 775-98 1155 439 1207 277-385 189-658-439-1207zm35 100c-46 626-95 875 389 1073 141-419 139-565-389-1073z" fill="#373435"/><path d="M1202 3913l141 274c44-4 57-51 67-90 8 60 4 115-45 155l58 149c69-31 81-99 106-146-2 70-12 172-74 245l55 160c63-18 68-132 92-197 8 125-11 242-76 343-101-24-203-73-279-181 61 32 139 105 206 58l-51-155c-87 3-178-43-243-133 85 40 153 59 200 22l-43-145c-63 18-117-19-161-68 44 11 106 27 137 6z" fill="#373435"/><path d="M2038 3766c-547 489-769 711-444 1144 415-73 523-279 444-1144z" fill="#febf2c"/><path d="M2049 3731c-568 481-809 755-456 1199 445-67 556-330 456-1199zm-39 98c-433 415-628 558-406 1065 369-194 460-301 406-1065z" fill="#373435"/><path d="M1979 3929l-74 304c34 30 73 6 105-14-32 49-70 85-131 77l-54 151c69 30 121-10 170-25-47 49-119 115-210 120l-63 157c56 34 133-44 192-72-75 96-163 166-274 189-57-93-99-206-85-342 24 70 33 181 111 198l62-150c-63-64-100-166-89-279 35 93 73 158 130 168l62-138c-57-35-72-102-72-171 24 42 58 100 93 109z" fill="#373435"/><path d="M1208 4846c398 637 581 898 1007 588-28-457-207-592-1007-588z" fill="#febf2c"/><path d="M1177 4831c388 659 617 945 1056 605-20-488-250-633-1056-605zm87 51c340 508 452 731 937 539-143-418-232-526-937-539z" fill="#373435"/><path d="M1352 4926l271 108c31-34 13-79-2-116 41 40 71 85 58 150l133 72c35-72 3-132-7-186 41 55 94 139 90 239l138 82c37-58-27-149-48-215 81 90 137 192 148 315-91 53-198 88-321 59 66-18 169-18 192-101l-132-82c-64 64-161 94-264 71 88-29 151-64 166-124l-120-81c-37 58-101 69-163 63 40-23 96-55 107-92z" fill="#373435"/><path d="M1981 4353c-235 725-320 1040 163 1229 321-296 315-533-163-1229z" fill="#febf2c"/><path d="M1974 4316c-258 731-334 1101 179 1283 350-307 320-594-179-1283zm13 107c-173 598-272 829 158 1140 224-374 252-516-158-1140z" fill="#373435"/><path d="M2008 4525l81 302c43 7 66-36 84-70-5 59-21 112-76 139l26 159c73-12 99-76 133-116-17 68-47 165-123 220l21 170c64-2 93-112 130-170-19 125-61 234-145 317-93-48-183-121-234-246 52 47 114 137 188 108l-18-164c-84-19-164-86-209-189 74 60 137 94 191 71l-12-153c-65 2-111-47-143-105 41 21 97 52 132 40z" fill="#373435"/><path d="M3541 5348c-116 759-149 1085 357 1180 269-353 225-585-357-1180z" fill="#008752"/><path d="M3528 5313c-137 769-152 1148 381 1230 296-369 220-646-381-1230zm30 103c-75 622-136 868 338 1092 161-410 165-555-338-1092z" fill="#008752"/><path d="M3595 5513l128 282c43-2 59-48 71-86 5 60-2 115-52 152l50 152c71-26 86-94 113-140-5 70-20 172-86 241l48 163c63-15 74-129 101-192 2 126-23 242-92 339-100-30-200-85-270-197 59 36 134 112 202 70l-43-158c-87-2-176-53-236-147 82 45 150 67 199 34l-36-148c-64 14-117-25-158-77 44 14 104 33 136 15z" fill="#008752"/><path d="M2845 5046c-80 764-97 1092 413 1158 251-367 196-596-413-1158z" fill="#febf2c"/><path d="M2830 5012c-100 775-97 1154 440 1207 277-385 189-658-440-1207zm35 100c-45 626-94 875 390 1073 140-419 138-565-390-1073z" fill="#373435"/><path d="M2906 5208l142 274c43-4 56-51 67-90 7 60 3 115-46 155l59 149c68-31 80-99 106-146-3 70-13 172-75 245l56 160c62-18 68-132 92-197 7 125-12 242-77 343-100-24-203-73-279-181 61 32 140 105 206 58l-51-155c-86 3-178-43-243-133 85 40 153 58 201 22l-43-145c-63 18-118-19-162-68 45 11 106 27 137 6z" fill="#373435"/><path d="M2381 4800c-115 759-147 1086 359 1179 268-353 224-585-359-1179z" fill="#febf2c"/><path d="M2368 4765c-136 769-150 1148 383 1229 295-369 219-646-383-1229zm30 103c-74 622-134 868 340 1091 160-410 164-555-340-1091z" fill="#373435"/><path d="M2435 4965l129 281c43-1 58-47 71-85 5 59-2 114-53 152l52 151c70-26 85-94 112-140-5 70-20 172-86 241l49 163c63-14 74-128 101-192 1 126-23 242-92 339-100-29-200-84-271-196 60 35 135 112 203 69l-44-158c-86-2-176-53-236-146 83 45 150 67 199 34l-36-148c-64 14-117-25-159-77 44 14 105 33 137 14z" fill="#373435"/><path d="M1643 5503c475 572 689 803 1072 431-86-448-281-555-1072-431z" fill="#febf2c"/><path d="M1610 5493c469 595 732 844 1123 441-82-481-328-590-1123-441zm93 38c401 451 541 656 997 392-196-392-298-486-997-392z" fill="#373435"/><path d="M1795 5561l283 66c26-38 3-80-17-114 46 33 81 73 77 139l141 51c24-76-15-131-31-183 47 49 111 124 120 223l147 61c29-63-46-143-75-206 92 78 160 170 187 290-84 66-186 117-311 107 63-28 165-44 177-129l-141-61c-55 72-148 117-252 110 83-43 141-86 148-149l-129-61c-29 63-91 83-154 87 37-29 89-69 95-107z" fill="#373435"/><path d="M2159 6112c574 451 828 628 1131 177-171-419-382-479-1131-177z" fill="#febf2c"/><path d="M2124 6109c573 475 878 659 1183 176-172-452-434-502-1183-176zm98 17c480 349 655 518 1051 156-267-339-385-407-1051-156z" fill="#373435"/><path d="M2319 6133l289 1c18-44-13-79-39-108 51 22 93 53 102 119l148 18c9-80-40-125-65-172 55 36 132 96 159 191l156 26c16-68-73-130-113-184 105 55 189 130 238 241-68 83-158 156-282 175 56-42 152-81 147-166l-149-28c-40 83-122 147-226 165 74-61 122-117 117-179l-138-31c-17 68-73 102-134 120 31-37 73-88 73-127z" fill="#373435"/><path d="M2762 6561c641 327 922 449 1142-56-240-376-457-393-1142 56z" fill="#febf2c"/><path d="M2728 6566c644 350 976 468 1192-68-247-409-513-405-1192 68zm99-4c531 246 733 376 1059-60-321-278-448-322-1059 60z" fill="#373435"/><path d="M2923 6550l284-59c10-46-26-74-56-97 54 11 100 33 120 96l148-13c-4-80-60-114-93-155 60 24 146 67 189 155l158-7c4-69-94-112-143-157 112 32 208 89 276 188-54 96-129 186-248 229 48-52 136-110 117-193l-152 3c-25 90-94 170-193 208 62-75 100-139 83-200l-141-2c-4 71-53 115-110 145 24-42 57-100 49-139z" fill="#373435"/><path d="M3218 5864c148 753 228 1069 731 956 131-436 12-634-731-956z" fill="#febf2c"/><path d="M3194 5837c132 770 246 1129 770 992 150-460-13-688-770-992zm63 83c140 609 166 863 683 882 11-446-34-582-683-882z" fill="#373435"/><path d="M3324 5996l214 211c40-18 39-67 38-107 24 53 36 107 2 162l98 121c57-53 48-122 58-175 19 67 39 167 1 258l100 132c54-38 26-148 29-218 44 116 61 234 29 352-103 12-214 0-318-76 67 10 163 51 212-16l-94-129c-81 32-181 20-269-42 92 8 162 2 197-48l-84-124c-54 39-117 23-173-8 46-5 109-12 132-41z" fill="#373435"/><path d="M3702 6740c-148 362-397 638-761 811 137 12 386-24 523-79 3 241-57 335-157 514 386-243 548-614 576-1046-60-67-120-133-181-200z" fill="#febf2c"/><path d="M3702 6740c-148 362-397 638-761 811 137 12 386-24 523-79 3 241-57 335-157 514 386-243 548-614 576-1046-60-67-120-133-181-200z" fill="none" stroke="#373435" stroke-width="27.779"/><path d="M3872 8702l-36-117 35-107c2559-1428 4996-3027 3000-6455l90-96c2617 4390-2087 5891-3089 6775zm1767-6337c550 484 774 704 453 1140-416-70-525-275-453-1140z" fill="#febf2c"/><path d="M5628 2329c571 476 814 749 465 1195-446-62-559-324-465-1195zm40 99c436 411 631 551 414 1061-371-191-463-297-414-1061z" fill="#373435"/><path d="M5700 2527l76 303c-34 30-73 7-106-12 33 48 72 84 132 75l55 151c-69 31-121-9-170-24 47 49 120 114 212 118l63 156c-56 35-133-42-193-70 76 96 165 165 277 187 56-94 97-207 81-342-22 70-31 181-109 198l-64-149c64-64 99-167 88-280-35 93-72 158-129 169l-63-137c56-35 71-103 71-172-24 42-58 100-93 110z" fill="#373435"/><path d="M6270 2888c340 675 471 971 22 1242-361-236-390-471-22-1242z" fill="#febf2c"/><path d="M6272 2851c363 676 493 1028 14 1297-391-242-404-530-14-1297zm3 107c260 561 392 771 13 1153-277-330-325-465-13-1153z" fill="#373435"/><path d="M6270 3063l-36 312c-41 14-70-24-93-55 14 58 37 107 96 124l-2 162c-74 1-109-58-149-91 26 64 71 154 154 196l5 171c-64 9-109-95-154-145 37 120 95 220 190 287 85-64 163-152 195-283-45 55-92 154-170 139l-7-165c81-33 150-113 179-223-65 72-122 117-178 103l-11-152c64-10 102-66 126-130-38 29-89 69-124 63z" fill="#373435"/><path d="M5452 3283c677 228 960 342 811 876-411 104-582-43-811-876z" fill="#febf2c"/><path d="M5430 3255c693 212 1012 366 840 922-436 122-630-76-840-922zm70 75c546 206 775 258 747 819-409-28-530-89-747-819z" fill="#373435"/><path d="M5564 3409l174 251c-21 42-65 36-102 31 47 32 95 49 148 17l103 118c-54 56-116 41-166 47 60 26 150 57 236 24l113 119c-40 55-139 15-203 13 103 58 209 86 320 62 20-110 20-232-41-351 3 74 32 181-33 228l-111-113c37-85 35-194-14-295 0 101-12 176-62 209l-106-101c41-56 32-125 8-189-8 49-20 117-49 139z" fill="#373435"/><path d="M6603 3751c79 764 97 1092-413 1158-252-367-197-596 413-1158z" fill="#febf2c"/><path d="M6617 3717c100 775 98 1155-439 1207-277-385-189-658 439-1207zm-35 100c46 626 95 875-389 1073-141-419-139-565 389-1073z" fill="#373435"/><path d="M6541 3913l-141 274c-44-4-57-51-67-89-8 59-4 114 45 154l-58 149c-69-30-81-99-106-146 2 70 12 172 74 245l-55 160c-62-18-68-132-92-197-8 126 11 242 76 344 101-25 203-74 279-182-61 32-139 105-206 58l51-155c87 3 178-43 243-133-85 40-153 59-200 23l43-146c63 18 117-19 161-68-44 11-106 27-136 7z" fill="#373435"/><path d="M5705 3766c547 489 769 711 444 1145-415-74-522-280-444-1145z" fill="#febf2c"/><path d="M5694 3731c568 481 809 755 456 1199-445-67-556-330-456-1199zm39 98c433 415 628 558 406 1065-369-194-460-301-406-1065z" fill="#373435"/><path d="M5764 3929l74 304c-34 30-73 6-105-14 32 49 71 85 131 77l54 151c-69 30-121-10-170-25 47 49 119 115 210 120l63 157c-56 34-133-44-192-72 75 96 163 166 275 189 56-93 98-206 84-342-23 70-33 181-111 198l-62-150c63-64 100-166 89-279-35 93-73 158-130 168l-62-138c57-34 72-102 72-171-24 42-58 100-93 109z" fill="#373435"/><path d="M6535 4846c-398 637-581 898-1007 588 28-457 207-592 1007-588z" fill="#febf2c"/><path d="M6566 4831c-388 659-617 945-1056 605 20-488 250-633 1056-605zm-87 51c-340 508-452 731-937 539 144-418 232-526 937-539z" fill="#373435"/><path d="M6391 4926l-271 108c-31-34-13-79 2-115-41 39-71 84-58 149l-133 72c-35-72-3-132 7-186-41 55-94 139-90 239l-138 82c-37-58 27-149 48-215-81 90-137 192-148 315 91 53 198 88 321 59-66-18-169-18-192-101l132-82c64 64 161 94 264 71-88-29-151-64-166-124l120-81c37 58 101 69 164 63-41-23-97-55-108-92z" fill="#373435"/><path d="M5762 4353c235 725 320 1041-163 1229-321-296-315-533 163-1229z" fill="#febf2c"/><path d="M5769 4316c258 731 334 1101-179 1283-350-307-320-594 179-1283zm-13 107c173 598 272 829-158 1140-224-374-252-516 158-1140z" fill="#373435"/><path d="M5735 4525l-81 302c-43 7-66-36-84-70 5 59 21 112 76 139l-26 159c-73-12-99-76-133-116 17 68 47 165 123 220l-21 170c-64-2-93-112-130-170 19 125 61 234 145 317 93-48 183-121 235-246-53 47-115 137-189 108l18-164c85-19 164-86 209-189-74 60-137 95-191 71l12-153c65 2 111-47 143-105-41 21-97 52-132 40z" fill="#373435"/><path d="M4202 5348c116 759 149 1085-357 1180-269-353-225-585 357-1180z" fill="#febf2c"/><path d="M4215 5313c137 769 152 1148-381 1230-296-369-220-646 381-1230zm-30 103c75 622 136 868-338 1092-161-410-165-555 338-1092z" fill="#373435"/><path d="M4149 5513l-129 282c-43-2-59-48-71-86-5 60 2 115 53 152l-51 152c-71-26-86-94-113-140 5 70 20 172 86 241l-48 163c-63-15-74-128-101-192-2 126 23 242 92 339 100-30 200-85 270-197-59 36-134 112-202 70l43-158c87-2 176-53 236-147-82 45-150 67-199 34l36-148c64 14 117-25 158-77-44 14-104 33-136 15z" fill="#373435"/><g fill="#008752"><path d="M4898 5046c80 764 97 1092-413 1158-251-367-196-596 413-1158z"/><path d="M4913 5012c100 775 97 1155-439 1207-278-385-189-658 439-1207zm-35 100c45 626 94 875-390 1073-140-419-138-565 390-1073z"/><path d="M4837 5208l-142 274c-43-4-56-51-67-90-7 60-3 115 46 155l-58 149c-69-30-81-99-106-146 2 70 12 172 74 245l-55 160c-63-18-69-132-93-197-7 126 12 242 77 344 100-25 203-74 279-182-61 32-140 105-206 58l51-155c86 3 178-43 243-133-85 40-153 59-201 23l43-146c63 18 118-19 162-68-45 11-106 27-137 7z"/><path d="M5362 4800c115 759 147 1086-359 1179-268-353-224-585 359-1179z"/><path d="M5375 4765c136 769 150 1148-383 1229-295-369-219-646 383-1229zm-30 103c74 622 134 868-340 1091-160-410-164-555 340-1091z"/><path d="M5308 4965l-128 281c-44-1-59-47-72-85-5 59 2 114 53 152l-52 152c-70-27-85-95-112-141 5 70 20 172 86 241l-49 163c-63-14-74-128-101-192-1 126 23 242 92 339 100-29 200-84 271-196-60 35-135 112-203 69l44-158c86-2 176-53 236-146-83 45-150 67-199 34l36-148c64 14 117-25 159-77-44 14-105 33-137 14z"/></g><path d="M6100 5503c-475 572-689 803-1072 431 86-448 281-555 1072-431z" fill="#febf2c"/><path d="M6133 5493c-469 595-732 844-1123 441 82-481 328-590 1123-441zm-93 38c-401 451-541 656-997 392 196-392 298-486 997-392z" fill="#373435"/><path d="M5948 5561l-283 66c-26-38-3-80 17-114-46 33-81 73-77 139l-141 51c-24-76 15-131 31-183-47 49-111 124-120 223l-147 61c-29-63 46-143 75-206-91 78-160 170-186 290 83 66 185 117 310 107-63-28-165-44-177-129l141-61c55 72 148 117 252 110-83-42-141-86-148-149l129-61c29 63 91 83 154 87-37-29-89-69-95-107z" fill="#373435"/><path d="M5584 6112c-574 451-828 628-1131 177 171-419 382-479 1131-177z" fill="#febf2c"/><path d="M5619 6109c-573 475-878 659-1183 176 172-452 434-502 1183-176zm-98 17c-480 349-655 518-1051 156 267-339 385-407 1051-156z" fill="#373435"/><path d="M5424 6133l-289 1c-18-43 13-79 39-108-51 22-93 53-102 119l-148 18c-9-80 40-125 65-172-55 36-132 96-159 191l-156 26c-16-68 73-130 113-184-105 55-189 130-238 241 68 83 158 156 282 175-56-42-152-81-147-166l149-28c40 83 122 147 226 165-74-61-122-117-117-179l138-31c17 68 73 102 134 120-31-37-73-87-73-127z" fill="#373435"/><path d="M4981 6561c-641 327-922 449-1142-56 240-376 457-392 1142 56z" fill="#febf2c"/><path d="M5015 6566c-644 350-975 468-1192-68 247-409 513-405 1192 68zm-99-4c-531 246-733 376-1059-60 321-278 448-322 1059 60z" fill="#373435"/><path d="M4820 6550l-284-59c-10-46 26-74 56-97-54 11-100 33-120 96l-148-13c4-80 60-114 93-155-60 24-146 67-189 155l-158-7c-4-69 94-112 143-157-112 32-208 89-276 188 54 96 129 186 248 229-48-52-136-110-117-193l152 3c25 90 94 170 193 208-62-75-100-139-83-199l141-3c4 71 53 115 110 145-24-42-57-100-49-139z" fill="#373435"/><path d="M4523 5902c-148 753-227 1070-730 956-131-435-12-633 730-956z" fill="#febf2c"/><path d="M4547 5876c-132 769-245 1128-769 992-151-461 13-689 769-992zm-62 83c-140 609-167 862-683 882-11-446 34-583 683-882z" fill="#373435"/><path d="M4418 6035l-214 211c-41-19-39-68-38-108-25 53-36 107-2 162l-99 121c-56-52-48-121-58-175-18 67-39 168-1 258l-99 133c-54-39-26-149-30-219-43 117-60 234-28 352 103 12 214 1 318-76-68 10-163 52-212-15l94-130c81 33 181 21 269-42-93 9-163 3-197-48l83-123c55 38 117 23 173-9-45-5-108-11-131-41z" fill="#373435"/><path d="M4041 6740c148 362 397 638 761 811-137 12-386-24-523-79-3 241 57 335 158 514-387-243-549-614-577-1046 60-67 120-133 181-200z" fill="#febf2c"/><path d="M4041 6740c148 362 397 638 761 811-137 12-386-24-523-79-3 241 57 335 158 514-387-243-549-614-577-1046 60-67 120-133 181-200z" fill="none" stroke="#373435" stroke-width="27.779"/><path d="M3773 6533h202c71 0 129 53 129 118v184c0 65-58 118-129 118h-202c-71 0-129-53-129-118v-184c0-65 58-118 129-118z" fill="#febf2c"/><path d="M3773 6533h202c71 0 129 53 129 118v184c0 65-58 118-129 118h-202c-71 0-129-53-129-118v-184c0-65 58-118 129-118z" fill="none" stroke="#373435" stroke-width="27.779"/><path d="M2828 5683l1638 689 1502-1497-1400-572-1252-641-1880 1164s1365 846 1392 857z" fill="#1c5033"/><path d="M2828 5683l1638 689 1502-1497-1400-572-1252-641-1880 1164s1365 846 1392 857z" fill="none" stroke="#373435" stroke-width="27.779"/><path d="M2875 5675c640-63 1236 161 1619 492l1466-1496c-412-264-838-485-1386-356-566 453-1133 907-1699 1360z" fill="#fefefe"/><path d="M2875 5675c640-63 1236 161 1619 492l1466-1496c-412-264-838-485-1386-356-566 453-1133 907-1699 1360z" fill="none" stroke="#373435" stroke-width="27.779"/><path d="M2875 5675c570-281 1224-219 1644 225l1449-1447c-310-274-1043-314-1394-138-566 453-1133 907-1699 1360z" fill="#fefefe"/><path d="M2875 5675c570-281 1224-219 1644 225l1449-1447c-310-274-1043-314-1394-138-566 453-1133 907-1699 1360z" fill="none" stroke="#373435" stroke-width="27.779"/><path d="M2439 4824c-363 258-681 578-854 1088l91 327c108-49 216-97 324-146-41-496 342-992 578-1127z" fill="#febf2c"/><path d="M2439 4824c-363 258-681 578-854 1088l91 327c108-49 216-97 324-146-41-496 342-992 578-1127z" fill="none" stroke="#373435" stroke-width="27.779"/><path d="M2899 5669c-69-610-1208-1149-1366-1089l1940-1103c442 129 807 408 1089 851z" fill="#fefefe"/><path d="M2899 5669c-69-610-1208-1149-1366-1089l1940-1103c442 129 807 408 1089 851z" fill="none" stroke="#373435" stroke-width="27.779"/><path d="M2899 5669c-51-613-416-1517-1120-1383l1754-921c442 130 1017 670 1029 963z" fill="#fefefe"/><path d="M2899 5669c-51-613-416-1517-1120-1383l1754-921c442 130 1017 670 1029 963z" fill="none" stroke="#373435" stroke-width="27.779"/><path d="M3911 3915c-48 12-94 24-139 37-45 14-88 28-130 43 43-39 73-75 90-109 14-28 18-56 13-86-3-20-11-36-23-50-20-23-51-37-92-41-39-5-86 4-140 24-54 21-117 55-188 103-52 35-96 70-134 104-37 35-68 69-90 103-21 34-33 67-33 100-1 36 12 67 39 92 36 34 85 48 146 41 55-6 116-32 184-75 17-11 28-12 35-5 9 9 3 22-21 39-29 22-66 43-111 62-57 25-111 34-162 27-52-7-97-28-137-65-33-31-55-66-66-106-10-39-8-80 7-121 17-50 50-100 96-149 42-44 89-83 142-118 66-43 132-74 200-95 66-21 129-29 188-26 78 3 139 30 184 81 18 21 31 42 40 65 2 7 6 22 12 45 7 24 15 42 25 54 10 10 23 18 40 22 5 1 13 2 25 4zm-325 248c21 28 43 57 66 87 24 30 48 62 74 95 32 42 58 83 75 122 19 40 28 78 29 113 2 93-34 174-108 241-48 43-99 66-153 70-45 3-89-13-129-48-39-34-74-84-105-149-9-19-20-47-35-84-46 38-93 78-141 117-48 40-97 80-147 121-16 48-32 98-48 148-15-50-28-99-41-146-13-45-25-89-36-131 29 6 60 12 90 18 49-39 97-78 145-117 47-38 93-75 139-112-1-6-3-10-5-15-13-25-32-47-59-64 55-19 93-6 114 39 44-35 87-70 130-105 42-33 84-67 125-100 7-34 13-67 20-100zm52 170c-46 38-93 76-140 115-48 39-97 79-146 119 8 21 16 41 25 58 33 64 71 103 114 116 45 13 93-3 143-46 57-50 89-101 96-153 8-50-7-101-43-150-13-17-29-37-49-59zm1487 763c-26 6-67 18-122 38-59 22-109 41-148 58 21-28 36-52 43-72 10-26 7-53-6-79s-37-48-70-64c-41-19-85-27-134-21-42 5-78 20-108 45-41 35-48 72-22 111 12 20 28 38 48 56 24 21 49 43 74 65 55 48 83 94 84 135 1 49-23 94-70 135-54 45-121 72-201 80-93 11-177-5-251-47-34-19-68-47-104-83-10-11-26-28-47-52-17-18-32-31-46-39-18-10-54-16-106-18 42-11 92-28 153-51 62-24 106-43 132-57-28 37-45 64-51 83-9 31-5 61 11 91 19 34 51 64 98 89 47 27 95 39 141 37 54-2 98-18 134-48 30-26 45-56 44-91-1-28-15-57-41-86-15-16-45-43-91-80-57-46-86-87-87-123-2-43 21-85 68-125 58-49 127-77 207-83 70-5 135 7 197 37 47 22 91 55 135 98 20 20 37 33 50 39 16 8 45 16 86 22z" fill="#1c5033" fill-rule="nonzero"/><path d="M5194 4487c-24 9-59 27-106 55-50 29-91 55-123 77 14-31 22-57 24-77 3-27-4-51-21-74-16-23-40-39-70-48-37-11-73-11-111 1-32 10-58 28-78 54-28 36-31 69-6 102 12 16 27 32 44 46 23 19 47 37 71 57 55 45 89 91 98 137 10 56-3 111-41 163-42 59-101 95-174 109-81 16-155-1-219-48-27-21-55-50-83-88-7-10-19-28-35-52-12-17-23-29-33-36-13-9-38-13-74-11 29-14 65-34 107-61 44-28 75-50 94-66-19 38-31 67-35 86-6 31-2 62 10 92 15 35 42 66 80 92 41 29 82 41 122 37 46-5 84-26 112-64 23-33 32-69 26-108-5-31-21-61-47-90-14-15-42-40-82-72-48-39-73-74-76-107-4-38 11-77 42-117 38-48 87-81 147-97 52-15 106-14 161 2 42 12 87 34 134 67 23 16 42 26 55 30 17 6 46 9 87 9z" fill="#1c5033" fill-rule="nonzero"/><path d="M2922 5636c55 28 86 80 67 116-18 35-78 41-134 12-56-28-86-80-68-116 19-35 79-41 135-12z" fill="#373435"/><path d="M2933 5628c46 27 68 68 49 92s-71 21-117-6-69-69-50-92c19-24 72-21 118 6z" fill="#1c5033"/><path d="M3916 3547h1174v-54H3916zm619-380h870v-54h-870zm408-326h650v-54h-650z" fill="#373435"/><path d="M486 1301l313-12 781-312 822-446 1105-428 648-6 1319 585 973 457 873 156-162 932-798-249-1401-735-885-324-278-6-1053 370-874 411-1041 475-237 63z" fill="#1c5033"/><path d="M387 1168c227-502 967-388 1554-387-262 369-1216 578-1554 387z" fill="#1c5033"/><path d="M387 1168c227-502 967-388 1554-387-262 369-1216 578-1554 387z" fill="none" stroke="#febf2c" stroke-width="27.779"/><path d="M5402 2300h388v-49h-388zm-186 253h429v-54h-429z" fill="#373435"/><path d="M392 1221l59 281 37 280 17 330-13 199 264-51 325-100 430-164 436-205 334-188 316-173 432-225 245-126 242-53 325-50 362 26 288 103 308 140 473 251 563 312 587 269 454 142 314 74 72 18-7-162 5-341 41-356 59-218-74 11-341-7-414-155-367-175-785-397-598-289-386-115-334-75-388 11-377 68-317 109-528 247-602 319-589 293-414 148-247 20s-203-31-207-26zm192 139l185-17 356-88 369-157 475-231 430-221 386-197 412-168 382-107 399-30 378 94 432 142 425 207 513 260 434 210 476 205 327 92 214 11-35 183-50 455v128l-496-133-942-445-857-426-304-136-224-85-325-59-476 66-319 126-432 201-582 297-628 304-443 192-347 83-66 9-2-168-17-378z" fill="#373435"/><path d="M5504 2089h320v-49h-320z" fill="#373435"/><path d="M977 1869l-199-258 64-20 144 192 1-240 63-20-10 326zm213-80l-115-284 58-23 115 284zm112-44l-124-281 119-53c30-13 53-20 68-21 16-1 31 3 45 12s24 22 32 39c9 21 11 41 4 60-6 19-20 36-43 51 15 2 29 5 40 10 12 5 30 15 53 31l58 39-67 31-68-43c-25-16-41-25-49-28-7-3-15-5-22-4-7 0-17 4-30 9l-11 5 52 117zm-15-187l42-19c27-12 43-21 49-26s9-12 11-19c1-7 0-15-4-24s-10-15-18-19c-7-4-16-4-26-2-5 2-19 8-42 18l-44 20zm294 53l-134-276 204-100 23 47-149 73 30 61 138-68 23 47-138 67 36 75 154-75 23 47zm197-211l51-33c12 17 25 27 40 30 14 3 29 1 46-8 18-9 29-19 34-31 6-12 6-24 1-34-4-6-8-11-15-13-6-3-14-3-25-2-8 1-25 5-51 11-33 7-58 9-76 4-24-6-42-20-53-42-7-14-10-29-8-45s8-31 20-45 28-26 49-37c34-17 64-23 89-17s44 22 58 46l-54 31c-10-13-20-20-31-23-11-2-24 1-39 9-16 8-27 18-33 29-4 7-4 14 0 21 3 7 9 11 17 13 9 2 30 0 60-8 30-7 53-11 69-10 17 0 31 4 45 12 13 8 24 21 33 38 8 16 11 33 9 51s-9 34-21 49c-13 15-31 28-55 40-34 18-65 23-92 17-26-7-49-24-68-53zm754-280l-60 31-56-50-109 56 9 73-59 30-33-327 59-30zm-157-56l-90-82 15 120zm313-151l62-9c6 34 3 63-9 87s-33 44-62 58c-37 18-73 20-109 7-36-14-64-42-85-86-23-46-28-87-17-124s36-65 75-84c34-16 66-20 97-10 18 6 36 18 53 37l-49 40c-10-13-22-21-37-24-14-3-29-1-44 6-20 10-33 26-39 46-5 21 0 48 16 81 17 35 35 57 55 65 20 9 40 8 60-1 15-8 25-18 31-33s7-33 2-56zm361-80c18 4 36 5 55 4l-3 50c-10 1-20 1-30 0-2-1-19-3-49-9-15 16-34 28-56 38-44 18-83 20-118 5-36-15-63-46-83-92s-22-87-9-123c14-37 42-64 84-82 42-17 81-19 116-3 36 15 63 45 83 92 10 24 16 47 17 68 1 17-2 34-7 52zm-60-13c4-12 5-24 3-38-1-14-5-29-12-44-14-33-31-54-53-64-21-10-43-10-66-1-24 10-39 26-47 49-7 22-4 49 10 82s31 55 53 65c21 10 43 10 65 1 8-3 16-8 22-14-15-3-29-3-43-3l2-39c22-2 44 0 66 6zm50-279l59-21 57 156c9 25 15 41 19 48 7 11 16 18 28 22 12 3 26 2 43-4 16-6 27-14 33-23 6-10 8-20 6-31-1-10-7-27-15-50l-58-159 58-21 55 151c13 35 20 60 22 75 3 16 1 30-4 43s-13 25-25 36-30 20-52 28c-28 10-50 15-67 14-16-1-30-6-42-13s-22-16-28-26c-10-15-21-39-33-71zm393 188l-90-294 59-18 90 294zm117-39l-42-304 129-18c32-4 56-5 72-2 15 4 28 12 39 24 11 13 18 28 20 46 3 23-1 43-12 60-11 16-30 29-56 36 14 6 26 13 36 21s24 23 42 45l46 54-74 10-53-60c-19-21-32-35-39-40s-13-9-20-10-17-1-32 1l-12 2 18 126zm37-184l46-6c29-4 47-8 54-12 7-3 12-8 16-15 3-7 4-15 3-24-2-10-6-18-12-23-6-6-15-9-25-9-5 0-20 2-45 5l-48 7zm267 150V349h62v307zm189 12l31-253-90-11 6-52 242 30-6 52-90-11-31 253zm641 71l49 39c-21 28-44 46-70 54-25 7-54 5-85-7-38-14-64-39-78-75-15-35-13-75 4-120 18-48 45-80 79-97 35-17 73-18 113-3 35 14 59 35 73 64 9 17 12 39 9 64l-62-8c2-16 0-31-8-43-7-13-19-22-34-28-21-8-42-7-61 3s-35 32-48 66c-14 36-17 65-10 85s21 35 42 43c15 6 30 6 45 0 15-5 29-18 42-37zm68 149l129-278 119 55c29 14 50 26 61 37 11 12 18 26 20 42 2 17-1 33-9 50-9 20-23 35-42 43s-41 8-67 0c9 13 15 25 19 37s8 32 11 60l9 70-67-31-13-79c-4-29-8-47-10-55-3-8-7-15-12-20-5-4-14-10-27-16l-11-5-54 116zm131-135l41 20c27 12 45 19 52 20 8 1 15-1 22-5 6-3 11-9 15-18s5-18 3-26-8-15-16-21c-4-2-18-9-41-20l-43-20zm148 268l134-276 205 100-23 47-149-73-30 61 139 68-23 46-138-67-37 75 154 75-22 46zm283 33l56 22c-6 20-6 36-1 50 6 13 17 24 34 33 18 9 33 12 46 9s22-9 27-19c3-7 4-13 2-20-1-6-6-14-13-22-6-5-18-17-38-34-26-23-42-42-49-59-9-24-8-46 3-68 7-14 18-25 32-33s30-11 48-10 38 7 59 18c34 17 56 38 66 62 9 24 8 48-4 74l-56-26c5-15 5-28 0-38s-15-19-30-27c-16-8-31-11-43-9-8 1-14 5-17 12-4 7-4 14-1 21 4 10 18 24 42 44 23 20 40 37 49 50 10 14 15 28 16 44 2 15-2 31-11 49-8 15-20 28-35 37-16 9-34 13-53 12-19-2-41-9-64-21-35-17-57-39-68-64-10-26-9-55 3-87zm450 222l45 44c-23 26-48 41-75 46-26 4-54-1-83-16-37-18-60-46-71-82-11-37-5-77 17-120 23-45 53-75 89-88s74-10 112 9c33 17 56 41 66 72 7 18 8 39 3 64l-62-15c4-15 3-30-3-43-6-14-16-24-31-32-20-10-40-11-60-3s-39 28-55 61c-18 34-24 62-19 83s17 37 37 47c15 7 30 9 45 5s30-15 45-32zm49 153l140-274 202 104-23 46-148-75-31 60 138 70-24 46-137-70-38 75 153 78-24 46zm253 132l130-278 54 25 28 239 86-186 52 25-129 278-57-27-27-233-85 181zm394-154l105 43c24 9 41 18 52 27 15 12 26 26 33 44 6 17 9 36 8 57-1 20-7 44-18 71-9 23-20 42-33 57-15 18-32 30-51 38-14 5-30 7-49 6-14-1-32-6-53-14l-109-44zm38 72l-76 188 43 17c16 7 28 11 36 12 10 1 20 0 28-3s17-10 26-21 18-28 27-50 14-39 15-53c0-13-1-25-6-34-4-9-11-17-21-24-7-5-22-12-46-22zm170 184c10-29 23-53 38-70 12-12 26-22 41-30 16-8 31-12 47-13 20-2 42 1 66 10 43 14 72 39 89 75 17 35 17 76 0 124-16 46-41 79-76 96-34 18-73 20-115 5-44-15-73-40-90-75-16-35-16-76 0-122zm61 19c-12 33-13 60-3 82 9 23 25 38 49 46 23 8 45 6 66-6 21-11 37-34 48-68 12-33 13-60 4-82-9-21-25-36-50-44-24-8-46-7-67 5-20 11-36 33-47 67z" fill="#fefefe" fill-rule="nonzero"/><path d="M5563 1887h270v-49h-270z" fill="#373435"/><path d="M583 1353c30 168 85 444 75 769 633-70 1582-662 2209-980 1123-530 1396-305 2562 287 502 277 1403 707 1663 690 9-319 20-430 80-766-849 39-2339-1219-3301-1203-995 0-2412 1233-3288 1203z" fill="none" stroke="#febf2c" stroke-width="27.779"/><path d="M390 1216c88 361 117 724 103 1085 806-109 1588-594 2296-972 1147-630 1528-349 2737 302 534 301 1119 570 1728 673-24-375 5-728 107-1092C6656 1505 5056 14 3869 27 2628 12 1288 1454 390 1216z" fill="none" stroke="#febf2c" stroke-width="27.779"/></svg>