<svg clip-rule="evenodd" fill-rule="evenodd" height="589.333" image-rendering="optimizeQuality" shape-rendering="geometricPrecision" text-rendering="geometricPrecision" viewBox="0 0 4347 6139" width="417.333" xmlns="http://www.w3.org/2000/svg"><g fill-rule="nonzero"><path d="M3300 5788h96v-897h-96z" fill="#14512f"/><path d="M3383 2864c-6-29-24-46-63-41-30 182-132 62-226 82-165 35-69 143 37 160 3 57 28 99 14 152-11 42-84 69-70 126 18 78 148 35 176 168 23 101 35 234-25 273-53 34-191 13-215 120-15 68 136 124 197 72 24 57 66 74 116 50 7 83-36 147-29 233-112-59-152-150-287-108-57 17-83 56-132 85-48 28-98 18-143 42-47 24-104 69-48 131 45 52 135-14 186-17 82-4 222-11 303 12 78 23 117 107 83 200-19 54-154 106-52 130 43 10 50 10 67 50 12 30 15 73 21 105 18 92 40 167 89 39 23-56 26-118 27-180 0-126-35-282-3-405 15-55 30-74 40-130 9-51-22-121 38-152 71-36 218 86 312 54 88-30 88-47 39-108-3-4-163-62-36-67-9-84-50-21-88-53-30-27-48-80-64-94-39-36-132-68-204-67-10-133 165-88 220-52 44 27 54 70 95 88 27 13 98-7 135 0-5-30 5-61-4-89 43 32 82 122 123 49 24-43-22-162-50-185-40-32-329-49-327-128 1-86 166 26 130-116 170-14-38-85-53-103-15-17-13-91-27-121-21-40-67-5-72-80 27 0 44-19 74-9-29-71-125-73-178-128-39-40 12-88-59-82-41 3-68 50-60 100z" fill="#14512f"/><path d="M3187 4250c42 42 82 150 93 212-6-115 21-158-86-212zm241-879c14-40 18-85 6-125 25-6 52-6 75 0 5 70-58 80-85 133z" fill="#fefefe"/><path d="M1330 5630l-93-52-1-1036h92z" fill="#14512f"/><path d="M1369 2085c-8-1-26 16-32 21 1-8-3-13-1-25 5 83-48 107-59 173-11 67 26 112 19 175-13 112-49 66-102 102-41 29-76 66-118 102-52 43-131 34-132 145 88 45 170-34 253-4 1 71-130 150-181 167-42 13-94-22-128 24-40 54-24 111 32 111-34 125 170 43 233 29 0 93 86 45 132 36 11 62 5 130 11 189-111-26-198-91-304-80-68 8-100 40-149 73-16 9-28 39-51 53-26 15-63-17-91 5-62 47-31 142-80 205 63 66 366-189 375-47-1-2-57 78-60 83-18 43 21 41-23 98-12 16-83 58-102 74-34 28-60 47-96 71-58 36-184 168-33 177 44 3 236-163 248-92 11 71-126 74-125 162 43 13 80-28 119-44 47-20 47-11 98-1 47 9 203-7 172 108-27 102-159 40-156 188 25 3 47 24 76 17 9 123-137 191 15 172 56-8 48-75 101-7 32 40-24 118 46 133 72 14 66-191 125-230 54-35 21 1 86 24 44 16 96 54 124-16 34-82-116-217-159-268 38-16 42-23 56-70 66 21 235 139 302 79 156-140-148-195-176-236 30-54 228 69 216-69-61-16-79-89-130-114-49-25-112 32-134-49 95-19 12-51-5-93-20-53-5-101-58-134 11-217 244 5 308 24 67 19 156-30 102-144-19-39-58-23-83-47-19-21-29-70-49-85-62-43-133 1-182-82 34-19 146 25 150-40 2-47-101-75-124-97-46-46-41-94-75-136-42-50-110-28-117-121 72-36 123 44 188 67 61 23 151 29 213 30 206 4 45-206-40-266-35-23-218-85-107-173-28-33-82-76-94-123-28-97 19-58 40-120 22-64 47-25-19-88-28-25-85-29-115-33-37-6-111 0-144 31z" fill="#14512f"/><g fill="#fefefe"><path d="M1240 3975c39-110-103-318-188-251-25 21-21 62-54 77 29 45 88 40 27 103 8 2 21 11 34 11 0 53 64 49 95 74 33 26 61 65 79 109 25-30 20-86 14-127zm185 151c18-19 33-37 48-61-29-52-40-90-38-156-53 81-50 154-47 260 13-13 32-35 44-52zm-30-745c-4-37 36-133 55-146 33 40 93 45 137 56-41 59-107 36-123 137-16-25-37-47-61-52z"/></g><path d="M2243 5796h135V4333h-135z" fill="#14512f"/><path d="M2135 759c0 92-62 92-90 155-32 68-7 150-22 222-27 138-32 41-113 99-52 37-45 112-95 163-48 49-163 32-134 155 84 12 219-116 305-59 102 69-80 135-135 154-69 23-260 2-283 128-32 161 207 27 273 32 110 9 219 36 326 67 1 51 6 101 17 147-28 13-80 5-105 22-30 21-39 72-64 90-54 38-173-16-162 101 25 12 117-5 130 17 32 55-25 108-63 113 20 77 78 32 124 35 53 3 91 29 145 28 6 92 20 208 16 305-11-1-24 1-36 2-7 61 38 138 19 194-29 77-101 45-148 73-191 110 49 107 63 184 23 25 34 27 21 79 28-19 42-16 55-63 33 65 8 198 18 277 12 104 4 209 15 314 10 101 38 200 40 304 0 40 13 100-13 136-41 56-57-2-102 12-124 35-90 179 15 94 6 18 15 35 17 55 0 7 25 24 30 32 34 50 74 310 162 179 60-89 22-363 20-471-2-92-45-289-25-368 20-84 144-143 210-116 41 18 55 87 94 106 59 30 67-13 119-31 103-35 206 36 242-139 9-3 18 2 27-2 9-116-197 15-229-152-27-139 117-185 95-321-53-24-60 24-100 31-40 8-69-2-107-3-99 0-154 3-64-79 19-15 94 27 81-50-12-48-71-39-99-33-47 9-165 111-189 167-23 52-30 234 4 286-47 33-70 113-106 167-3-222-21-442 8-659 15-112 42-140 124-213 58-51 124-124 191-147 91-32 204 23 110 149 47-11 102-14 148-28 74-24 48-16 100-81 64-82 13-75 100-45 54 17 86 36 145 44 46 7 123 54 157-11 51-96-39-82-66-120-28-39-28-124-54-153-47-53-107 22-163 11-64-13-246-117-278-192 42-19 82 12 124 19 3-114-222-67-286-75-34-5-30 47-70 22-24-14-33-66-50-82-63-58-55-43-125-1-21 12-32 47-56 59-37 22-49-28-85 13 2-101 40-202 105-260 85-78 114 4 204-21 55-16 69-40 132-32 43 6 85 37 128 42 86 10 206-72 121-179-64-81-214 17-249-80 42 3 83 7 87-49-39-37-81-27-123-47-15-6-113-57-121-65-75-79 12-73-5-120-21-61-71-31-97-76-90-158 135-35 178-98 81-123-119-116-163-134-75-30-178-115-259-124 15-91-84-204-106-84z" fill="#14512f"/><path d="M2364 2716c27-19 38-49 57-77 20-26 45-41 65-65 80-105-59-13-71-82-9-50 141-75 20-107-74-20-127-1-115 101 9 88 23 190 3 279 15-21 25-49 47-53zm-41-842c43-25 79-94 128-124-14-28-35-49-62-51-7 48-41 32-58 73-10 28-4 90-8 121zm33 1794c41-50 95-65 147-76-11-25-23-58-15-90-50 46-133 83-132 176z" fill="#fefefe"/><path d="M4338 1607v-30h-421v3c0-676-627-1191-1733-1191-1101 0-1728 515-1728 1191v2979c0 677 627 1181 1728 1181 1106 0 1733-504 1733-1181v-11h421v-18c0 914-630 1599-2166 1599S6 5444 6 4530V1607C6 696 636 10 2172 10s2166 686 2166 1597z" fill="#d23438"/></g></svg>