<svg clip-rule="evenodd" fill-rule="evenodd" height="735.999" image-rendering="optimizeQuality" shape-rendering="geometricPrecision" text-rendering="geometricPrecision" viewBox="0 0 7681 7667" width="737.333" xmlns="http://www.w3.org/2000/svg"><path d="M3840 177c2022 0 3661 1639 3661 3661S5862 7500 3840 7500 178 5860 178 3838 1818 177 3840 177z" fill="#fefefe"/><path d="M3840 11c2114 0 3827 1714 3827 3827 0 2114-1713 3828-3827 3828S12 5952 12 3838C12 1725 1726 11 3840 11zm0 1129c1490 0 2698 1208 2698 2698 0 1491-1208 2699-2698 2699-1491 0-2699-1208-2699-2699 0-1490 1208-2698 2699-2698z" fill="#0e1b8d"/><g fill="#098a4e"><path d="M4455 3058c0 109-22 206-65 293s-107 155-190 204c-256 150-842 0-792-220 11-46 111-218 244-89 31 30 58 53 95 78 38 25 87 37 148 37 83 0 151-25 204-75 52-50 78-113 78-189 0-60-14-108-42-145s-65-66-110-86c-44-19-104-40-179-62-100-31-184-66-251-106-67-41-121-96-160-166-40-70-59-157-59-262 0-99 20-187 62-264 42-76 103-136 182-177 79-42 172-62 279-62 85 0 159 14 222 41 62 28 114 64 155 109 41 46 71 93 90 143s29 99 29 147c0 57-152 195-199 138-16-21-35-55-54-103-26-68-56-121-91-159-36-38-93-57-172-57-72 0-131 21-176 62-44 42-67 91-67 149 0 36 8 67 23 94 15 26 36 48 63 67 26 19 53 34 81 45 27 10 72 26 134 46 79 24 150 50 214 79 63 28 117 63 162 104s80 93 105 155c25 63 37 140 37 231zm0 2137c0 108-21 206-65 293-43 86-107 154-190 203-256 151-842 1-792-220 11-45 111-217 244-88 31 30 58 53 95 78 38 25 87 37 148 37 83 0 151-25 204-75 52-51 78-113 78-189 0-60-14-108-42-145-28-38-65-66-110-86-44-20-104-41-179-63-99-30-183-66-251-106-67-40-121-96-160-166-40-70-59-157-59-261 0-99 20-187 62-264s103-136 182-177c79-42 172-62 279-62 85 0 159 13 222 41 62 27 114 64 155 109s71 93 90 143 29 99 29 146c0 58-152 196-198 139-17-21-35-56-55-103-26-68-56-121-91-159-36-38-93-57-172-57-72 0-131 20-176 62-44 41-67 91-67 149 0 36 8 67 23 93s36 49 63 68c26 19 53 33 81 44 27 11 72 26 134 47 79 24 150 50 214 79 63 28 118 63 162 104 45 41 80 93 105 155 25 63 37 140 37 231z"/><path d="M4842 4312c34 429-231 665 54 1043-43 517-905 632-1194 487-28 42-26 66-22 93 748 72 998 28 1597-511 322-67 521-610 620-1038-236 424-540 319-704 723-31-387-131-525-351-797z"/><path d="M5315 4695c-6-659 147-483 497-1047-5 682-116 798-497 1047zm78-748c-53-1207 208-639 163-1368 316 680 225 1044-163 1368zm-188 679c137-645-48-502-279-1125-131 669-46 805 279 1125zm63-744c148-995-248-536-292-1203-205 559 24 876 292 1203zm44-838c-607-834-224-605-673-1262 594 73 875 695 673 1262zm-2733 663v212c-23 60-63 63-123-7-99-20-193-14-284 5l8 588c87 233 448 570 827 515l61-121c64-25 104-13 120 41 34 278 45 622-34 762-523-4-1381-806-1365-1094l-7-901 7-901c-16-288 842-1090 1365-1094 79 140 68 484 34 762-16 54-56 66-120 41l-61-121c-379-55-740 282-827 515l-8 588c91 19 185 25 284 5 60-70 100-67 123-7z"/></g><path d="M824 5626l388-307 186 236-65 52-136-172-86 68 126 160-65 52-126-161-106 84 140 178-66 52zm242 343l360-340 118 125c31 32 49 58 55 78 7 20 6 42-1 66-8 24-23 46-45 67-28 27-57 41-87 44s-59-6-87-27c3 21 3 41 0 60s-12 49-26 90l-36 102-68-71 38-117c13-43 21-70 23-82 2-13 1-23-2-32s-11-20-24-34l-12-12-150 142zm264-137l41 44c26 27 43 43 53 48 9 5 19 7 31 5 11-2 23-9 35-21 12-10 19-21 21-33 3-11 2-21-3-32-3-7-18-24-43-51l-44-46zm70 477l322-376 62 53-322 376zm141 147l306-389 63 49-74 363 205-260 59 47-306 389-64-51 70-355-199 254zm624-124l129 75c33 19 55 37 68 54 12 17 20 38 24 63 5 26 3 55-5 87-9 32-24 69-48 110-22 37-44 67-69 89-24 23-47 38-69 47-22 8-45 11-67 9-23-3-49-12-78-29l-133-76zm29 113l-164 284 53 31c23 13 40 20 53 22s25 0 37-5c11-5 24-15 40-32 15-16 31-39 49-70s30-58 37-79c6-20 7-39 4-55-3-15-10-29-22-40-8-8-27-21-55-37zm406 648l-81-36 14-117-149-66-76 88-79-35 346-388 79 36zm-57-240l24-191-125 146zm122 258l132-473 79 22-110 392 196 55-22 81zm353 107l90-487 296 55-16 82-215-40-20 108 200 37-15 82-200-37-25 132 223 42-15 82zm661-59l79-12c11 63 41 93 91 92 25-1 45-8 58-22 14-13 21-29 20-48 0-12-3-21-8-29-6-8-13-14-24-18-10-5-35-13-74-24-35-9-61-20-78-31-16-12-30-28-40-48s-16-41-17-64c0-27 5-52 17-74 11-21 28-38 49-50s48-18 79-19c48-2 86 10 114 35 27 25 43 62 46 110l-82 6c-5-26-13-44-25-54-13-10-30-15-52-14-22 0-39 6-51 15-12 10-17 21-17 35 1 13 7 24 18 33 11 8 36 18 76 28 41 11 71 22 90 35 19 12 33 29 44 49 10 21 16 46 17 76 1 42-11 79-36 109-26 30-67 46-123 48-99 3-156-52-171-164zm431 150l-59-492 298-35 10 83-217 26 13 108 202-24 10 83-202 24 16 134 225-27 10 83zm588-296l85 12c0 57-11 101-33 132-22 32-54 52-95 62-51 12-98 1-139-31-47-37-80-95-98-172-19-83-15-151 11-206 23-48 62-78 116-91 44-10 85-3 122 20 26 17 49 45 69 85l-74 41c-11-24-26-42-44-53-18-10-37-13-58-8-29 7-50 25-62 54-13 30-13 74 1 132 14 61 33 102 57 123 23 22 50 29 78 23 21-5 38-18 49-37 12-20 17-49 15-86zm107-104c-20-55-28-104-24-146s16-76 36-103 49-47 87-60c55-20 107-14 156 15 49 30 87 83 114 160 28 78 31 146 10 203-18 50-55 85-110 104s-106 16-151-12c-52-31-91-84-118-161zm78-31c19 53 43 90 73 110 30 19 60 24 90 13s51-33 61-66c11-34 7-78-13-133-19-54-43-91-71-110-29-19-59-23-90-12-32 11-52 33-63 66s-6 77 13 132zm452 85l-221-443 71-35 297 221-148-296 68-34 221 443-73 37-291-216 144 289zm126-648l126-81c32-20 58-32 79-35 20-3 43 0 67 8 25 8 49 23 74 45s51 53 76 93c23 36 39 70 48 102 8 32 11 60 9 83-3 24-11 45-23 64-13 19-33 38-61 56l-130 82zm113 26l176 277 52-33c22-14 37-27 44-37 8-11 12-22 13-35 1-12-2-29-10-50-7-21-20-46-39-76-20-31-38-54-53-69-16-15-31-25-47-29-16-5-31-5-46 0-11 4-31 15-58 32zm758-103l-67 58-100-62-123 108 48 106-65 57-206-477 65-57zm-242-49l-163-102 79 175zm282 10l-357-343 120-124c30-32 55-52 75-59 19-8 41-8 65-2 25 7 48 21 70 42 28 26 44 55 48 85 4 29-3 59-23 87 22-3 42-4 60-2 19 2 49 9 91 21l104 31-68 71-119-31c-42-12-70-18-83-20-12-1-22 0-31 4-9 3-19 12-33 26l-11 12 149 143zm-149-257l42-43c26-27 41-45 46-55 4-10 5-20 2-32-2-11-10-22-22-34-11-11-22-17-34-19-11-2-22-1-32 5-7 3-23 19-48 45l-45 46zm526-152l-170-121-319-45 55-77 214 35-104-189 55-77 147 287 169 121zm60-597c20 7 42-4 49-24l138-410c7-20-4-42-24-49-20-6-42 4-49 25l-138 409c-7 20 4 42 24 49zM869 4338l-487 62-10-81 403-51-25-202 83-11zm-37-344l-494 12-8-300 84-2 5 219 109-3-5-204 84-2 5 204 135-4-6-226 83-2zm16-470l-408-52-15 119-83-11 40-319 83 11-15 119 408 52zm163-737l-24 85-118 3-44 157 98 63-23 83-433-286 24-84zm-229 91l-192 4 161 103zm247-133l-447-202 34-74 371 168 84-186 76 34zm150-316l-426-244 41-71 353 203 101-177 73 42zm302-458l-438-251 55-64 297 178-209-279 64-73 308 172-221-273 54-63 311 398-58 66-333-181 228 303zm316-352l-305-389 64-51 120 153 127-99-121-153 64-51 306 389-64 51-134-170-126 99 133 170zm183-450c-32-49-51-95-57-136-6-42-2-78 12-109 13-31 37-57 71-78 49-32 100-39 155-21s104 61 148 130c45 69 63 134 56 194-6 53-34 95-83 127-50 32-100 39-150 23-58-18-108-61-152-130zm69-48c31 48 63 78 96 90 34 12 64 10 91-7 27-18 42-44 44-79 3-35-11-77-43-127-31-48-62-78-94-90-33-12-63-9-91 9s-43 45-46 79c-3 35 12 76 43 125zm595-56l-158-469 115-39 179 297-40-344 117-40 158 469-72 25-125-370 49 395-74 25-202-343 125 369zm448-147l-87-487 296-53 14 83-215 38 19 108 200-36 15 82-201 36 24 133 223-40 15 82zm371-65l-37-493 171-13c44-3 76-1 96 6 19 7 36 22 50 43 13 21 22 46 24 77 3 38-4 70-21 95s-42 42-75 51c18 11 34 23 46 37 13 15 30 40 53 77l57 93-98 7-67-103c-24-37-41-60-49-69-9-9-17-16-26-19s-23-4-41-2l-17 1 15 206zm60-290l60-5c37-3 61-6 71-10s17-12 23-22c5-10 8-24 6-40-1-16-5-28-12-37s-16-15-27-18c-8-2-30-2-67 1l-64 5zm346 267l13-495 81 2-12 495zm251 9l52-408-120-15 11-83 319 40-10 83-119-15-52 408zm540-406l157 45c42 12 71 24 86 37 16 13 26 31 33 54 6 23 6 47-1 72-7 23-18 42-33 58-16 15-33 25-51 29 20 15 34 34 41 58 8 24 7 50-1 78-10 35-26 62-50 81-23 19-47 28-71 27-17 0-54-9-112-25l-133-38zm56 102l-31 110 52 15c31 9 51 14 59 15 14 1 26-1 36-8 11-7 18-19 22-35 4-14 5-26 1-37-4-10-10-18-18-23-8-4-33-13-75-24zm-54 189l-36 127 74 21c32 9 53 13 63 12 10 0 20-5 29-13s15-19 19-35c5-15 5-29 1-41-3-12-10-21-20-28s-32-15-66-25zm256 302l204-451 274 124-35 76-199-91-45 100 186 84-35 76-186-84-55 123 206 93-34 77zm655 347l-74-48 31-113-137-88-89 77-73-47 399-332 74 47zm-21-245l52-185-145 125zm58 272l306-389 135 107c35 27 57 50 66 69 10 18 12 40 8 65s-15 49-34 73c-24 30-51 49-80 56s-59 3-89-14c6 21 9 41 8 60 0 19-4 50-12 92l-21 107-77-61 20-121c7-44 11-72 10-84 1-13-2-23-6-31-4-9-14-19-29-30l-13-11-128 163zm240-174l48 38c29 23 49 36 59 40s21 3 32 0c11-4 21-13 32-26 9-12 15-24 16-35 1-12-2-22-8-32-5-6-22-21-50-44l-51-40zm243 622l310-269-78-91 63-55 211 244-64 54-78-90-311 269zm164 191l416-268 44 69-164 105 87 136 164-105 44 68-416 267-44-68 182-117-87-136-182 117zm219 347l440-226 137 268-74 38-100-195-97 50 93 181-75 38-93-181-120 61 104 202-75 38zm217 487l476-135 36 126c13 47 19 79 19 95-1 25-11 49-31 70-19 22-48 39-86 49-35 10-65 12-92 5-27-6-48-18-63-34-15-17-29-49-43-97l-15-52-179 51zm417-34l-135 38 12 44c9 29 16 49 23 58 8 10 17 16 30 20 13 3 27 3 43-1 15-5 28-12 37-22s14-21 14-32c1-11-3-34-13-67zm-263 719l-15-87 104-54-29-160-116-14-15-85 515 68 15 86zm167-182l171-87-191-22zm-174 232l491-12 2 81-407 11 5 203-83 3zm11 343l493 37-9 122-343 48 332 98-10 123-493-37 6-76 389 29-383-110 6-78 395-51-389-29zM818 5192c-20 7-42-4-48-24l-139-410c-7-20 4-42 24-49s42 4 49 24l139 410c6 20-4 42-25 49z" fill="#fefefe"/></svg>