<svg clip-rule="evenodd" fill-rule="evenodd" height="867.999" image-rendering="optimizeQuality" shape-rendering="geometricPrecision" text-rendering="geometricPrecision" viewBox="0 0 5639 9042" width="541.333" xmlns="http://www.w3.org/2000/svg"><path d="M2585 1787c291 51 484-74 738-237 25 226 116 559 324 797 39 66-37 143-88 107-168-147-283-415-317-659-207 132-398 196-657 142-70-33-60-151 0-150z" fill="#373435"/><g fill="#00a4b4"><path d="M3449 566c278 0 504 245 504 545s-226 545-504 545c-277 0-504-245-504-545s227-545 504-545zm-1173 891c-88-10-70 165-25 161 482 9 615-175 666-249 20-70-59-171-114-165-102 120-285 266-527 253z"/><path d="M3903 1540c-19-6-76-33-90 32 77 211 57 407 128 598 49 88 113 89 169-15 51-199 89-414-207-615zm237-368c-10-45-35 68-20 70 298 419 596 115 695-181 22-97-53-186-150-116-206 269-516 272-525 227zM3956 26c-34-31-216-29-265 5-25 183-123 336-198 446 6 32 107 83 126 88 200-107 288-341 337-539zM2804 784c48 20 116-188 95-204-111-149-238-350-433-421-37-9-149 120-86 168 87 30 377 437 424 457zM1606 5010C1058 5805 598 7260 6 8386c1288 256 3016 222 5606 186L4043 4886 2835 6992z"/></g><path d="M911 6681c93 551 442 501 547 279 137-192-72-1015 410-577 533 625 329-35 494-53l-690-1362zm2498-452c-88 380 224 386 327 178 115-147 146-882 345-440 135 689 442 183 273-42l-297-1046s-561 969-648 1350z" fill="#fefefe"/><path d="M63 8472c584-1159 1022-2569 1606-3743 245 868 765 1590 1147 2385 410-646 861-1527 1238-2376 398 1364 957 2684 1480 3869-618-31-1250-99-1860-9-2361 276-2401 67-3224 37 1927 51 3579-427 4788-171-535-1183-872-2270-1201-3510-343 766-646 1623-1118 2300 131 234 198 395 329 630-22 6-129 52-151 59L1638 5130C1080 6153 852 7380 383 8476z" fill="#373435"/><path d="M3099 1212c18-242 93-350 196-440 721-462 924 815 101 813-93 0-403-275-416-330-27-114-21-234 19-344 24-11 43-37 72-33-16 0 11 577 28 334zm487-406c-101-2-223 30-311 229-113 227 17 386 91 393 130-5 242-115 291-259 4 37 29-361-71-363zm154-708c-32-17-92-2-124 34 14 146-34 283-72 382 11 24 32 14 48 14 135-119 146-267 148-430zm-988 657c36 28 102-55 88-72-51-144-145-301-300-409-30-17-132 18-90 72 69 47 265 380 302 409zm-399 682c-76-12-67 139-27 138 415 24 488-159 536-220 19-60 1-90-47-87-92 100-254 188-462 169z" fill="#a9abae"/><path d="M3832 1564c-19-1-75-15-75 46 135 170 195 345 228 507 60 68 117 57 147-46-40-181-90-374-300-507zm295-340c-67-52-30 62-15 64 281 266 539-51 624-190 16-88-55-167-140-99-68 257-402 276-469 225z" fill="#a9abae"/><path d="M5633 8842c-1792 166-3292 342-4535-38 1579 152 3220-42 4535 38zM1548 3359c-327 260 195 669 323 699 266-117 136-783-323-699z" fill="#373435"/><path d="M3140 1777c60-132 227 15 175 99-267 776-555 1588-957 2265 68 209 128 407 162 697 335-481 575-961 781-1570 79-102 170 9 159 94-203 643-513 1111-899 1615 179 1372-186 2641-682 3788-39 101-238 155-285 78 275-406 1178-2876 647-4574-8 13-113-35-104-81 37-52 92-158-37-256 20-170 173-25 178 41 421-656 578-1468 862-2196z" fill="#373435"/></svg>