<svg clip-rule="evenodd" fill-rule="evenodd" height="615.999" image-rendering="optimizeQuality" shape-rendering="geometricPrecision" text-rendering="geometricPrecision" viewBox="0 0 6417 6417" width="615.999" xmlns="http://www.w3.org/2000/svg"><path d="M3207 196c1663 0 3011 1348 3011 3011S4870 6218 3207 6218 196 4870 196 3207 1544 196 3207 196z" fill="#004186"/><path d="M3207 990c1225 0 2217 993 2217 2217s-992 2217-2217 2217c-1224 0-2217-993-2217-2217S1983 990 3207 990z" fill="#fefefe"/><path d="M2769 3288h2456c-32 575-240 1048-621 1418-382 370-850 555-1405 555-570 0-1048-199-1432-598-384-397-576-891-576-1480 0-277 53-539 158-787 104-249 258-472 461-671 195-193 411-337 648-431s500-141 789-141c383 0 728 92 1033 278 304 186 549 451 733 794h-478c-186-237-385-412-598-526-212-113-449-169-712-169-454 0-837 162-1151 487s-471 715-471 1171c0 485 157 889 470 1212 313 325 699 487 1158 487 361 0 686-116 973-348 287-231 473-531 560-901H2769z" fill="#8b8a89" fill-rule="nonzero"/><g fill="#fec81f"><path d="M1753 2784c-120 117-197 277-252 460-36 244 69 420 213 577 90-551 788-758 1159-845 412-259 24-242-395-152-209-179-327-208-594-222-120 34-122 49-131 182z"/><path d="M561 3815c-31 9-56 27-72 54-18 28-22 60-13 93 9 31 29 57 58 72 27 15 59 19 91 10 30-8 56-28 72-56 15-28 19-59 11-89-10-40-38-69-76-82-22-8-46-9-71-2zm14 45c38-10 78 12 88 52 10 37-12 76-50 86-43 12-81-11-91-49-5-18-2-38 9-56 10-17 25-27 44-33zm-50 241l15 42 92-33 27 75 38-13-27-75 49-18 27 75 38-13-41-118zm54 146l16 42 91-35 29 74 37-14-29-75 50-19 29 75 37-15-45-117zm116 256l36-18-36-71 51-26 36 72 36-18-36-72 47-24 36 72 36-18-56-112-206 104zm37 74l93-54-62 106 27 47 48-96c23 26 57 31 88 13 25-15 37-38 35-67-2-17-11-35-24-57l-28-47-199 116zm103-60l64-37 9 14c17 29 15 48-6 61-22 13-44 3-62-29zm274 222l-77-109-33 24 25 36-155 110 26 36 155-110 26 36zm-74 127l46 58-74 59 28 35 181-144-28-35-73 58-46-58 73-58-28-36-181 144 28 35zm108 275l30-26-52-61 43-37 52 60 31-26-53-61 40-34 52 60 31-27-82-94-174 152zm94 94l42 40c18 18 33 29 56 30 18 1 38-7 53-23 19-19 23-44 11-64 17 5 33-1 48-17 18-18 22-43 10-68-5-11-14-20-25-31l-36-34zm60 1l41-44 10 10c19 18 21 35 7 51-14 14-29 11-49-8zm67-71l36-38 5 5c17 16 20 30 8 43-13 13-28 11-45-6zm91 263l26-31-61-52 37-43 61 51 26-30-61-52 34-40 61 51 26-31-95-80-149 176zm61-43c-27 38-22 79 11 103 35 26 77 17 105-21 19-26 18-50-1-78-11-15-23-25-24-39-1-6 1-11 4-16 10-13 23-16 35-7s14 22 5 34l-1 2 33 24c23-36 18-69-12-91-32-24-70-16-96 19-18 26-16 52 6 82 16 21 26 31 11 51-10 15-27 17-41 7s-16-27-4-43l2-2zm317 26l-111-72-22 34 37 24-104 160 38 25 104-160 36 23zm94 201l-71-41-19 32 71 41zm175 199l17-37-73-33 24-52 73 33 16-36-73-33 22-48 73 33 17-37-114-52-95 211zm136-33l14 93 47 18-25-135 109-80-48-19-71 58-12-91-47-19 25 133-113 81 48 19z" fill-rule="nonzero"/><path d="M2359 5906l24-86 16 5c49 13 86-8 97-49 7-24 1-48-13-66-10-11-27-17-51-24l-55-15-61 223zm34-124l17-60 11 3c25 7 35 20 30 41-6 19-22 26-46 20zm205 187l9-40-78-18 13-56 78 19 9-39-77-19 12-51 78 18 9-39-122-29-53 225zm281-110c-13-53-44-83-93-93-32-6-61 0-87 18-28 18-45 45-51 76-7 32-2 61 13 87 18 30 45 49 79 55 49 10 89-7 119-49l-54-11c-15 14-35 19-57 15-38-8-63-45-55-87 4-19 15-36 31-47s34-15 52-11c23 4 39 17 48 36z" fill-rule="nonzero"/><path d="M3010 5796l-132-10-4 40 44 4-16 189 45 4 16-190 43 4zm218 9l-133-4-1 41 44 1-5 190 45 2 5-191 43 1zm57 135l75-2 2 94 45-1-6-232-45 2 3 93-75 2-2-93-46 1 6 231 46-1zm285 72l-5-41-80 10-6-57 79-9-5-40-79 9-6-52 79-9-5-41-124 15 28 230zm131-21l57-11c25-4 43-10 57-27 12-15 16-36 12-58-5-26-22-43-46-46 14-10 19-27 15-48-5-26-23-43-49-48-12-3-25-1-40 2l-49 9zm35-48l-11-59 14-2c25-5 41 3 45 23s-8 31-34 36zm-18-96l-10-51 7-1c23-5 36 1 40 18 3 18-8 29-32 33zm267 80l-11-39-77 21-15-55 77-21-10-39-77 21-14-51 77-21-11-39-120 33 61 223zm-1-72c17 43 53 62 92 48 41-14 57-54 41-99-10-29-31-43-64-42-19 0-34 4-46-2-5-3-9-7-11-14-5-15 0-27 14-32s26 1 31 15l1 2 38-14c-16-39-46-54-82-41-37 13-52 48-38 90 11 30 34 43 71 41 27-1 40-4 48 19 6 18 0 33-17 39-16 5-31-2-38-21l-1-3zm208-246l-123 48 15 38 40-16 69 178 43-16-70-178 41-16zm216 41l-74 35 15 34 75-35zm141-219l-114 66 21 36 37-22 96 164 39-23-96-164 38-22zm64 96c17 28 42 46 73 53 32 8 63 3 92-16 27-17 46-45 52-77 6-30 0-62-18-89-17-27-44-45-76-52-31-6-62-1-88 16-34 22-54 57-55 98-1 23 6 46 20 67zm39-27c-22-33-12-77 22-99 32-21 76-11 98 22 24 37 14 80-19 102-16 10-37 13-57 8-19-5-34-16-44-33zm321-81l43-38c19-17 32-31 35-53 3-18-3-39-18-56-17-20-41-26-63-16 7-16 3-33-12-50-17-19-40-25-66-16-12 4-22 12-34 22l-37 32zm6-60l-40-45 11-9c19-17 37-18 51-2 13 15 8 30-12 47zm-64-73l-35-40 5-4c18-16 32-18 44-4 12 13 8 28-10 44zm273-63l-28-29-58 56-39-42 58-55-28-29-58 55-36-38 57-55-28-29-90 86 160 167zm85-210l-70-146-32 37 50 95-101-34-32 38 155 45 64 54 29-35zm13-64c26 21 55 30 87 27 33-2 60-18 82-45 20-25 29-57 24-89-4-31-20-59-45-79s-56-29-88-25-60 19-79 43c-25 32-33 72-21 110 7 23 20 42 40 58zm29-38c-31-24-36-69-11-101 24-30 69-35 100-11 34 28 39 72 14 103-12 15-30 24-51 26-19 1-37-4-52-17zm29-227l123 80c19 12 35 22 56 22 26-1 44-12 60-36 15-24 18-45 8-69-7-18-22-29-43-42l-123-80-24 38 112 73c31 20 43 35 30 55-12 19-31 14-62-6l-112-72zm318-71l-93-54 123 2 27-46-107 5c12-33-1-65-32-83-26-14-52-14-76 3-14 10-24 27-37 49l-28 47 200 116zm-103-59l-65-38 9-15c16-28 34-37 56-24 21 13 24 36 5 68zm210-150l24-53c11-23 17-41 10-62-5-18-19-34-39-43-25-11-49-7-65 11 0-18-11-31-31-40-24-11-48-7-68 12-8 9-14 20-21 34l-20 46zm-19-57l-54-24 5-13c11-24 27-32 46-23 18 8 20 24 9 48zm-88-40l-48-21 3-6c9-22 21-30 37-22 17 7 20 22 10 44zm219-172l-37-15-30 74-53-21 29-74-37-15-29 74-49-19 29-74-37-15-47 116 215 85zm-60-41c45 11 81-8 92-47 11-42-11-78-57-91-31-8-54 1-72 29-11 15-16 30-28 36-6 3-11 3-17 1-16-4-23-16-19-30s16-21 30-17l2 1 11-40c-42-8-71 8-81 44-11 38 10 71 52 83 30 8 54-4 75-35 14-22 19-35 43-28 18 5 26 19 21 36-4 16-19 24-38 19l-4-1zm-82-309l-31 128 40 10 10-43 185 44 11-44-186-44 10-42zM601 2828l-18 218 58 5 12-137c38 20 59 60 56 102-5 61-58 105-121 100-61-6-107-57-102-117 3-34 18-60 45-78l7-83c-74 24-116 77-122 151-4 53 9 96 40 133 33 39 76 62 124 66s92-9 128-35c42-33 66-76 71-129 6-72-26-134-89-172-22-13-47-21-77-23-4 0-8 0-12-1zm228-201l-61-11-19 108-284-52-13 67 345 63zm64-219l-59-17-33 117-84-24 33-117-58-16-33 117-77-22 33-117-59-16-52 182 338 95zm46-116l-209-97 270-36 27-58-318-146-28 61 203 93-264 38-27 59 318 147zm115-243l33-59-128-74 60-105-53-30-60 105-69-39 60-106-53-30-94 164zm-30-303c39 30 84 44 131 40 50-4 92-28 124-68 31-39 44-87 37-136-6-47-30-89-70-120-37-29-84-43-133-37-47 6-90 29-119 66-38 49-49 109-31 167 10 34 31 63 61 88zm43-58c-47-37-55-105-17-154 37-45 105-53 151-16 53 41 60 109 23 156-18 22-46 36-78 39-29 2-56-7-79-25zm397-195l-111-118 177 56 60-56-157-39c31-43 26-94-11-133-31-33-70-43-112-30-24 8-46 28-75 55l-61 57 240 255zm-123-131l-77-82 18-18c36-34 66-39 92-11s19 63-22 101zm426-132l-38-48-96 75-53-68 95-75-38-48-95 75-49-62 95-75-38-49-149 118 217 275zm-29-113c38 59 98 75 151 41 55-35 67-98 29-159-26-41-61-54-110-42-28 7-49 17-69 12-8-2-14-8-20-16-13-21-9-41 10-53 18-11 39-7 51 12l2 3 52-33c-38-52-87-65-135-34-51 32-62 89-27 145 26 41 65 53 119 38 39-10 58-19 78 12 15 24 9 48-14 63-21 14-46 7-62-18l-2-5zm271-436l-179 92 28 54 59-30 132 257 61-31-132-257 59-30zm267 146c23 66 78 96 136 77 63-21 90-80 67-149-15-45-46-66-96-66-29-1-52 5-70-5-7-5-12-11-15-21-8-23 1-42 22-48 21-7 39 2 46 24l1 2 59-19c-24-60-69-84-123-66-57 19-81 72-60 135 15 46 50 66 106 65 39 0 60-4 72 31 8 27-2 49-28 58-24 8-47-5-56-33l-2-5zm463-20l-14-60-118 27-19-84 118-27-14-60-118 27-18-77 118-27-13-60-185 42 78 341zm350-298c-43-69-101-99-178-89-47 7-87 30-116 67-31 40-43 86-37 135 6 48 27 88 61 117 40 35 87 49 139 42 75-9 125-52 148-127l-83 11c-14 26-40 43-74 47-58 8-112-34-121-98-3-29 4-59 22-83 17-23 42-37 70-41 35-4 64 6 86 30zm66 76c-2 50 14 94 45 130 33 38 77 57 129 59 48 2 95-16 131-51 34-32 53-77 55-127 1-48-16-93-50-129-33-35-76-55-123-57-62-2-117 25-153 74-22 29-33 63-34 101zm72 0c2-59 52-106 113-104 59 2 105 52 103 112-2 67-52 112-112 110-29-1-57-14-78-39-18-22-27-49-26-79zm390 213l41-227 103 253 62 11 63-344-66-12-40 220-102-246-64-12-63 345zm376 93c41 14 73 21 109 9 54-16 93-57 113-118 18-54 16-103-5-143-23-44-56-63-109-81l-111-37-111 333zm14-58l-43-14 73-219 42 14c67 22 93 75 70 145-25 75-70 98-142 74zm261 89l115 59-9 78 65 34 42-373-52-27-282 249 63 33zm125-9l-74-38 89-81zm116 225l88-137-11 186 69 43-1-161c49 19 97 1 126-44 24-38 25-78 1-116-14-21-39-38-71-59l-71-44-187 295zm97-152l60-96 22 14c42 27 54 54 34 86-21 32-56 34-103 4zm254 252l219-112-58-47-141 81 46-156-59-47-60 239-79 98 54 43zm182 189c-52 47-59 108-19 155 43 50 108 53 163 5 36-31 44-67 25-114-11-27-25-46-22-66 1-9 5-16 13-22 18-16 39-15 53 2 15 16 13 37-4 52l-3 2 41 47c46-45 51-96 14-139-39-46-98-48-148-5-36 32-42 72-20 123 16 37 27 54-1 79-21 18-46 16-64-5-16-19-13-44 9-64l4-3zm479 388c40-72 39-137-6-199-29-39-68-63-114-71-50-8-97 3-137 32-39 28-64 66-74 109-11 52-1 100 29 143 44 61 106 84 183 69l-49-68c-30 0-57-15-77-43-34-47-24-114 29-152 23-17 53-25 84-20 27 4 51 19 68 41 21 30 25 60 15 91zm-28 181l52 100-127 65 31 61 312-160-31-61-127 65-51-101 126-65-31-60-312 160 31 61zm142 210c-47 16-83 46-106 87-24 45-28 93-11 142 15 46 48 84 93 105 42 21 90 23 138 8 45-15 82-47 104-91 21-43 25-91 11-136-20-59-64-101-122-118-35-10-70-9-107 3zm25 68c56-19 117 12 136 70 19 56-12 117-68 135-64 21-124-10-143-67-9-27-6-58 10-86 14-25 36-43 65-52zm100 325c-48 9-88 34-117 72-30 40-40 87-31 138 9 48 37 90 78 117 39 27 86 36 136 27 47-8 87-34 116-75 26-39 37-86 29-132-11-62-49-110-105-135-32-14-68-19-106-12zm15 71c59-11 115 28 126 89 10 57-29 113-87 124-66 12-121-28-132-86-5-29 3-59 22-84 18-24 42-38 71-43zm-122 537l62-2-4-110 289-9-3-68-350 11z" fill-rule="nonzero"/></g><path d="M3207 4c1769 0 3203 1434 3203 3203 0 1768-1434 3203-3203 3203C1439 6410 5 4975 5 3207 5 1438 1439 4 3207 4zm0 110c1708 0 3094 1385 3094 3093S4915 6300 3207 6300 114 4915 114 3207 1499 114 3207 114z" fill="#004186"/><path d="M1789 3882c-343-347-348-709-14-1085-19-153 86-204 249-180 26-22 36-67 15-88-114-15-180-22-108-117 655-698 1513-804 2269-318-602-543-1681-537-2331 285-54 63-125 125-22 173-137 28-145 108-141 230-398 551-236 860 83 1100z" fill="#201e1c"/><path d="M2000 2740c-20 18-18 38-6 58 71 12 140 45 207 85-39-72-103-123-201-143zm65-122c218 39 329 127 401 214 198-138 438-212 690-270-224 29-442 89-654 179-6-5-8-17-40-39 32-12 167-39 199-51-70 7-212 42-287-55 94-343 351-42 86-77 115 312 480-233 30-129 73-161 409-189 696-204-229 3-797-80-909 379-32 64-69 55-212 53z" fill="#201e1c"/><path d="M2768 2374c67 47 70 124 15 187 110-60 225-108 357-114-121-38-239-72-372-73zM1698 3722c-84-524 843-749 613-896 209 115 427 69 646 18-508 269-1177 235-1259 878z" fill="#201e1c"/><path d="M1818 3548c317-316 706-476 1110-588-516 116-874 208-1110 588zm1087-829c215-53 336 31 220 192 329-167 797-131 1235-56-407-187-758-113-1077-84 243-141 499-195 762-210-411-74-848 269-907 83-81 18-171 28-233 75zm832-441c412 163 686 299 938 649 13-342-278-495-938-649zm-285-244c398 83 694 184 1062 450-149-280-463-406-1062-450z" fill="#201e1c"/><path d="M2240 3282c612-359 2865-923 2371 433 46-959-931-942-2371-433z" fill="#201e1c"/><path d="M2489 3261c1070-261 2116-65 1847 917 731-1203-1087-1210-1847-917z" fill="#201e1c"/><path d="M2630 3298c1077-37 1916 494 1183 1271 1103-856-180-1543-1183-1271z" fill="#201e1c"/><path d="M3409 3490c415 492 427 905 4 1196 637-236 503-892-4-1196z" fill="#201e1c"/><path d="M2933 3406c495 334 582 987 92 1281 609-73 574-1018-92-1281z" fill="#201e1c"/><path d="M2680 3381c411 381 290 1103-118 1172 552 72 718-829 118-1172z" fill="#201e1c"/></svg>