<svg clip-rule="evenodd" fill-rule="evenodd" height="601.333" image-rendering="optimizeQuality" shape-rendering="geometricPrecision" text-rendering="geometricPrecision" viewBox="0 0 7722 6264" width="741.333" xmlns="http://www.w3.org/2000/svg"><path d="M2570 4185h1649V2942H2570z" fill="#195ba2"/><path d="M1681 457h758c-165 501 150 996 669 1067v4727H1681zm3045 9h-757c164 501-151 996-669 1068v4726h1426z" fill="#195ba2"/><g fill="#ef4942" fill-rule="nonzero"><path d="M4884 1436c0-18 206-192 285-255 80-63 159-119 236-168 78-49 155-92 230-128 289-138 558-185 791-166 242 19 448 109 599 241 90 79 162 172 211 275 163 339 110 624-24 858-126 220-247 323-396 443l-143-253c130-105 191-157 291-332 92-160 128-357 14-593-32-67-80-129-140-182h-1c-108-94-256-157-434-172-187-15-406 24-645 139-266 128-574 367-874 712z"/><path d="M4884 911s108-88 149-118c42-31 84-59 125-87 42-27 84-53 127-77 42-25 84-47 127-69 43-21 85-41 128-59 328-140 657-191 956-165 307 28 582 137 791 319 131 114 237 256 308 423h1c54 128 88 253 105 373 16 120 16 236 1 347-84 542-437 885-705 1056l-142-250c218-138 496-417 564-843 11-86 11-176-2-271-13-96-40-196-85-300-54-126-133-233-232-319-164-142-382-228-628-250-254-23-536 22-820 143-38 17-76 34-114 53s-76 39-113 61c-38 22-76 45-113 69-37 25-75 51-112 78-37 28-73 56-110 87-36 30-72 62-108 95s-98 96-98 96zM327 462c-150 804 408 1718 1227 1870v295C593 2448-141 1427 39 462z"/><path d="M705 462c-98 585 221 1362 849 1467v298C769 2096 291 1212 417 462z"/></g><path d="M6137 2258l-563 599 291 18-509 527h327c61 696-696 1101-1071 1307l-527 55v1489h2760c85-896 206-1556-472-2815l400 36-436-563h272z" fill="#195ba2"/><path d="M1681 5470h1427v-29H1681zm0 311h1427v-91H1681z" fill="#fefefe"/><path d="M3201 13l74 3 74 12 68 18 69 23 63 30 59 36 55 41 54 45 45 51 43 56 36 58 30 64 26 66 18 68 12 71 3 74-3 73-12 71-18 69-26 66-30 63-36 59-43 53-45 51-54 48-55 41-59 35-63 31-69 22-68 18-74 13-74 2-73-2-71-13-71-18-66-22-64-31-58-35-58-41-51-48-46-51-43-53-36-59-30-63-25-66-18-69-13-71-2-73 2-74 13-71 18-68 25-66 30-64 36-58 43-56 46-51 51-45 58-41 58-36 64-30 66-23 71-18 71-12z" fill="#ed3237"/><path d="M6910 5441H3298v29h3612zm-13 249H3298v91h3592z" fill="#fefefe"/></svg>