<svg clip-rule="evenodd" fill-rule="evenodd" height="704" image-rendering="optimizeQuality" shape-rendering="geometricPrecision" text-rendering="geometricPrecision" viewBox="0 0 7306 7333" width="701.333" xmlns="http://www.w3.org/2000/svg"><path d="M3651 13c2014 0 3648 1634 3648 3648 0 2015-1634 3649-3648 3649C1636 7310 2 5676 2 3661 2 1647 1636 13 3651 13z" fill="#fefefe"/><path d="M3651 104l200 3435L4889 282l-777 3274 1747-2443-1434 2599 2240-1688-1884 1860-1128 935z" fill="#fff212"/><path d="M3667 103l195 3349L4874 279v-2l31 9-759 3195 1700-2377 158-220-131 237-1398 2534 2180-1643 190-143-169 167-1884 1859-1 1-1127 935-26 22v-34l-2-4714v-1zm169 3436L3667 651l2 4134 1102-913 1714-1692-2050 1545-59 45 35-65 1304-2362-1590 2222-47 66 19-79 680-2866-911 2857-25 82z" fill="#373435" fill-rule="nonzero"/><path d="M3653 104l-200 3435L2415 282l777 3274-1747-2442 1434 2599L640 2025l1884 1859 1127 935z" fill="#fff212"/><path d="M3669 105l-2 4714v34l-26-21-1127-936-1-1L629 2036l-170-167 190 143 2181 1644-1398-2535-131-237 157 220 1700 2378-758-3196 30-8 1 1 1011 3174 195-3350 32 1zm-32 547l-168 2888-5 85-26-81-910-2858 680 2867 18 78-46-65-1590-2223 1303 2362 36 65-59-44L820 2181l1714 1691 1101 914z" fill="#373435" fill-rule="nonzero"/><path d="M3651 296l190 3325-160 1158-28 40-39-47-151-1150z" fill="#fff212"/><path d="M3656 3563l9-1669c-292-62-680 52-917 131l-388 1539c399-211 897-229 1296-1z" fill="#ed3237"/><path d="M3640 3536l9-1629c-141-27-304-14-460 16-159 29-311 76-428 115l-377 1495c47-23 95-44 144-62 60-22 121-40 184-53 310-70 643-37 928 118zm41-1642l-10 1669v27l-23-13c-283-162-618-198-930-129-60 14-120 32-179 53-58 22-116 47-171 76l-1 1-31 16 8-34 388-1538 2-9 9-3c119-39 276-88 440-119 165-31 337-44 485-13l13 3z" fill="#373435" fill-rule="nonzero"/><path d="M3655 3452c3-520 7-1039 10-1558-292-62-562-66-799 13l-408 1518c399-210 798-201 1197 27z" fill="#fefefe"/><g fill="#373435" fill-rule="nonzero"><path d="M3639 3425l10-1518c-140-29-275-44-404-43s-251 18-366 55l-396 1476c191-95 382-141 574-136 194 4 388 59 582 166zm42-1531l-11 1558v27l-23-13c-197-113-394-172-591-176-196-4-393 46-590 149l-32 17 9-35 408-1518 2-8 8-3c120-40 249-59 384-60s276 15 423 46l13 3z"/><path d="M2656 3109c152-62 304-86 456-78s304 48 455 114l-12 29c-148-65-296-104-444-112-148-7-295 16-443 77zm74-269c139-50 263-74 394-73 131 2 269 27 437 76l-9 31c-165-49-300-74-428-75-127-1-248 22-384 70zm55-272c151-40 264-59 379-58 115 0 231 21 388 62l-7 30c-156-39-270-60-382-61-111-1-222 18-370 57zm97-261c252-43 321-34 564 0 33 5 68 10 105 15l-4 31c-41-5-74-10-105-14-239-34-307-43-555-1zm5-215c158-29 266-42 364-40 99 2 187 20 308 55l-9 30c-118-33-205-51-300-53-96-2-201 11-357 39z"/></g><path d="M3655 3563l-9-1669c292-61 680 53 917 132l388 1538c-399-210-897-228-1296-1z" fill="#ed3237"/><path d="M3639 3563l-9-1669v-13l13-2c148-31 320-18 485 13 164 31 321 79 440 119l8 3 3 8 387 1538 9 34-31-16-2-1c-55-29-112-54-170-76-59-21-119-39-180-52-312-70-646-34-929 128l-23 14zm23-1656l9 1630c285-155 617-189 928-119 63 14 124 32 183 54 50 18 98 38 145 62l-377-1496c-117-39-269-85-428-115-157-30-319-43-460-16z" fill="#373435" fill-rule="nonzero"/><path d="M3656 3452c-3-519-7-1039-10-1558 292-61 562-66 799 13 136 507 272 1013 407 1519-398-211-797-202-1196 26z" fill="#fefefe"/><path d="M3640 3452l-10-1558v-13l13-2c147-31 288-48 423-47s264 20 384 60l8 3 2 8 408 1519 9 35-32-17c-197-104-394-154-590-150-197 5-394 63-591 176l-23 13zm22-1545l10 1518c194-106 388-162 582-166 191-4 383 41 574 136l-396-1475c-115-37-237-55-366-56s-264 14-404 43z" fill="#373435" fill-rule="nonzero"/><path d="M4643 3139c-148-60-295-84-443-76s-296 47-444 111l-12-29c151-66 303-106 454-114 153-8 305 16 457 79zm-73-269c-136-49-256-72-383-71-128 1-263 27-429 75l-8-30c168-49 306-75 436-76 132-1 256 22 395 72zm-53-271c-147-40-258-58-370-58-111 1-226 22-381 62l-8-31c158-40 274-61 389-62s228 18 378 58zm-94-260c-247-43-315-33-554 0-31 4-65 9-105 14l-4-31c36-5 72-10 105-14 242-34 311-44 564-1zm-5-216c-156-28-262-41-357-39-96 2-182 20-300 53l-9-30c120-34 209-52 308-54 98-3 206 11 364 39z" fill="#373435" fill-rule="nonzero"/><path d="M2951 982h636l-4 59c-234 85-348 131-315 379l797 617V982h301l-3 1008-3 1008-724 5v-35c187-90 295-193 426-341l-2-220-840-607-5 1198h-264zm4292 2636c-1217-129-2430 79-3590 1465l-2-369c1124-1233 2416-1437 3591-1342z" fill="#195ba2"/><path d="M7242 3626c-607-65-1214-45-1813 164-599 208-1191 606-1770 1298l-14 17v-22l-2-369v-3l2-2c563-618 1168-978 1780-1171 611-194 1229-221 1818-174l7 1v7l1 246v9zm-1818 149c599-209 1205-229 1811-166l-1-230c-584-46-1198-18-1804 174-609 192-1211 550-1771 1164l2 344c576-684 1166-1078 1763-1286z" fill="#373435" fill-rule="nonzero"/><path d="M3646 3595h46v-22h-46z" fill="#fff212"/><path d="M7243 3618c-1217-129-2430 79-3590 1465l-1-185c1047-1234 2292-1528 3607-1418z" fill="#ed3237"/><path d="M7242 3626c-607-65-1214-45-1813 164-599 208-1191 606-1770 1298l-14 17v-22l-1-185v-2l2-3c524-618 1098-1001 1706-1215 608-215 1249-261 1908-206l8 1-1 8-16 138-1 8zm-1818 149c599-209 1205-229 1812-166l14-122c-654-53-1290-7-1893 206-604 213-1175 594-1697 1208l1 160c576-684 1166-1078 1763-1286z" fill="#373435" fill-rule="nonzero"/><path d="M65 3618c1217-129 2428 73 3588 1460l-2-364C2527 3481 1241 3277 66 3372z" fill="#195ba2"/><path d="M73 3609c606-64 1211-44 1810 163 596 207 1185 600 1762 1284l-2-339c-560-614-1160-972-1767-1164-606-193-1218-220-1802-174zm1804 178c-598-207-1204-226-1811-161l-9 1v-9l1-246v-8h7c589-48 1205-20 1815 174 611 193 1214 553 1777 1171l2 2v3l2 364v22l-14-17c-579-692-1171-1089-1770-1296z" fill="#373435" fill-rule="nonzero"/><path d="M3616 3595h46v-22h-46z" fill="#fff212"/><path d="M65 3618c1217-129 2428 79 3588 1465l-1-185C2605 3664 1364 3370 49 3480z" fill="#ed3237"/><path d="M72 3609c607-64 1212-43 1811 166 596 207 1185 602 1762 1286l-1-160c-522-614-1092-995-1695-1208-602-213-1237-260-1891-206zm1805 181c-598-209-1204-229-1811-164l-8 1-1-8-16-138-1-8 8-1c659-55 1299-9 1906 206 607 214 1180 597 1704 1215l2 3v2l1 185v22l-14-17c-579-692-1171-1090-1770-1298z" fill="#373435" fill-rule="nonzero"/><path d="M3625 4697l28 27 25-28-10 171-14 21-18-20z" fill="#195ba2"/><path d="M3624 4878l30 31 25-30-10 172-15 21-19-22z" fill="#ed3237"/><path d="M3642 5083l12 11 10-12 7 24s-13 4-15 4-17-2-17-3-3-21-3-21z" fill="#fefefe"/><path d="M1646 5834h-77v-527h77v224h215v-224h76v527h-76v-229h-215zm378-527h77v335c0 48 7 81 21 100 14 18 38 28 73 28 32 0 55-10 69-29 13-19 20-52 20-99v-335h77v334c0 36-2 64-6 83s-11 35-20 49c-16 24-35 42-58 54s-50 18-81 18c-34 0-62-6-85-17-23-12-43-30-60-54-10-14-17-30-21-47-4-18-6-46-6-86zm498 527h-74v-527h114l153 408 152-408h112v527h-71l5-458-172 458h-54l-171-458zm627-306h24c39 0 67-6 84-18s25-32 25-60c0-24-7-42-23-54-15-11-38-17-70-17h-40zm-1 235h60c35 0 61-7 78-20s25-34 25-61c0-30-9-53-26-68-18-16-43-23-77-23h-60zm38-456c56 0 99 12 128 37 30 24 44 60 44 107 0 22-5 41-14 58-10 16-23 30-42 41 26 8 46 23 61 45s23 48 23 78c0 25-5 48-14 70-9 21-22 39-38 53s-34 24-54 29c-20 6-49 9-85 9h-122v-527zm542 527h-274v-527h274v70h-197v157h197v69h-197v158h197zm170-254h39c53 0 92-8 118-25s39-44 39-78-11-60-33-76c-23-15-58-23-106-23h-57zm0 254h-76v-527h152c63 0 111 14 145 43 33 30 50 72 50 127 0 43-14 79-42 108s-64 44-108 47l150 202h-96l-175-245zm530 0h-46l-203-527h81l145 393 145-393h80zm310 0h-77v-527h77zm366 0h-274v-527h274v70h-198v157h198v69h-198v158h198zm36-527h78l114 406 103-406h57l103 406 114-406h78l-160 527h-69l-95-394-95 394h-68zm-3560 886h40c1 16 6 29 14 38 9 10 20 14 34 14 16 0 28-4 37-14 9-9 14-22 14-38 0-14-3-25-10-32-7-8-21-15-43-22-1 0-3 0-5-1-26-7-45-18-56-34-5-7-9-14-12-22s-4-16-4-25c0-27 8-48 24-64 15-16 36-25 61-25 24 0 43 8 57 22 14 15 23 35 24 60h-42c0-12-4-22-12-30-8-7-17-11-28-11-13 0-23 4-30 13-8 8-12 19-12 32 0 5 1 9 2 13 2 4 4 8 7 12 6 7 19 13 39 18 9 3 16 5 21 6 20 8 36 19 46 34 11 14 16 31 16 52 0 30-9 53-26 72-16 18-39 27-67 27-26 0-47-9-64-26-16-18-24-41-25-69zm382 89h-160v-308h160v41h-115v92h115v40h-115v92h115zm334-77c-13 27-31 47-55 61-24 15-51 22-82 22-23 0-45-5-64-13-20-9-37-22-53-40-13-14-23-31-29-50-7-18-11-38-11-59s5-42 13-61 20-37 36-52c15-15 31-26 49-34 19-7 38-11 59-11 32 0 59 7 83 22s42 36 54 64h-52c-10-14-22-24-36-31-15-7-31-10-49-10-15 0-29 2-42 8-13 5-24 13-34 24-11 11-19 23-25 37-6 15-9 29-9 44 0 17 3 32 8 46s13 27 23 37c11 11 23 20 37 26 13 6 27 9 42 9 17 0 33-4 47-10 15-7 26-17 35-29zm78-79c0 17 3 32 8 46 6 14 13 27 24 37 10 11 22 20 36 26s28 9 42 9c32 0 59-12 80-34 22-23 32-51 32-84 0-15-2-28-8-41-5-13-12-25-22-36-12-12-24-21-38-27-13-6-28-9-44-9-14 0-28 2-41 8-13 5-25 13-35 24-11 11-19 23-25 37-6 15-9 29-9 44zm-46 0c0-22 4-42 12-61 8-20 20-37 36-52 15-15 32-26 50-34 18-7 38-11 59-11s41 4 60 11c18 8 35 19 50 34 16 15 27 32 35 52 8 19 12 39 12 61s-3 42-10 60c-7 19-17 35-30 50-16 17-34 30-54 39s-41 13-64 13-44-5-64-13c-19-9-37-22-52-40-13-14-23-31-30-50-7-18-10-38-10-59zm399 156h-45v-308h46l151 233-2-233h44v308h-42l-155-240zm289-41h54c35 0 62-10 81-30 20-20 30-47 30-82s-10-63-31-83-51-30-88-30h-46zm43 41h-86v-308h99c46 0 83 14 112 43 28 29 42 66 42 112 0 26-5 50-16 72-10 21-25 39-45 54-14 9-28 16-44 20-15 5-36 7-62 7zm346-133l-44-117-44 117zm-104 43l-34 90h-47l120-308h43l120 308h-48l-34-90zm264-58h23c31 0 54-5 69-15s22-25 22-46c0-20-6-34-19-44-13-9-34-14-62-14h-33zm0 148h-45v-308h89c37 0 65 9 85 26 19 17 29 41 29 74 0 25-8 46-25 63-16 16-37 25-62 27l87 118h-56l-102-143zm294-111v111h-45v-114l-94-194h50l67 148 68-148h49zm219 22h40c1 16 6 29 14 38 9 10 21 14 34 14 16 0 28-4 37-14 10-9 14-22 14-38 0-14-3-25-10-32-7-8-21-15-43-22-1 0-3 0-5-1-26-7-45-18-56-34-5-7-9-14-12-22s-4-16-4-25c0-27 8-48 24-64 15-16 36-25 61-25 24 0 43 8 57 22 15 15 23 35 24 60h-42c0-12-4-22-12-30-7-7-17-11-28-11-13 0-23 4-30 13-8 8-12 19-12 32 0 5 1 9 2 13 2 4 4 8 7 12 6 7 19 13 39 18 9 3 16 5 21 6 20 8 36 19 46 34 11 14 16 31 16 52 0 30-9 53-26 72-16 18-39 27-67 27-26 0-47-9-64-26-16-18-24-41-25-69zm502 12c-13 27-32 47-55 61-24 15-51 22-82 22-23 0-45-5-64-13-20-9-37-22-53-40-13-14-23-31-30-50-6-18-10-38-10-59s4-42 12-61c9-19 21-37 36-52s32-26 50-34c18-7 38-11 59-11 32 0 59 7 83 22s42 36 54 64h-52c-10-14-22-24-37-31-14-7-30-10-48-10-15 0-29 2-42 8-13 5-25 13-35 24s-18 23-24 37c-6 15-9 29-9 44 0 17 2 32 8 46 5 14 13 27 23 37 10 11 23 20 36 26 14 6 28 9 43 9 17 0 33-4 47-10 14-7 26-17 35-29zm90 77h-44v-308h44v131h126v-131h44v308h-44v-134h-126zm257-156c0 17 2 32 8 46 5 14 13 27 23 37 10 11 22 20 36 26s28 9 42 9c32 0 59-12 80-34 22-23 32-51 32-84 0-15-2-28-7-41s-13-25-23-36c-12-12-24-21-37-27-14-6-28-9-45-9-14 0-28 2-41 8-13 5-25 13-35 24s-19 23-25 37c-5 15-8 29-8 44zm-47 0c0-22 4-42 12-61 8-20 20-37 36-52 15-15 32-26 50-34 18-7 38-11 59-11s41 4 60 11c18 8 35 19 50 34 16 15 28 32 35 52 8 19 12 39 12 61s-3 42-10 60c-7 19-17 35-30 50-16 17-34 30-54 39-19 9-41 13-64 13s-44-5-63-13c-20-9-38-22-53-40-13-14-23-31-30-50-7-18-10-38-10-59zm387 0c0 17 3 32 8 46 6 14 13 27 23 37 11 11 23 20 37 26s28 9 42 9c32 0 58-12 80-34 21-23 32-51 32-84 0-15-3-28-8-41s-12-25-22-36c-12-12-24-21-38-27-13-6-28-9-44-9-14 0-28 2-41 8-13 5-25 13-35 24-11 11-19 23-25 37-6 15-9 29-9 44zm-46 0c0-22 4-42 12-61 8-20 20-37 36-52 15-15 31-26 50-34 18-7 37-11 58-11 22 0 42 4 60 11 19 8 36 19 51 34s27 32 35 52c8 19 12 39 12 61s-4 42-10 60c-7 19-17 35-31 50-16 17-33 30-53 39s-41 13-64 13-44-5-64-13c-19-9-37-22-52-40-13-14-23-31-30-50-7-18-10-38-10-59zm500 156h-146v-308h45v265h101z" fill="#195ba2" fill-rule="nonzero"/><path d="M6839 1858c7 0 12 7 12 14s-5 13-12 13-12-6-12-13 5-14 12-14zm-6370 5c10 0 19 7 19 15 0 9-9 16-19 16s-19-7-19-16c0-8 9-15 19-15z" fill="#fefefe"/><path d="M3657 174c1931 0 3497 1566 3497 3498 0 1931-1566 3498-3497 3498-1932 0-3498-1567-3498-3498 0-1932 1566-3498 3498-3498zm0-151c2014 0 3648 1634 3648 3649S5671 7321 3657 7321C1642 7321 8 5687 8 3672S1642 23 3657 23z" fill="#195ba2"/></svg>