<?xml version="1.0" encoding="utf-8"?>
<!-- Generator: Adobe Illustrator 20.0.0, SVG Export Plug-In . SVG Version: 6.00 Build 0)  -->
<svg version="1.1" id="Calque_1" xmlns="http://www.w3.org/2000/svg" xmlns:xlink="http://www.w3.org/1999/xlink" x="0px" y="0px"
	 viewBox="0 0 226.5 50.2" style="enable-background:new 0 0 226.5 50.2;" xml:space="preserve">
<style type="text/css">
	.st0{fill:#EA5357;}
	.st1{fill:#009CDE;}
	.st2{fill:#FDC400;}
	.st3{fill:#FFFFFF;}
</style>
<path class="st0" d="M12.2,2.8c5.3,1.3,7.9,4.7,8.5,10.7c0.3,3,4.7,2.1,3.9-1.6C24.1,9.1,22.5,3.1,12.2,2.8"/>
<path class="st0" d="M25.9,13.4c4-3.9,13.8-10.7,26.2-7.7c2.8,0.7,4.5-4,0.9-4.4C43.9,0.3,31.9,4.5,25.9,13.4"/>
<path class="st0" d="M26.1,0.7C24.3,2,23.4,4.5,24,6.5c0.3,1,1,1.7,1.9,2c1,0.3,2.1,0.1,3.1-0.6c1.4-1,2.3-2.7,2.3-4.4
	c0-0.5-0.1-0.9-0.2-1.4c-0.3-1-1-1.7-1.9-2C28.2-0.2,27,0,26.1,0.7 M26.5,6.8c-0.4-0.1-0.7-0.4-0.8-0.9c-0.4-1.2,0.2-2.9,1.4-3.8
	c0.5-0.4,1.1-0.5,1.5-0.3c0.4,0.1,0.7,0.4,0.8,0.9c0.4,1.2-0.2,2.9-1.4,3.8C27.5,6.8,26.9,6.9,26.5,6.8"/>
<path class="st1" d="M10,37.1c0.7-6.1,4.5-10.7,9.1-14.2c2.3-1.8-0.6-5.4-3.3-2.8C13.8,21.9,9.7,25.9,10,37.1"/>
<path class="st1" d="M16.3,18.4C11.1,16.7,5.1,12.6,4,2C3.7-1-0.3-0.5,0,3.3C0.4,10.7,6.1,17.3,16.3,18.4"/>
<path class="st1" d="M7.1,20c-2.1,0.6-3.8,2.7-3.8,4.8c0,1.1,0.4,2,1.2,2.6c0.8,0.6,1.9,0.8,3,0.5c2.1-0.6,3.8-2.7,3.8-4.7
	c0-1.1-0.4-2-1.2-2.6C9.3,19.9,8.2,19.7,7.1,20 M5.6,25.9c-0.3-0.3-0.5-0.7-0.5-1.2l0,0c0-1.3,1.1-2.7,2.5-3
	c0.6-0.2,1.1-0.1,1.5,0.2c0.3,0.3,0.5,0.7,0.5,1.2c0,1.3-1.1,2.7-2.5,3C6.5,26.3,6,26.2,5.6,25.9"/>
<path class="st2" d="M44.7,13.2c-3.7,4.2-12.2,7.6-17.4,5.1c-2.6-1.2-4.1,3.2-0.6,4.4C29.1,23.6,39.2,22.5,44.7,13.2"/>
<path class="st2" d="M25.2,24c0.2,5.7-2.7,13.9-12.9,21.8c-2.3,1.8-0.1,6.2,2.5,3.6C21.5,42.8,27.5,34.6,25.2,24"/>
<path class="st2" d="M28.5,25.3c-0.9,0.8-1.4,1.9-1.3,2.9c0,1,0.5,1.8,1.3,2.4c1.6,1.2,4.2,1,5.9-0.5c0.8-0.8,1.3-1.8,1.3-2.8
	c0-0.1,0-0.1,0-0.2c0-1-0.5-1.8-1.3-2.4C32.8,23.5,30.2,23.8,28.5,25.3 M29.5,29.2c-0.4-0.3-0.6-0.7-0.6-1.1c0-0.5,0.2-1.1,0.7-1.6
	c1-0.9,2.7-1.1,3.7-0.4c0.4,0.3,0.6,0.7,0.6,1.1c0,0.5-0.2,1.1-0.7,1.6C32.2,29.8,30.5,30,29.5,29.2"/>
<path class="st3" d="M46.2,34.1c0-3.5,2.6-6.7,5.8-6.7c1.8,0,3.1,0.9,3.8,2.4l-1.4,1.1c-0.6-1-1.3-1.7-2.6-1.7
	c-2.1,0-3.9,2.3-3.9,4.9c0,1.8,1.1,3,2.6,3c1.1,0,1.8-0.5,2.6-1.3l1.1,1.3c-0.9,1-2,1.7-3.7,1.7C48.1,38.8,46.2,37,46.2,34.1"/>
<path class="st3" d="M55.7,35c0-2.5,1.9-4.9,4.3-4.9c2.1,0,3.4,1.6,3.4,3.8c0,2.5-1.9,4.9-4.3,4.9C57.1,38.8,55.7,37.2,55.7,35
	 M61.7,34c0-1.4-0.8-2.2-1.9-2.2c-1.4,0-2.5,1.7-2.5,3.2c0,1.4,0.8,2.2,1.9,2.2C60.7,37.1,61.7,35.5,61.7,34"/>
<path class="st3" d="M66,30.3h1.7l-0.2,1.1c0.6-0.7,1.3-1.2,2.2-1.2c1.4,0,2.2,1,2.2,2.5c0,0.4-0.1,1-0.2,1.5l-1,4.5H69l1.1-4.6
	c0.1-0.3,0.1-0.6,0.1-0.8c0-0.8-0.5-1.3-1.3-1.3c-0.9,0-1.7,0.9-2,2.1l-1.1,4.7h-1.7L66,30.3z"/>
<path class="st3" d="M72.3,37.3l1-1.2c0.8,0.9,1.6,1.2,2.3,1.2c0.7,0,1.2-0.4,1.2-1c0-0.4-0.3-0.7-1.1-1c-1.2-0.6-2.1-1.1-2.1-2.4
	c0-1.6,1.1-2.8,2.9-2.8c1.1,0,2.2,0.6,2.8,1.2l-0.9,1.2c-0.7-0.6-1.3-0.9-2-0.9s-1.1,0.4-1.1,0.9c0,0.4,0.3,0.7,1.2,1.1
	c1.1,0.5,2,1.1,2,2.3c0,1.7-1.3,2.8-2.9,2.8C74.4,38.8,73.2,38.3,72.3,37.3"/>
<path class="st3" d="M83.5,37.2c0.7,0,1.2-0.3,1.9-0.8l0.8,1.2c-0.7,0.6-1.6,1.2-2.8,1.2c-2,0-3.3-1.4-3.3-3.6c0-2.5,1.8-5,4.3-5
	c1.9,0,2.9,1.4,2.9,3.2c0,0.6-0.1,1.2-0.3,1.8h-5.3C81.6,36.4,82.3,37.2,83.5,37.2 M85.6,33.8c0-0.1,0.1-0.3,0.1-0.6
	c0-0.9-0.4-1.6-1.4-1.6c-1.1,0-2,0.9-2.4,2.2C81.9,33.8,85.6,33.8,85.6,33.8z"/>
<path class="st3" d="M89.8,30.3h1.7l-2,8.3h-1.7L89.8,30.3z M90.5,27.2h1.8L91.9,29h-1.8L90.5,27.2z"/>
<polygon class="st3" points="94.5,27.1 96.2,27.1 93.5,38.6 91.8,38.6 "/>
<path class="st3" d="M99.5,37.3l1-1.2c0.8,0.9,1.6,1.2,2.3,1.2c0.7,0,1.2-0.4,1.2-1c0-0.4-0.3-0.7-1.1-1c-1.2-0.6-2.1-1.1-2.1-2.4
	c0-1.6,1.1-2.8,2.9-2.8c1.1,0,2.2,0.6,2.8,1.2l-0.9,1.2c-0.7-0.6-1.3-0.9-2-0.9s-1.1,0.4-1.1,0.9c0,0.4,0.3,0.7,1.2,1.1
	c1.1,0.5,2,1.1,2,2.3c0,1.7-1.3,2.8-2.9,2.8C101.6,38.8,100.4,38.3,99.5,37.3"/>
<path class="st3" d="M107.2,35.1c0-2.7,2-5,4.3-5c1.6,0,2.5,0.9,3,1.9l-1.3,1c-0.4-0.7-0.9-1.2-1.8-1.2c-1.3,0-2.5,1.5-2.5,3.3
	c0,1.3,0.8,2.1,1.7,2.1c0.7,0,1.3-0.3,1.9-0.9l0.9,1.2c-0.8,0.8-1.6,1.3-2.8,1.3C108.7,38.8,107.2,37.3,107.2,35.1"/>
<path class="st3" d="M114.8,35c0-2.5,1.9-4.9,4.3-4.9c2.1,0,3.4,1.6,3.4,3.8c0,2.5-1.9,4.9-4.3,4.9C116.2,38.8,114.8,37.2,114.8,35
	 M120.8,34c0-1.4-0.8-2.2-1.9-2.2c-1.4,0-2.5,1.7-2.5,3.2c0,1.4,0.8,2.2,1.9,2.2C119.7,37.1,120.8,35.5,120.8,34"/>
<polygon class="st3" points="126,27.1 127.7,27.1 124.9,38.6 123.3,38.6 "/>
<path class="st3" d="M127.2,36.5c0-1.9,1.4-3,3.2-3c0.8,0,1.5,0.2,2.2,0.4v-0.2c0.1-0.3,0.1-0.4,0.1-0.7c0-0.7-0.5-1.2-1.6-1.2
	c-0.7,0-1.4,0.2-2,0.5l-0.3-1.6c0.7-0.3,1.6-0.6,2.6-0.6c1.9,0,2.9,1,2.9,2.6c0,0.4-0.1,0.8-0.2,1.2l-1.1,4.7h-1.6l0.2-1.1
	c-0.6,0.8-1.4,1.3-2.4,1.3C128.2,38.8,127.2,37.9,127.2,36.5 M132.3,35.4l0.1-0.4c-0.5-0.2-1-0.3-1.7-0.3c-1.1,0-1.8,0.6-1.8,1.5
	c0,0.7,0.4,1.1,1.2,1.1C131.1,37.4,132.1,36.4,132.3,35.4"/>
<path class="st3" d="M137.2,30.3h1.7l-2,8.3h-1.7L137.2,30.3z M137.9,27.2h1.8l-0.4,1.8h-1.8L137.9,27.2z"/>
<path class="st3" d="M141.1,30.3h1.7l-0.4,1.9c0.8-1.3,1.8-2.1,3-2l-0.5,2h-0.1c-1.5,0-2.7,1.1-3.3,3.4l-0.7,3.1h-1.7L141.1,30.3z"
	/>
<path class="st3" d="M148.8,37.2c0.7,0,1.2-0.3,1.9-0.8l0.8,1.2c-0.7,0.6-1.6,1.2-2.8,1.2c-2,0-3.3-1.4-3.3-3.6c0-2.5,1.8-5,4.3-5
	c1.9,0,2.9,1.4,2.9,3.2c0,0.6-0.1,1.2-0.3,1.8H147C146.9,36.4,147.5,37.2,148.8,37.2 M150.8,33.8c0-0.1,0.1-0.3,0.1-0.6
	c0-0.9-0.4-1.6-1.4-1.6c-1.1,0-2,0.9-2.4,2.2C147.1,33.8,150.8,33.8,150.8,33.8z"/>
<polygon class="st3" points="158.9,27.6 160.7,27.6 161.6,36 166.4,27.6 168.4,27.6 161.8,38.7 160.3,38.7 "/>
<path class="st3" d="M168.9,30.3h1.7l-2,8.3H167L168.9,30.3z M169.6,27.2h1.8L171,29h-1.8L169.6,27.2z"/>
<path class="st3" d="M170.9,36.5c0-1.9,1.4-3,3.2-3c0.8,0,1.5,0.2,2.2,0.4v-0.2c0.1-0.3,0.1-0.4,0.1-0.7c0-0.7-0.5-1.2-1.6-1.2
	c-0.7,0-1.4,0.2-2,0.5l-0.3-1.6c0.7-0.3,1.6-0.6,2.6-0.6c1.9,0,2.9,1,2.9,2.6c0,0.4-0.1,0.8-0.2,1.2l-1.1,4.7h-1.6l0.2-1.1
	c-0.6,0.8-1.4,1.3-2.4,1.3C171.9,38.8,170.9,37.9,170.9,36.5 M176,35.4l0.1-0.4c-0.5-0.2-1-0.3-1.7-0.3c-1.1,0-1.8,0.6-1.8,1.5
	c0,0.7,0.4,1.1,1.2,1.1C174.8,37.4,175.8,36.4,176,35.4"/>
<path class="st3" d="M180.8,30.3h1.7l-0.2,1.1c0.6-0.7,1.2-1.2,2.1-1.2c1.1,0,1.7,0.7,2,1.7c0.6-1,1.6-1.7,2.7-1.7
	c1.3,0,2.2,1,2.2,2.5c0,0.4-0.1,1-0.2,1.5l-1.1,4.5h-1.7l1.1-4.6c0.1-0.3,0.1-0.6,0.1-0.8c0-0.8-0.4-1.3-1.2-1.3
	c-0.9,0-1.7,0.9-1.9,2.1l-1.1,4.7h-1.7l1.1-4.6c0.1-0.3,0.1-0.6,0.1-0.8c0-0.8-0.4-1.3-1.2-1.3c-0.9,0-1.7,0.9-1.9,2.1l-1.1,4.7
	h-1.7L180.8,30.3z"/>
<path class="st3" d="M192.5,35c0-2.5,1.9-4.9,4.3-4.9c2.1,0,3.4,1.6,3.4,3.8c0,2.5-1.9,4.9-4.3,4.9C193.9,38.8,192.5,37.2,192.5,35
	 M198.6,34c0-1.4-0.8-2.2-1.9-2.2c-1.4,0-2.5,1.7-2.5,3.2c0,1.4,0.8,2.2,1.9,2.2C197.5,37.1,198.6,35.5,198.6,34"/>
<path class="st3" d="M202.8,30.3h1.7l-0.2,1.1c0.6-0.7,1.3-1.2,2.2-1.2c1.4,0,2.2,1,2.2,2.5c0,0.4-0.1,1-0.2,1.5l-1.1,4.5h-1.7
	l1.1-4.6c0.1-0.3,0.1-0.6,0.1-0.8c0-0.8-0.5-1.3-1.3-1.3c-0.9,0-1.7,0.9-2,2.1l-1.1,4.7h-1.7L202.8,30.3z"/>
<path class="st3" d="M210,35.2c0-2.9,2-5.1,4.1-5.1c1.3,0,2,0.7,2.5,1.7l1.1-4.7h1.7l-2.7,11.5H215l0.3-1.1
	c-0.7,0.8-1.4,1.3-2.3,1.3C211.2,38.8,210,37.4,210,35.2 M216.1,33.8c0-1.2-0.8-2.1-1.8-2.1c-1.4,0-2.5,1.5-2.5,3.3
	c0,1.3,0.7,2.1,1.7,2.1C214.8,37.1,216.1,35.6,216.1,33.8"/>
<path class="st3" d="M222.7,37.2c0.7,0,1.2-0.3,1.9-0.8l0.8,1.2c-0.7,0.6-1.6,1.2-2.8,1.2c-2,0-3.3-1.4-3.3-3.6c0-2.5,1.8-5,4.3-5
	c1.9,0,2.9,1.4,2.9,3.2c0,0.6-0.1,1.2-0.3,1.8h-5.3C220.8,36.4,221.4,37.2,222.7,37.2 M224.7,33.8c0-0.1,0.1-0.3,0.1-0.6
	c0-0.9-0.4-1.6-1.4-1.6c-1.1,0-2,0.9-2.4,2.2C221,33.8,224.7,33.8,224.7,33.8z"/>
</svg>
