<?xml version="1.0" encoding="UTF-8"?>
<svg xmlns="http://www.w3.org/2000/svg" xmlns:xlink="http://www.w3.org/1999/xlink" width="1000px" height="802px" viewBox="0 0 999 802" version="1.1">
<g id="surface1">
<path style=" stroke:none;fill-rule:evenodd;fill:rgb(100%,80%,16.470588%);fill-opacity:1;" d="M 92.949219 83.910156 L 91.152344 14.886719 C 121.832031 16.800781 143.296875 60.566406 140.597656 57.378906 C 174.09375 46.804688 210.179688 32.640625 247.261719 32.640625 C 247.261719 59.96875 217.355469 81.316406 217.355469 107.046875 C 228.722656 120.214844 265.007812 138.964844 265.007812 159.3125 L 169.707031 159.3125 C 164.324219 181.453125 144.1875 200.003906 138.804688 222.945312 L 137.011719 222.945312 C 123.851562 205.390625 120.261719 172.476562 120.261719 150.335938 C 98.132812 136.171875 55.066406 126.398438 27.554688 126.398438 C 27.554688 114.53125 81.089844 90.433594 92.949219 83.910156 "/>
<path style=" stroke:none;fill-rule:evenodd;fill:rgb(24.705882%,25.098039%,58.823529%);fill-opacity:1;" d="M 196.566406 254.65625 C 189.121094 272.167969 196.03125 315.941406 208.410156 329.699219 C 250.4375 371.753906 313.167969 284.070312 273.003906 243.886719 C 249.253906 220.125 209.734375 224.25 196.566406 254.65625 "/>
<path style=" stroke:none;fill-rule:nonzero;fill:rgb(24.705882%,25.098039%,58.823529%);fill-opacity:1;" d="M 464.449219 423.675781 L 464.449219 420.15625 C 467.445312 420.082031 469.480469 419.4375 470.585938 418.253906 C 471.6875 417.058594 472.246094 414.738281 472.246094 411.304688 L 472.246094 370.703125 L 467.058594 370.703125 C 463.082031 370.703125 460.230469 371.34375 458.527344 372.632812 C 456.8125 373.925781 455.253906 376.324219 453.882812 379.835938 L 450.371094 379.835938 L 451.964844 367.109375 L 501.808594 367.109375 L 503.871094 379.835938 L 500.289062 379.761719 C 498.386719 376.269531 496.5 373.886719 494.632812 372.621094 C 492.757812 371.34375 490.28125 370.703125 487.183594 370.703125 L 481.523438 370.703125 L 481.523438 411.304688 C 481.523438 414.765625 482.042969 417.058594 483.082031 418.1875 C 484.117188 419.320312 486.101562 419.972656 489.015625 420.15625 L 489.015625 423.675781 Z M 518.882812 393.328125 C 518.882812 401.875 520.519531 408.667969 523.792969 413.6875 C 527.070312 418.707031 531.449219 421.210938 536.941406 421.210938 C 542.320312 421.210938 546.511719 419.042969 549.519531 414.714844 C 552.511719 410.386719 554.019531 404.328125 554.019531 396.523438 C 554.019531 388.414062 552.3125 381.863281 548.90625 376.882812 C 545.5 371.902344 541.082031 369.410156 535.652344 369.410156 C 530.394531 369.410156 526.296875 371.515625 523.328125 375.738281 C 520.359375 379.945312 518.882812 385.804688 518.882812 393.328125 Z M 536.277344 424.804688 C 532.324219 424.804688 528.613281 424.035156 525.125 422.488281 C 521.636719 420.929688 518.574219 418.695312 515.914062 415.753906 C 513.664062 413.289062 511.933594 410.359375 510.75 406.976562 C 509.566406 403.59375 508.980469 399.890625 508.980469 395.859375 C 508.980469 391.847656 509.582031 388.105469 510.777344 384.621094 C 511.976562 381.144531 513.703125 378.09375 515.996094 375.5 C 518.683594 372.421875 521.8125 370.078125 525.390625 368.441406 C 528.984375 366.800781 532.804688 365.976562 536.863281 365.976562 C 540.417969 365.976562 543.78125 366.644531 546.9375 367.960938 C 550.089844 369.292969 552.96875 371.25 555.535156 373.820312 C 558.316406 376.601562 560.390625 379.734375 561.777344 383.195312 C 563.148438 386.667969 563.839844 390.53125 563.839844 394.765625 C 563.839844 398.453125 563.28125 401.984375 562.175781 405.339844 C 561.070312 408.691406 559.5 411.664062 557.453125 414.230469 C 554.644531 417.75 551.460938 420.386719 547.910156 422.15625 C 544.371094 423.925781 540.484375 424.804688 536.277344 424.804688 Z M 594.542969 424.804688 C 593.894531 422.835938 593.121094 420.703125 592.199219 418.429688 C 591.296875 416.152344 590.019531 413.128906 588.382812 409.359375 L 573.832031 376.933594 C 573.808594 376.855469 573.742188 376.710938 573.648438 376.46875 C 572.039062 372.929688 570.296875 370.902344 568.417969 370.382812 L 568.417969 367.109375 L 586.320312 367.109375 L 586.320312 370.382812 C 585.171875 370.824219 584.335938 371.382812 583.816406 372.050781 C 583.296875 372.699219 583.046875 373.5 583.046875 374.445312 C 583.046875 374.914062 583.125 375.429688 583.269531 376.003906 C 583.429688 376.574219 583.695312 377.320312 584.054688 378.226562 L 598.75 411.464844 C 600.078125 408.734375 601.304688 406.203125 602.421875 403.898438 C 603.539062 401.582031 604.554688 399.46875 605.457031 397.535156 L 596.300781 376.550781 C 595.410156 374.527344 594.503906 373.058594 593.546875 372.15625 C 592.601562 371.261719 591.417969 370.664062 589.976562 370.382812 L 589.976562 367.109375 L 608.585938 367.109375 L 608.585938 370.382812 C 607.519531 370.742188 606.707031 371.277344 606.148438 371.980469 C 605.589844 372.6875 605.308594 373.527344 605.308594 374.527344 C 605.308594 375.019531 605.417969 375.695312 605.65625 376.5625 C 605.894531 377.441406 606.199219 378.308594 606.585938 379.160156 L 610.261719 387.546875 C 612.121094 383.621094 613.46875 380.625 614.292969 378.535156 C 615.117188 376.457031 615.519531 375.019531 615.519531 374.207031 C 615.519531 373.273438 615.238281 372.5 614.679688 371.902344 C 614.121094 371.304688 613.203125 370.796875 611.9375 370.382812 L 611.9375 367.109375 L 626.40625 367.109375 L 626.40625 370.382812 C 623.410156 370.957031 619.65625 376.269531 615.132812 386.335938 C 613.988281 388.921875 613.082031 390.917969 612.40625 392.34375 L 620.867188 411.304688 C 622.320312 407.457031 624.261719 402.355469 626.671875 396.015625 C 631.488281 383.445312 633.882812 376.230469 633.882812 374.367188 C 633.882812 373.40625 633.496094 372.582031 632.738281 371.890625 C 631.96875 371.195312 630.863281 370.6875 629.398438 370.382812 L 629.398438 367.109375 L 645.15625 367.109375 L 645.15625 370.382812 L 644.996094 370.382812 C 641.988281 370.382812 639.019531 374.367188 636.105469 382.3125 L 635.878906 382.941406 C 633.566406 389.34375 630.53125 397.324219 626.789062 406.894531 C 623.050781 416.472656 620.921875 422.4375 620.402344 424.804688 L 617.195312 424.804688 C 615.929688 421.53125 614.828125 418.773438 613.90625 416.539062 C 612.976562 414.300781 612.246094 412.582031 611.699219 411.382812 L 607.679688 402.328125 C 604.84375 407.894531 602.660156 412.503906 601.117188 416.125 C 599.558594 419.757812 598.578125 422.648438 598.136719 424.804688 Z M 661.675781 396.28125 L 676.445312 396.28125 L 669.195312 375.03125 Z M 644.984375 423.675781 L 644.984375 420.15625 C 646.78125 419.824219 648.207031 419.078125 649.269531 417.949219 C 650.335938 416.832031 651.519531 414.433594 652.824219 410.800781 L 666.625 371.824219 C 666.648438 371.78125 666.703125 371.664062 666.785156 371.476562 C 667.167969 370.464844 667.367188 369.691406 667.367188 369.171875 C 667.367188 368.8125 667.292969 368.46875 667.15625 368.121094 C 667.007812 367.789062 666.8125 367.441406 666.546875 367.109375 L 675.007812 367.109375 L 691.074219 411.609375 C 692.113281 414.578125 693.191406 416.699219 694.304688 417.949219 C 695.425781 419.214844 696.796875 419.945312 698.40625 420.15625 L 698.40625 423.675781 L 676.6875 423.675781 L 676.6875 420.15625 C 678.894531 419.894531 680.414062 419.480469 681.222656 418.894531 C 682.046875 418.308594 682.460938 417.390625 682.460938 416.140625 C 682.460938 415.484375 682.382812 414.792969 682.234375 414.035156 C 682.101562 413.277344 681.902344 412.558594 681.636719 411.851562 L 677.820312 400.734375 L 660.15625 400.734375 L 657.386719 410.253906 C 657.175781 410.984375 657.015625 411.71875 656.894531 412.449219 C 656.777344 413.195312 656.722656 413.859375 656.722656 414.460938 C 656.722656 416.070312 657.175781 417.308594 658.066406 418.148438 C 658.957031 419 660.515625 419.667969 662.726562 420.15625 L 662.726562 423.675781 Z M 719.6875 392.726562 C 720.3125 392.835938 720.953125 392.914062 721.589844 392.953125 C 722.242188 392.996094 723.070312 393.007812 724.054688 393.007812 C 728.097656 393.007812 731.292969 391.972656 733.59375 389.90625 C 735.910156 387.84375 737.070312 385.03125 737.070312 381.503906 C 737.070312 378.199219 735.871094 375.535156 733.460938 373.5 C 731.066406 371.476562 727.898438 370.464844 723.972656 370.464844 C 722.203125 370.464844 721.042969 370.640625 720.5 371 C 719.953125 371.34375 719.6875 372.183594 719.6875 373.5 Z M 703.304688 423.675781 L 703.304688 420.15625 C 706.058594 419.824219 707.976562 419.042969 709.042969 417.800781 C 710.105469 416.5625 710.636719 414.339844 710.636719 411.117188 L 710.636719 380.132812 C 710.636719 375.976562 710.160156 373.394531 709.199219 372.394531 C 708.230469 371.394531 706.273438 370.714844 703.304688 370.382812 L 703.304688 367.109375 L 723.121094 367.109375 C 730.984375 367.109375 736.871094 368.28125 740.757812 370.640625 C 744.640625 372.992188 746.585938 376.5625 746.585938 381.34375 C 746.585938 385.097656 745.425781 388.175781 743.097656 390.597656 C 740.769531 393.007812 737.292969 394.738281 732.664062 395.777344 C 733.78125 396.695312 734.832031 397.628906 735.820312 398.589844 C 736.816406 399.558594 737.707031 400.519531 738.503906 401.476562 L 749.9375 414.964844 C 749.992188 415.019531 750.070312 415.113281 750.179688 415.246094 C 752.933594 418.519531 755.035156 420.15625 756.484375 420.15625 L 756.648438 420.15625 L 756.648438 423.675781 L 746.121094 423.675781 L 728.300781 402.261719 C 726.246094 399.8125 724.703125 398.253906 723.679688 397.601562 C 722.65625 396.9375 721.550781 396.605469 720.394531 396.605469 C 720.3125 396.605469 720.179688 396.617188 719.992188 396.644531 C 719.820312 396.667969 719.6875 396.683594 719.605469 396.683594 L 719.605469 410.878906 C 719.605469 414.40625 720.089844 416.777344 721.042969 417.964844 C 722.019531 419.132812 723.867188 419.878906 726.621094 420.15625 L 726.621094 423.675781 Z M 759.148438 423.675781 L 759.148438 420.15625 C 762.238281 419.796875 764.3125 419.066406 765.363281 417.976562 C 766.417969 416.886719 766.949219 414.660156 766.949219 411.320312 L 766.949219 379.398438 C 766.949219 376.070312 766.429688 373.875 765.390625 372.792969 C 764.351562 371.714844 762.261719 370.984375 759.148438 370.625 L 759.148438 367.109375 L 779.816406 367.109375 C 785.847656 367.109375 790.664062 367.46875 794.246094 368.1875 C 797.835938 368.890625 801.097656 370.066406 804.027344 371.675781 C 808.296875 374.019531 811.597656 377.214844 813.925781 381.289062 C 816.269531 385.363281 817.441406 389.960938 817.441406 395.085938 C 817.441406 403.660156 814.390625 410.574219 808.285156 415.820312 C 802.175781 421.050781 794.046875 423.675781 783.917969 423.675781 Z M 776.078125 410.265625 C 776.078125 414.257812 776.769531 416.898438 778.140625 418.136719 C 779.523438 419.386719 782.160156 420.011719 786.058594 420.011719 C 792.421875 420.011719 797.558594 417.777344 801.457031 413.289062 C 805.355469 408.800781 807.300781 402.835938 807.300781 395.390625 C 807.300781 387.402344 805.128906 381.25 800.804688 376.898438 C 796.480469 372.554688 790.34375 370.382812 782.382812 370.382812 C 780.855469 370.382812 779.566406 370.464844 778.5 370.625 C 777.4375 370.769531 776.78125 370.957031 776.542969 371.171875 C 776.382812 371.34375 776.277344 371.59375 776.199219 371.929688 C 776.117188 372.25 776.078125 372.726562 776.078125 373.351562 Z M 826.785156 419.933594 L 826.785156 406.589844 L 829.859375 406.976562 C 830.976562 411.636719 832.691406 415.152344 835.019531 417.535156 C 837.351562 419.921875 840.210938 421.105469 843.617188 421.105469 C 846.28125 421.105469 848.460938 420.238281 850.195312 418.496094 C 851.925781 416.75 852.789062 414.566406 852.789062 411.929688 C 852.789062 409.652344 852.125 407.601562 850.777344 405.789062 C 849.449219 403.980469 846.308594 401.453125 841.367188 398.203125 C 835.316406 394.21875 831.496094 391.101562 829.925781 388.839844 C 828.355469 386.578125 827.566406 383.914062 827.566406 380.839844 C 827.566406 376.414062 828.992188 372.859375 831.839844 370.171875 C 834.6875 367.480469 838.441406 366.136719 843.125 366.136719 C 845.386719 366.136719 847.769531 366.511719 850.273438 367.253906 C 852.789062 367.984375 855.488281 369.117188 858.40625 370.625 L 858.40625 382.207031 L 855.050781 382.207031 C 854.449219 378.109375 853.148438 374.992188 851.136719 372.875 C 849.117188 370.757812 846.453125 369.691406 843.125 369.691406 C 840.464844 369.691406 838.308594 370.425781 836.628906 371.875 C 834.957031 373.328125 834.117188 375.203125 834.117188 377.492188 C 834.117188 378.785156 834.339844 380 834.796875 381.101562 C 835.246094 382.207031 835.9375 383.183594 836.84375 384.046875 C 838.253906 385.390625 841.167969 387.519531 845.617188 390.4375 C 847.984375 391.996094 849.820312 393.222656 851.109375 394.113281 C 854.597656 396.496094 857.074219 398.800781 858.523438 400.996094 C 859.976562 403.195312 860.707031 405.671875 860.707031 408.429688 C 860.707031 413.394531 859.070312 417.390625 855.808594 420.425781 C 852.546875 423.449219 848.210938 424.96875 842.808594 424.96875 C 839.917969 424.96875 837.148438 424.554688 834.5 423.714844 C 831.851562 422.886719 829.285156 421.625 826.785156 419.933594 Z M 327.101562 519.441406 L 327.101562 515.925781 C 330.21875 515.566406 332.308594 514.835938 333.359375 513.742188 C 334.410156 512.652344 334.941406 510.429688 334.941406 507.070312 L 334.941406 475.167969 C 334.941406 471.839844 334.410156 469.640625 333.359375 468.5625 C 332.308594 467.484375 330.21875 466.75 327.101562 466.390625 L 327.101562 462.878906 L 351.871094 462.878906 L 351.871094 466.390625 C 348.730469 466.75 346.628906 467.484375 345.589844 468.5625 C 344.550781 469.640625 344.035156 471.839844 344.035156 475.167969 L 344.035156 507.070312 C 344.035156 510.429688 344.566406 512.652344 345.617188 513.742188 C 346.667969 514.835938 348.757812 515.566406 351.871094 515.925781 L 351.871094 519.441406 Z M 358.417969 519.441406 L 358.417969 515.925781 L 359.308594 515.925781 C 361.972656 515.925781 363.859375 515.117188 365.007812 513.503906 C 366.148438 511.894531 366.722656 509.21875 366.722656 505.472656 L 366.722656 472.945312 C 365.417969 470.878906 363.992188 469.28125 362.4375 468.125 C 360.878906 466.964844 359.246094 466.3125 357.527344 466.152344 L 357.527344 462.878906 L 370.703125 462.878906 L 403.988281 505.472656 L 403.988281 475.511719 C 403.988281 471.878906 403.429688 469.453125 402.308594 468.257812 C 401.195312 467.058594 399.007812 466.367188 395.765625 466.152344 L 395.765625 462.878906 L 416.152344 462.878906 L 416.152344 466.152344 C 413.011719 466.726562 410.878906 467.632812 409.765625 468.871094 C 408.644531 470.09375 408.085938 472.476562 408.085938 475.980469 L 408.085938 510.347656 C 408.085938 512.359375 408.140625 514.183594 408.246094 515.847656 C 408.355469 517.511719 408.5 519.097656 408.714844 520.574219 L 404.265625 520.574219 C 403.324219 519.121094 402.257812 517.566406 401.046875 515.914062 C 399.835938 514.261719 398 511.894531 395.523438 508.832031 L 370.703125 477.5 L 370.703125 505.472656 C 370.703125 509.351562 371.222656 512.066406 372.257812 513.652344 C 373.296875 515.222656 375.082031 516.007812 377.597656 516.007812 C 377.945312 516.007812 378.207031 515.992188 378.394531 515.980469 C 378.59375 515.96875 378.769531 515.953125 378.925781 515.925781 L 378.925781 519.441406 Z M 421.824219 519.441406 L 421.824219 515.925781 C 424.910156 515.566406 426.984375 514.835938 428.035156 513.742188 C 429.089844 512.652344 429.621094 510.429688 429.621094 507.085938 L 429.621094 475.167969 C 429.621094 471.839844 429.101562 469.640625 428.0625 468.5625 C 427.027344 467.484375 424.9375 466.75 421.824219 466.390625 L 421.824219 462.878906 L 442.492188 462.878906 C 448.519531 462.878906 453.335938 463.238281 456.917969 463.957031 C 460.511719 464.660156 463.773438 465.832031 466.699219 467.445312 C 470.972656 469.789062 474.273438 472.984375 476.601562 477.058594 C 478.941406 481.132812 480.113281 485.726562 480.113281 490.855469 C 480.113281 499.429688 477.066406 506.339844 470.960938 511.585938 C 464.851562 516.820312 456.71875 519.441406 446.589844 519.441406 Z M 438.75 506.03125 C 438.75 510.027344 439.441406 512.664062 440.8125 513.902344 C 442.195312 515.152344 444.832031 515.78125 448.734375 515.78125 C 455.09375 515.78125 460.230469 513.542969 464.132812 509.054688 C 468.027344 504.570312 469.972656 498.605469 469.972656 491.160156 C 469.972656 483.171875 467.804688 477.019531 463.476562 472.664062 C 459.152344 468.324219 453.015625 466.152344 445.058594 466.152344 C 443.53125 466.152344 442.238281 466.230469 441.171875 466.390625 C 440.109375 466.539062 439.457031 466.726562 439.214844 466.9375 C 439.054688 467.109375 438.953125 467.363281 438.871094 467.695312 C 438.792969 468.015625 438.75 468.496094 438.75 469.121094 Z M 486.648438 519.441406 L 486.648438 515.925781 C 489.761719 515.566406 491.851562 514.835938 492.902344 513.742188 C 493.953125 512.652344 494.488281 510.429688 494.488281 507.070312 L 494.488281 474.6875 C 494.488281 471.347656 493.953125 469.121094 492.902344 468.027344 C 491.851562 466.9375 489.761719 466.203125 486.648438 465.84375 L 486.648438 462.878906 L 531.523438 462.878906 L 531.910156 474.847656 L 528.554688 474.847656 C 527.652344 471.652344 526.003906 469.402344 523.632812 468.097656 C 521.25 466.804688 517.390625 466.152344 512.027344 466.152344 L 506.304688 466.152344 C 505.054688 466.152344 504.28125 466.300781 503.964844 466.605469 C 503.65625 466.898438 503.5 467.65625 503.5 468.882812 L 503.5 487.644531 L 509.886719 487.644531 C 514.742188 487.644531 517.992188 487.097656 519.601562 486.007812 C 521.210938 484.914062 522.039062 482.945312 522.089844 480.082031 L 525.523438 480.039062 L 525.523438 499.070312 L 522.089844 499.027344 C 522.011719 496.089844 521.160156 494.078125 519.519531 492.96875 C 517.882812 491.863281 514.679688 491.304688 509.886719 491.304688 L 503.5 491.304688 L 503.5 507.777344 C 503.5 510.894531 504.226562 513.050781 505.691406 514.238281 C 507.171875 515.410156 509.886719 516.007812 513.863281 516.007812 C 517.765625 516.007812 521.078125 515.089844 523.820312 513.277344 C 526.5625 511.453125 528.890625 508.605469 530.78125 504.730469 L 534.332031 505.621094 L 530.898438 519.441406 Z M 538.898438 519.441406 L 538.898438 515.925781 C 541.988281 515.566406 544.0625 514.835938 545.117188 513.742188 C 546.167969 512.652344 546.699219 510.429688 546.699219 507.070312 L 546.699219 475.246094 C 546.699219 471.535156 546.152344 469.082031 545.074219 467.910156 C 543.996094 466.738281 542 466.152344 539.058594 466.152344 L 539.058594 462.878906 L 560.550781 462.878906 C 568.472656 462.878906 574.328125 464.085938 578.105469 466.511719 C 581.886719 468.921875 583.777344 472.664062 583.777344 477.738281 C 583.777344 482.34375 581.96875 486.140625 578.335938 489.136719 C 574.710938 492.132812 570.027344 493.625 564.292969 493.625 C 562.082031 493.625 560.648438 493.460938 559.996094 493.128906 C 559.355469 492.8125 559.023438 492.171875 559.023438 491.242188 C 559.023438 490.613281 559.140625 490.175781 559.394531 489.933594 C 559.648438 489.679688 560.15625 489.5625 560.9375 489.5625 C 561.082031 489.5625 561.339844 489.574219 561.65625 489.601562 C 561.976562 489.628906 562.21875 489.644531 562.375 489.644531 C 565.78125 489.644531 568.5625 488.539062 570.71875 486.324219 C 572.878906 484.117188 573.957031 481.253906 573.957031 477.738281 C 573.957031 474.210938 572.824219 471.425781 570.546875 469.414062 C 568.269531 467.40625 565.117188 466.390625 561.082031 466.390625 C 558.820312 466.390625 557.371094 466.578125 556.71875 466.9375 C 556.066406 467.296875 555.75 468.242188 555.75 469.75 L 555.75 507.070312 C 555.75 510.402344 556.28125 512.625 557.347656 513.730469 C 558.410156 514.835938 560.527344 515.566406 563.664062 515.925781 L 563.664062 519.441406 Z M 589.113281 519.441406 L 589.113281 515.925781 C 592.226562 515.566406 594.316406 514.835938 595.367188 513.742188 C 596.417969 512.652344 596.953125 510.429688 596.953125 507.070312 L 596.953125 474.6875 C 596.953125 471.347656 596.417969 469.121094 595.367188 468.027344 C 594.316406 466.9375 592.226562 466.203125 589.113281 465.84375 L 589.113281 462.878906 L 633.988281 462.878906 L 634.375 474.847656 L 631.019531 474.847656 C 630.117188 471.652344 628.46875 469.402344 626.097656 468.097656 C 623.714844 466.804688 619.855469 466.152344 614.492188 466.152344 L 608.773438 466.152344 C 607.519531 466.152344 606.746094 466.300781 606.429688 466.605469 C 606.121094 466.898438 605.960938 467.65625 605.960938 468.882812 L 605.960938 487.644531 L 612.351562 487.644531 C 617.207031 487.644531 620.457031 487.097656 622.066406 486.007812 C 623.675781 484.914062 624.5 482.945312 624.554688 480.082031 L 627.988281 480.039062 L 627.988281 499.070312 L 624.554688 499.027344 C 624.476562 496.089844 623.625 494.078125 621.984375 492.96875 C 620.347656 491.863281 617.144531 491.304688 612.351562 491.304688 L 605.960938 491.304688 L 605.960938 507.777344 C 605.960938 510.894531 606.691406 513.050781 608.15625 514.238281 C 609.636719 515.410156 612.351562 516.007812 616.328125 516.007812 C 620.230469 516.007812 623.542969 515.089844 626.285156 513.277344 C 629.027344 511.453125 631.355469 508.605469 633.246094 504.730469 L 636.796875 505.621094 L 633.363281 519.441406 Z M 641.988281 519.441406 L 641.988281 515.925781 L 642.878906 515.925781 C 645.542969 515.925781 647.429688 515.117188 648.578125 513.503906 C 649.71875 511.894531 650.292969 509.21875 650.292969 505.472656 L 650.292969 472.945312 C 648.988281 470.878906 647.566406 469.28125 646.007812 468.125 C 644.449219 466.964844 642.816406 466.3125 641.097656 466.152344 L 641.097656 462.878906 L 654.273438 462.878906 L 687.558594 505.472656 L 687.558594 475.511719 C 687.558594 471.878906 687 469.453125 685.878906 468.257812 C 684.765625 467.058594 682.582031 466.367188 679.335938 466.152344 L 679.335938 462.878906 L 699.722656 462.878906 L 699.722656 466.152344 C 696.582031 466.726562 694.453125 467.632812 693.335938 468.871094 C 692.214844 470.09375 691.65625 472.476562 691.65625 475.980469 L 691.65625 510.347656 C 691.65625 512.359375 691.710938 514.183594 691.816406 515.847656 C 691.925781 517.511719 692.070312 519.097656 692.285156 520.574219 L 687.835938 520.574219 C 686.894531 519.121094 685.828125 517.566406 684.617188 515.914062 C 683.40625 514.261719 681.570312 511.894531 679.09375 508.832031 L 654.273438 477.5 L 654.273438 505.472656 C 654.273438 509.351562 654.792969 512.066406 655.828125 513.652344 C 656.867188 515.222656 658.652344 516.007812 661.167969 516.007812 C 661.515625 516.007812 661.777344 515.992188 661.964844 515.980469 C 662.164062 515.96875 662.339844 515.953125 662.496094 515.925781 L 662.496094 519.441406 Z M 705.394531 519.441406 L 705.394531 515.925781 C 708.480469 515.566406 710.554688 514.835938 711.605469 513.742188 C 712.660156 512.652344 713.191406 510.429688 713.191406 507.085938 L 713.191406 475.167969 C 713.191406 471.839844 712.671875 469.640625 711.632812 468.5625 C 710.597656 467.484375 708.507812 466.75 705.394531 466.390625 L 705.394531 462.878906 L 726.0625 462.878906 C 732.089844 462.878906 736.910156 463.238281 740.488281 463.957031 C 744.082031 464.660156 747.34375 465.832031 750.269531 467.445312 C 754.542969 469.789062 757.84375 472.984375 760.171875 477.058594 C 762.511719 481.132812 763.6875 485.726562 763.6875 490.855469 C 763.6875 499.429688 760.636719 506.339844 754.53125 511.585938 C 748.421875 516.820312 740.289062 519.441406 730.160156 519.441406 Z M 722.320312 506.03125 C 722.320312 510.027344 723.011719 512.664062 724.382812 513.902344 C 725.765625 515.152344 728.402344 515.78125 732.304688 515.78125 C 738.667969 515.78125 743.800781 513.542969 747.703125 509.054688 C 751.601562 504.570312 753.542969 498.605469 753.542969 491.160156 C 753.542969 483.171875 751.375 477.019531 747.050781 472.664062 C 742.722656 468.324219 736.585938 466.152344 728.628906 466.152344 C 727.101562 466.152344 725.808594 466.230469 724.742188 466.390625 C 723.679688 466.539062 723.027344 466.726562 722.785156 466.9375 C 722.625 467.109375 722.523438 467.363281 722.441406 467.695312 C 722.363281 468.015625 722.320312 468.496094 722.320312 469.121094 Z M 770.21875 519.441406 L 770.21875 515.925781 C 773.332031 515.566406 775.421875 514.835938 776.472656 513.742188 C 777.523438 512.652344 778.058594 510.429688 778.058594 507.070312 L 778.058594 474.6875 C 778.058594 471.347656 777.523438 469.121094 776.472656 468.027344 C 775.421875 466.9375 773.332031 466.203125 770.21875 465.84375 L 770.21875 462.878906 L 815.097656 462.878906 L 815.480469 474.847656 L 812.128906 474.847656 C 811.226562 471.652344 809.574219 469.402344 807.207031 468.097656 C 804.820312 466.804688 800.960938 466.152344 795.597656 466.152344 L 789.878906 466.152344 C 788.625 466.152344 787.851562 466.300781 787.535156 466.605469 C 787.226562 466.898438 787.070312 467.65625 787.070312 468.882812 L 787.070312 487.644531 L 793.457031 487.644531 C 798.3125 487.644531 801.5625 487.097656 803.171875 486.007812 C 804.78125 484.914062 805.609375 482.945312 805.660156 480.082031 L 809.09375 480.039062 L 809.09375 499.070312 L 805.660156 499.027344 C 805.582031 496.089844 804.730469 494.078125 803.089844 492.96875 C 801.453125 491.863281 798.25 491.304688 793.457031 491.304688 L 787.070312 491.304688 L 787.070312 507.777344 C 787.070312 510.894531 787.800781 513.050781 789.261719 514.238281 C 790.742188 515.410156 793.457031 516.007812 797.4375 516.007812 C 801.335938 516.007812 804.648438 515.089844 807.390625 513.277344 C 810.132812 511.453125 812.464844 508.605469 814.351562 504.730469 L 817.902344 505.621094 L 814.46875 519.441406 Z M 823.097656 519.441406 L 823.097656 515.925781 L 823.988281 515.925781 C 826.648438 515.925781 828.539062 515.117188 829.683594 513.503906 C 830.828125 511.894531 831.398438 509.21875 831.398438 505.472656 L 831.398438 472.945312 C 830.097656 470.878906 828.671875 469.28125 827.117188 468.125 C 825.558594 466.964844 823.921875 466.3125 822.203125 466.152344 L 822.203125 462.878906 L 835.378906 462.878906 L 868.664062 505.472656 L 868.664062 475.511719 C 868.664062 471.878906 868.105469 469.453125 866.988281 468.257812 C 865.871094 467.058594 863.6875 466.367188 860.441406 466.152344 L 860.441406 462.878906 L 880.828125 462.878906 L 880.828125 466.152344 C 877.6875 466.726562 875.558594 467.632812 874.441406 468.871094 C 873.320312 470.09375 872.765625 472.476562 872.765625 475.980469 L 872.765625 510.347656 C 872.765625 512.359375 872.816406 514.183594 872.925781 515.847656 C 873.03125 517.511719 873.175781 519.097656 873.390625 520.574219 L 868.945312 520.574219 C 868 519.121094 866.933594 517.566406 865.722656 515.914062 C 864.511719 514.261719 862.675781 511.894531 860.199219 508.832031 L 835.378906 477.5 L 835.378906 505.472656 C 835.378906 509.351562 835.898438 512.066406 836.9375 513.652344 C 837.976562 515.222656 839.757812 516.007812 842.273438 516.007812 C 842.621094 516.007812 842.886719 515.992188 843.070312 515.980469 C 843.269531 515.96875 843.445312 515.953125 843.605469 515.925781 L 843.605469 519.441406 Z M 931.054688 503.613281 L 934.570312 503.613281 L 933.121094 515.699219 C 929.566406 517.367188 926.214844 518.605469 923.085938 519.429688 C 919.957031 520.242188 916.9375 520.65625 914.023438 520.65625 C 909.9375 520.65625 906.234375 519.949219 902.90625 518.550781 C 899.582031 517.136719 896.5625 514.996094 893.816406 512.105469 C 891.277344 509.378906 889.386719 506.367188 888.175781 503.066406 C 886.949219 499.761719 886.339844 495.992188 886.339844 491.785156 C 886.339844 487.699219 886.871094 484.035156 887.921875 480.785156 C 888.976562 477.523438 890.597656 474.597656 892.808594 471.957031 C 895.507812 468.683594 898.785156 466.152344 902.628906 464.355469 C 906.488281 462.558594 910.574219 461.667969 914.914062 461.667969 C 917.523438 461.667969 920.25 462.039062 923.097656 462.796875 C 925.957031 463.554688 929.035156 464.703125 932.308594 466.230469 L 933.824219 477.898438 L 930.390625 478.203125 C 929.195312 474.050781 927.117188 470.828125 924.164062 468.535156 C 921.195312 466.246094 917.601562 465.101562 913.394531 465.101562 C 907.992188 465.101562 903.785156 467.207031 900.804688 471.425781 C 897.808594 475.632812 896.320312 481.574219 896.320312 489.257812 C 896.320312 497.777344 897.957031 504.542969 901.234375 509.523438 C 904.503906 514.503906 908.910156 516.992188 914.445312 516.992188 C 918.402344 516.992188 921.738281 515.886719 924.46875 513.691406 C 927.195312 511.496094 929.394531 508.136719 931.054688 503.613281 Z M 939.90625 519.441406 L 939.90625 515.925781 C 943.023438 515.566406 945.113281 514.835938 946.164062 513.742188 C 947.214844 512.652344 947.75 510.429688 947.75 507.070312 L 947.75 474.6875 C 947.75 471.347656 947.214844 469.121094 946.164062 468.027344 C 945.113281 466.9375 943.023438 466.203125 939.90625 465.84375 L 939.90625 462.878906 L 984.785156 462.878906 L 985.171875 474.847656 L 981.816406 474.847656 C 980.914062 471.652344 979.261719 469.402344 976.894531 468.097656 C 974.511719 466.804688 970.652344 466.152344 965.285156 466.152344 L 959.566406 466.152344 C 958.3125 466.152344 957.542969 466.300781 957.222656 466.605469 C 956.914062 466.898438 956.757812 467.65625 956.757812 468.882812 L 956.757812 487.644531 L 963.148438 487.644531 C 968.003906 487.644531 971.25 487.097656 972.859375 486.007812 C 974.472656 484.914062 975.296875 482.945312 975.351562 480.082031 L 978.78125 480.039062 L 978.78125 499.070312 L 975.351562 499.027344 C 975.269531 496.089844 974.417969 494.078125 972.78125 492.96875 C 971.144531 491.863281 967.9375 491.304688 963.148438 491.304688 L 956.757812 491.304688 L 956.757812 507.777344 C 956.757812 510.894531 957.488281 513.050781 958.953125 514.238281 C 960.429688 515.410156 963.148438 516.007812 967.125 516.007812 C 971.023438 516.007812 974.339844 515.089844 977.078125 513.277344 C 979.820312 511.453125 982.152344 508.605469 984.039062 504.730469 L 987.59375 505.621094 L 984.160156 519.441406 Z M 939.90625 519.441406 "/>
<path style=" stroke:none;fill-rule:evenodd;fill:rgb(24.705882%,25.098039%,58.823529%);fill-opacity:1;" d="M 12.898438 268.503906 L 41.113281 252.878906 C 93.539062 314.71875 169.777344 371.324219 265.476562 353.464844 C 313.125 324.621094 336.621094 249.277344 331.703125 173.695312 L 360.101562 159.84375 C 396.59375 267.246094 318.945312 406.765625 291.324219 423.554688 C 281.136719 446.910156 274.734375 470.738281 270.464844 494.835938 C 277.277344 523.960938 367.949219 641.851562 371.40625 795.488281 L 292.8125 794.167969 C 289.464844 715.046875 268.207031 645.273438 225.1875 581.25 C 176.492188 659.121094 88.144531 695.929688 95.964844 794.863281 L 15.28125 795.28125 C -14.003906 747.949219 125.328125 583.714844 164.742188 514.359375 C 178.007812 483.613281 186.941406 452 188.152344 418.84375 C 121.597656 384.160156 59.214844 340.523438 12.898438 268.503906 "/>
<path style=" stroke:none;fill-rule:evenodd;fill:rgb(24.705882%,25.098039%,58.823529%);fill-opacity:1;" d="M 355.953125 94.867188 C 359.441406 94.867188 362.179688 94.046875 364.160156 92.382812 C 366.136719 90.738281 367.128906 88.488281 367.128906 85.652344 L 367.128906 85.449219 C 367.128906 82.410156 366.136719 80.09375 364.160156 78.515625 C 362.179688 76.921875 359.410156 76.132812 355.851562 76.132812 L 346.691406 76.132812 L 346.691406 94.867188 Z M 327.160156 59.8125 L 357.363281 59.8125 C 361.792969 59.8125 365.820312 60.367188 369.445312 61.476562 C 373.066406 62.585938 376.15625 64.195312 378.707031 66.3125 C 381.257812 68.425781 383.21875 71.027344 384.59375 74.117188 C 385.972656 77.207031 386.660156 80.699219 386.660156 84.59375 L 386.660156 84.796875 C 386.660156 88.957031 385.90625 92.617188 384.394531 95.773438 C 382.882812 98.929688 380.785156 101.582031 378.101562 103.734375 C 375.417969 105.882812 372.210938 107.492188 368.488281 108.566406 C 364.761719 109.640625 360.71875 110.179688 356.355469 110.179688 L 346.691406 110.179688 L 346.691406 130.324219 L 327.160156 130.324219 Z M 436.394531 102.625 L 428.539062 82.578125 L 420.585938 102.625 Z M 419.277344 59.308594 L 438.105469 59.308594 L 468.105469 130.324219 L 447.164062 130.324219 L 442.03125 117.734375 L 414.847656 117.734375 L 409.816406 130.324219 L 389.277344 130.324219 Z M 507.371094 93.660156 C 510.726562 93.660156 513.308594 92.902344 515.121094 91.394531 C 516.933594 89.882812 517.839844 87.851562 517.839844 85.300781 L 517.839844 85.097656 C 517.839844 82.277344 516.902344 80.179688 515.019531 78.800781 C 513.140625 77.425781 510.558594 76.738281 507.269531 76.738281 L 494.484375 76.738281 L 494.484375 93.660156 Z M 474.953125 59.8125 L 508.277344 59.8125 C 513.710938 59.8125 518.308594 60.484375 522.070312 61.828125 C 525.828125 63.171875 528.878906 65.050781 531.230469 67.46875 C 535.390625 71.5 537.472656 76.972656 537.472656 83.886719 L 537.472656 84.089844 C 537.472656 89.53125 536.164062 94.027344 533.546875 97.589844 C 530.929688 101.148438 527.40625 103.867188 522.972656 105.746094 L 539.789062 130.324219 L 517.234375 130.324219 L 503.039062 108.96875 L 494.484375 108.96875 L 494.484375 130.324219 L 474.953125 130.324219 Z M 547.339844 59.8125 L 566.871094 59.8125 L 566.871094 88.421875 L 591.132812 59.8125 L 614.289062 59.8125 L 587.609375 90.132812 L 615.195312 130.324219 L 591.738281 130.324219 L 574.019531 104.136719 L 566.871094 112.09375 L 566.871094 130.324219 L 547.339844 130.324219 Z M 620.832031 59.8125 L 640.363281 59.8125 L 640.363281 86.207031 L 665.429688 86.207031 L 665.429688 59.8125 L 684.964844 59.8125 L 684.964844 130.324219 L 665.429688 130.324219 L 665.429688 103.53125 L 640.363281 103.53125 L 640.363281 130.324219 L 620.832031 130.324219 Z M 733.035156 114.109375 C 735.71875 114.109375 738.1875 113.605469 740.402344 112.597656 C 742.632812 111.589844 744.511719 110.230469 746.054688 108.515625 C 747.601562 106.804688 748.824219 104.808594 749.699219 102.523438 C 750.570312 100.242188 751.007812 97.824219 751.007812 95.269531 L 751.007812 95.070312 C 751.007812 92.515625 750.570312 90.101562 749.699219 87.816406 C 748.824219 85.535156 747.566406 83.519531 745.957031 81.773438 C 744.34375 80.027344 742.433594 78.632812 740.199219 77.59375 C 737.984375 76.550781 735.519531 76.03125 732.835938 76.03125 C 730.148438 76.03125 727.699219 76.535156 725.519531 77.542969 C 723.320312 78.550781 721.441406 79.910156 719.863281 81.621094 C 718.285156 83.335938 717.0625 85.332031 716.222656 87.617188 C 715.382812 89.898438 714.964844 92.316406 714.964844 94.867188 L 714.964844 95.070312 C 714.964844 97.621094 715.398438 100.039062 716.273438 102.324219 C 717.144531 104.605469 718.386719 106.621094 719.964844 108.367188 C 721.542969 110.113281 723.4375 111.503906 725.667969 112.546875 C 727.882812 113.585938 730.351562 114.109375 733.035156 114.109375 Z M 732.882812 131.734375 C 727.449219 131.734375 722.414062 130.777344 717.78125 128.863281 C 713.152344 126.949219 709.160156 124.347656 705.804688 121.058594 C 702.445312 117.765625 699.8125 113.90625 697.898438 109.472656 C 695.988281 105.042969 695.03125 100.308594 695.03125 95.269531 L 695.03125 95.070312 C 695.03125 90.03125 695.988281 85.28125 697.898438 80.816406 C 699.8125 76.351562 702.480469 72.457031 705.902344 69.132812 C 709.328125 65.808594 713.351562 63.1875 717.984375 61.273438 C 722.617188 59.359375 727.648438 58.402344 733.085938 58.402344 C 738.523438 58.402344 743.554688 59.359375 748.1875 61.273438 C 752.820312 63.1875 756.8125 65.789062 760.167969 69.082031 C 763.523438 72.371094 766.15625 76.234375 768.070312 80.664062 C 769.984375 85.097656 770.941406 89.832031 770.941406 94.867188 L 770.941406 95.070312 C 770.941406 100.105469 769.984375 104.855469 768.070312 109.324219 C 766.15625 113.789062 763.488281 117.683594 760.066406 121.007812 C 756.644531 124.332031 752.617188 126.949219 747.984375 128.863281 C 743.355469 130.777344 738.320312 131.734375 732.882812 131.734375 Z M 781.109375 59.8125 L 800.640625 59.8125 L 800.640625 113.203125 L 834.769531 113.203125 L 834.769531 130.324219 L 781.109375 130.324219 Z M 843.125 59.8125 L 863.761719 59.8125 L 880.574219 87.113281 L 897.390625 59.8125 L 918.027344 59.8125 L 918.027344 130.324219 L 898.597656 130.324219 L 898.597656 89.832031 L 880.625 117.429688 L 880.222656 117.429688 L 862.355469 90.03125 L 862.355469 130.324219 L 843.125 130.324219 Z M 930.511719 59.8125 L 987.089844 59.8125 L 987.089844 76.433594 L 949.742188 76.433594 L 949.742188 87.113281 L 983.566406 87.113281 L 983.566406 102.523438 L 949.742188 102.523438 L 949.742188 113.703125 L 987.59375 113.703125 L 987.59375 130.324219 L 930.511719 130.324219 Z M 930.511719 59.8125 "/>
<path style=" stroke:none;fill-rule:evenodd;fill:rgb(24.705882%,25.098039%,58.823529%);fill-opacity:1;" d="M 436.023438 195.523438 C 432.882812 195.523438 429.902344 195.039062 427.078125 194.058594 C 424.253906 193.082031 421.757812 191.621094 419.585938 189.671875 L 424.996094 183.1875 C 428.503906 185.996094 432.296875 187.398438 436.375 187.398438 C 437.675781 187.398438 438.671875 187.191406 439.355469 186.773438 C 440.039062 186.355469 440.382812 185.761719 440.382812 184.992188 L 440.382812 184.902344 C 440.382812 184.53125 440.300781 184.207031 440.132812 183.921875 C 439.964844 183.636719 439.65625 183.363281 439.207031 183.09375 C 438.753906 182.828125 438.152344 182.570312 437.402344 182.316406 C 436.648438 182.066406 435.671875 181.808594 434.46875 181.539062 C 432.597656 181.105469 430.859375 180.628906 429.257812 180.121094 C 427.652344 179.601562 426.257812 178.933594 425.074219 178.113281 C 423.886719 177.296875 422.949219 176.277344 422.265625 175.0625 C 421.582031 173.84375 421.238281 172.332031 421.238281 170.535156 L 421.238281 170.433594 C 421.238281 168.796875 421.546875 167.292969 422.164062 165.929688 C 422.785156 164.558594 423.6875 163.371094 424.871094 162.371094 C 426.058594 161.375 427.488281 160.597656 429.15625 160.046875 C 430.828125 159.496094 432.714844 159.21875 434.820312 159.21875 C 437.828125 159.21875 440.507812 159.613281 442.863281 160.40625 C 445.21875 161.191406 447.347656 162.359375 449.253906 163.90625 L 444.390625 170.800781 C 442.789062 169.664062 441.144531 168.804688 439.457031 168.21875 C 437.769531 167.632812 436.140625 167.34375 434.570312 167.34375 C 433.398438 167.34375 432.523438 167.558594 431.9375 167.992188 C 431.355469 168.429688 431.0625 168.964844 431.0625 169.597656 L 431.0625 169.699219 C 431.0625 170.089844 431.152344 170.441406 431.335938 170.742188 C 431.519531 171.042969 431.839844 171.320312 432.289062 171.570312 C 432.742188 171.820312 433.359375 172.074219 434.144531 172.324219 C 434.929688 172.574219 435.921875 172.832031 437.125 173.101562 C 439.128906 173.535156 440.941406 174.042969 442.5625 174.621094 C 444.183594 175.207031 445.5625 175.917969 446.699219 176.753906 C 447.832031 177.589844 448.703125 178.597656 449.304688 179.777344 C 449.90625 180.964844 450.207031 182.375 450.207031 184.007812 L 450.207031 184.105469 C 450.207031 185.910156 449.863281 187.515625 449.179688 188.910156 C 448.492188 190.316406 447.53125 191.511719 446.296875 192.496094 C 445.0625 193.476562 443.574219 194.226562 441.835938 194.746094 C 440.097656 195.261719 438.160156 195.523438 436.023438 195.523438 Z M 454.917969 159.820312 L 483.082031 159.820312 L 483.082031 168.09375 L 464.488281 168.09375 L 464.488281 173.410156 L 481.328125 173.410156 L 481.328125 181.082031 L 464.488281 181.082031 L 464.488281 186.648438 L 483.332031 186.648438 L 483.332031 194.921875 L 454.917969 194.921875 Z M 505.234375 195.621094 C 502.726562 195.621094 500.371094 195.171875 498.167969 194.269531 C 495.960938 193.367188 494.050781 192.105469 492.429688 190.484375 C 490.808594 188.863281 489.523438 186.941406 488.570312 184.714844 C 487.617188 182.492188 487.140625 180.078125 487.140625 177.472656 L 487.140625 177.371094 C 487.140625 174.832031 487.609375 172.449219 488.542969 170.226562 C 489.480469 168.003906 490.765625 166.0625 492.402344 164.410156 C 494.039062 162.753906 495.988281 161.457031 498.242188 160.523438 C 500.496094 159.585938 502.960938 159.117188 505.632812 159.117188 C 507.4375 159.117188 509.074219 159.292969 510.546875 159.644531 C 512.015625 159.996094 513.359375 160.496094 514.578125 161.148438 C 515.800781 161.800781 516.902344 162.578125 517.886719 163.480469 C 518.871094 164.382812 519.75 165.371094 520.519531 166.441406 L 513.203125 172.105469 C 512.199219 170.835938 511.097656 169.832031 509.894531 169.097656 C 508.691406 168.363281 507.238281 167.992188 505.535156 167.992188 C 504.296875 167.992188 503.167969 168.238281 502.152344 168.722656 C 501.132812 169.207031 500.253906 169.867188 499.519531 170.703125 C 498.785156 171.539062 498.207031 172.523438 497.789062 173.660156 C 497.375 174.796875 497.164062 176 497.164062 177.269531 L 497.164062 177.371094 C 497.164062 178.675781 497.375 179.902344 497.789062 181.054688 C 498.207031 182.210938 498.785156 183.203125 499.519531 184.039062 C 500.253906 184.875 501.132812 185.535156 502.152344 186.019531 C 503.167969 186.503906 504.296875 186.746094 505.535156 186.746094 C 506.4375 186.746094 507.261719 186.648438 508.015625 186.445312 C 508.765625 186.246094 509.453125 185.953125 510.070312 185.570312 C 510.6875 185.183594 511.273438 184.734375 511.824219 184.214844 C 512.375 183.695312 512.917969 183.121094 513.453125 182.484375 L 520.769531 187.699219 C 519.933594 188.835938 519.023438 189.890625 518.039062 190.859375 C 517.050781 191.828125 515.933594 192.664062 514.679688 193.367188 C 513.425781 194.066406 512.023438 194.621094 510.46875 195.019531 C 508.917969 195.421875 507.171875 195.621094 505.234375 195.621094 Z M 542.644531 186.847656 C 543.980469 186.847656 545.207031 186.597656 546.3125 186.09375 C 547.421875 185.59375 548.359375 184.917969 549.125 184.066406 C 549.894531 183.210938 550.503906 182.21875 550.9375 181.082031 C 551.375 179.945312 551.589844 178.742188 551.589844 177.472656 L 551.589844 177.371094 C 551.589844 176.101562 551.375 174.898438 550.9375 173.761719 C 550.503906 172.625 549.878906 171.621094 549.074219 170.753906 C 548.273438 169.882812 547.320312 169.1875 546.210938 168.671875 C 545.109375 168.152344 543.878906 167.894531 542.542969 167.894531 C 541.207031 167.894531 539.988281 168.144531 538.902344 168.644531 C 537.808594 169.148438 536.871094 169.824219 536.085938 170.675781 C 535.300781 171.527344 534.691406 172.523438 534.273438 173.660156 C 533.859375 174.796875 533.648438 176 533.648438 177.269531 L 533.648438 177.371094 C 533.648438 178.640625 533.867188 179.84375 534.300781 180.980469 C 534.734375 182.117188 535.351562 183.121094 536.136719 183.988281 C 536.921875 184.859375 537.867188 185.550781 538.976562 186.070312 C 540.082031 186.589844 541.308594 186.847656 542.644531 186.847656 Z M 542.570312 195.621094 C 539.863281 195.621094 537.355469 195.144531 535.050781 194.195312 C 532.746094 193.242188 530.757812 191.945312 529.089844 190.308594 C 527.417969 188.667969 526.105469 186.746094 525.152344 184.542969 C 524.203125 182.335938 523.726562 179.976562 523.726562 177.472656 L 523.726562 177.371094 C 523.726562 174.863281 524.203125 172.5 525.152344 170.277344 C 526.105469 168.050781 527.433594 166.113281 529.136719 164.460938 C 530.84375 162.804688 532.847656 161.5 535.152344 160.546875 C 537.457031 159.59375 539.964844 159.117188 542.667969 159.117188 C 545.375 159.117188 547.882812 159.59375 550.1875 160.546875 C 552.492188 161.5 554.480469 162.796875 556.152344 164.433594 C 557.820312 166.070312 559.132812 167.992188 560.085938 170.199219 C 561.035156 172.40625 561.511719 174.761719 561.511719 177.269531 L 561.511719 177.371094 C 561.511719 179.878906 561.035156 182.242188 560.085938 184.464844 C 559.132812 186.6875 557.804688 188.628906 556.101562 190.28125 C 554.398438 191.9375 552.390625 193.242188 550.085938 194.195312 C 547.78125 195.144531 545.277344 195.621094 542.570312 195.621094 Z M 566.574219 159.820312 L 575.664062 159.820312 L 590.128906 178.375 L 590.128906 159.820312 L 599.703125 159.820312 L 599.703125 194.921875 L 591.164062 194.921875 L 576.148438 175.667969 L 576.148438 194.921875 L 566.574219 194.921875 Z M 619.613281 186.296875 C 622.527344 186.296875 624.875 185.527344 626.65625 183.988281 C 628.433594 182.453125 629.320312 180.261719 629.320312 177.421875 L 629.320312 177.320312 C 629.320312 174.511719 628.433594 172.332031 626.65625 170.777344 C 624.875 169.222656 622.527344 168.445312 619.613281 168.445312 L 615.636719 168.445312 L 615.636719 186.296875 Z M 605.914062 159.820312 L 619.445312 159.820312 C 622.585938 159.820312 625.386719 160.246094 627.839844 161.097656 C 630.296875 161.953125 632.367188 163.148438 634.054688 164.683594 C 635.742188 166.222656 637.03125 168.050781 637.914062 170.175781 C 638.800781 172.296875 639.242188 174.628906 639.242188 177.171875 L 639.242188 177.269531 C 639.242188 179.8125 638.792969 182.160156 637.890625 184.316406 C 636.988281 186.472656 635.683594 188.335938 633.980469 189.90625 C 632.277344 191.476562 630.179688 192.707031 627.691406 193.59375 C 625.203125 194.476562 622.386719 194.921875 619.246094 194.921875 L 605.914062 194.921875 Z M 664.902344 181.132812 L 660.992188 171.152344 L 657.035156 181.132812 Z M 656.382812 159.570312 L 665.753906 159.570312 L 680.6875 194.921875 L 670.265625 194.921875 L 667.707031 188.652344 L 654.175781 188.652344 L 651.671875 194.921875 L 641.449219 194.921875 Z M 700.234375 176.667969 C 701.902344 176.667969 703.191406 176.292969 704.09375 175.539062 C 704.996094 174.789062 705.445312 173.777344 705.445312 172.507812 L 705.445312 172.40625 C 705.445312 171.003906 704.976562 169.957031 704.042969 169.273438 C 703.105469 168.585938 701.820312 168.246094 700.183594 168.246094 L 693.820312 168.246094 L 693.820312 176.667969 Z M 684.097656 159.820312 L 700.683594 159.820312 C 703.390625 159.820312 705.679688 160.15625 707.550781 160.824219 C 709.421875 161.492188 710.941406 162.429688 712.109375 163.632812 C 714.183594 165.636719 715.21875 168.363281 715.21875 171.804688 L 715.21875 171.90625 C 715.21875 174.613281 714.566406 176.851562 713.265625 178.625 C 711.960938 180.394531 710.207031 181.75 708 182.6875 L 716.371094 194.921875 L 705.144531 194.921875 L 698.078125 184.289062 L 693.820312 184.289062 L 693.820312 194.921875 L 684.097656 194.921875 Z M 730.253906 181.78125 L 716.921875 159.820312 L 727.996094 159.820312 L 735.214844 172.605469 L 742.480469 159.820312 L 753.355469 159.820312 L 740.027344 181.632812 L 740.027344 194.921875 L 730.253906 194.921875 Z M 784.027344 195.523438 C 780.886719 195.523438 777.90625 195.039062 775.082031 194.058594 C 772.257812 193.082031 769.761719 191.621094 767.589844 189.671875 L 773.003906 183.1875 C 776.511719 185.996094 780.300781 187.398438 784.378906 187.398438 C 785.679688 187.398438 786.675781 187.191406 787.359375 186.773438 C 788.046875 186.355469 788.386719 185.761719 788.386719 184.992188 L 788.386719 184.902344 C 788.386719 184.53125 788.304688 184.207031 788.136719 183.921875 C 787.96875 183.636719 787.660156 183.363281 787.210938 183.09375 C 786.757812 182.828125 786.15625 182.570312 785.40625 182.316406 C 784.652344 182.066406 783.675781 181.808594 782.472656 181.539062 C 780.601562 181.105469 778.867188 180.628906 777.261719 180.121094 C 775.65625 179.601562 774.261719 178.933594 773.078125 178.113281 C 771.890625 177.296875 770.957031 176.277344 770.269531 175.0625 C 769.585938 173.84375 769.242188 172.332031 769.242188 170.535156 L 769.242188 170.433594 C 769.242188 168.796875 769.550781 167.292969 770.171875 165.929688 C 770.789062 164.558594 771.691406 163.371094 772.875 162.371094 C 774.0625 161.375 775.492188 160.597656 777.160156 160.046875 C 778.832031 159.496094 780.71875 159.21875 782.824219 159.21875 C 785.832031 159.21875 788.511719 159.613281 790.867188 160.40625 C 793.222656 161.191406 795.355469 162.359375 797.257812 163.90625 L 792.398438 170.800781 C 790.792969 169.664062 789.148438 168.804688 787.460938 168.21875 C 785.773438 167.632812 784.144531 167.34375 782.574219 167.34375 C 781.40625 167.34375 780.527344 167.558594 779.941406 167.992188 C 779.359375 168.429688 779.066406 168.964844 779.066406 169.597656 L 779.066406 169.699219 C 779.066406 170.089844 779.160156 170.441406 779.339844 170.742188 C 779.523438 171.042969 779.84375 171.320312 780.292969 171.570312 C 780.746094 171.820312 781.363281 172.074219 782.148438 172.324219 C 782.933594 172.574219 783.925781 172.832031 785.128906 173.101562 C 787.132812 173.535156 788.945312 174.042969 790.566406 174.621094 C 792.1875 175.207031 793.566406 175.917969 794.703125 176.753906 C 795.839844 177.589844 796.707031 178.597656 797.308594 179.777344 C 797.910156 180.964844 798.210938 182.375 798.210938 184.007812 L 798.210938 184.105469 C 798.210938 185.910156 797.867188 187.515625 797.183594 188.910156 C 796.5 190.316406 795.539062 191.511719 794.300781 192.496094 C 793.066406 193.476562 791.578125 194.226562 789.839844 194.746094 C 788.105469 195.261719 786.167969 195.523438 784.027344 195.523438 Z M 819.808594 195.621094 C 817.304688 195.621094 814.949219 195.171875 812.742188 194.269531 C 810.539062 193.367188 808.625 192.105469 807.003906 190.484375 C 805.386719 188.863281 804.097656 186.941406 803.144531 184.714844 C 802.195312 182.492188 801.71875 180.078125 801.71875 177.472656 L 801.71875 177.371094 C 801.71875 174.832031 802.1875 172.449219 803.121094 170.226562 C 804.058594 168.003906 805.34375 166.0625 806.980469 164.410156 C 808.617188 162.753906 810.5625 161.457031 812.820312 160.523438 C 815.074219 159.585938 817.539062 159.117188 820.210938 159.117188 C 822.015625 159.117188 823.652344 159.292969 825.121094 159.644531 C 826.59375 159.996094 827.9375 160.496094 829.15625 161.148438 C 830.375 161.800781 831.480469 162.578125 832.464844 163.480469 C 833.449219 164.382812 834.328125 165.371094 835.09375 166.441406 L 827.777344 172.105469 C 826.777344 170.835938 825.671875 169.832031 824.472656 169.097656 C 823.269531 168.363281 821.816406 167.992188 820.109375 167.992188 C 818.875 167.992188 817.746094 168.238281 816.726562 168.722656 C 815.707031 169.207031 814.832031 169.867188 814.097656 170.703125 C 813.363281 171.539062 812.785156 172.523438 812.367188 173.660156 C 811.949219 174.796875 811.742188 176 811.742188 177.269531 L 811.742188 177.371094 C 811.742188 178.675781 811.949219 179.902344 812.367188 181.054688 C 812.785156 182.210938 813.363281 183.203125 814.097656 184.039062 C 814.832031 184.875 815.707031 185.535156 816.726562 186.019531 C 817.746094 186.503906 818.875 186.746094 820.109375 186.746094 C 821.011719 186.746094 821.839844 186.648438 822.589844 186.445312 C 823.34375 186.246094 824.027344 185.953125 824.644531 185.570312 C 825.265625 185.183594 825.847656 184.734375 826.398438 184.214844 C 826.953125 183.695312 827.496094 183.121094 828.027344 182.484375 L 835.347656 187.699219 C 834.511719 188.835938 833.601562 189.890625 832.613281 190.859375 C 831.628906 191.828125 830.511719 192.664062 829.257812 193.367188 C 828.003906 194.066406 826.601562 194.621094 825.046875 195.019531 C 823.492188 195.421875 821.746094 195.621094 819.808594 195.621094 Z M 839.503906 159.820312 L 849.226562 159.820312 L 849.226562 172.957031 L 861.707031 172.957031 L 861.707031 159.820312 L 871.429688 159.820312 L 871.429688 194.921875 L 861.707031 194.921875 L 861.707031 181.582031 L 849.226562 181.582031 L 849.226562 194.921875 L 839.503906 194.921875 Z M 895.359375 186.847656 C 896.695312 186.847656 897.921875 186.597656 899.027344 186.09375 C 900.136719 185.59375 901.074219 184.917969 901.839844 184.066406 C 902.609375 183.210938 903.21875 182.21875 903.652344 181.082031 C 904.089844 179.945312 904.304688 178.742188 904.304688 177.472656 L 904.304688 177.371094 C 904.304688 176.101562 904.089844 174.898438 903.652344 173.761719 C 903.21875 172.625 902.59375 171.621094 901.789062 170.753906 C 900.988281 169.882812 900.035156 169.1875 898.925781 168.671875 C 897.824219 168.152344 896.597656 167.894531 895.257812 167.894531 C 893.921875 167.894531 892.703125 168.144531 891.617188 168.644531 C 890.523438 169.148438 889.585938 169.824219 888.800781 170.675781 C 888.019531 171.527344 887.40625 172.523438 886.992188 173.660156 C 886.574219 174.796875 886.363281 176 886.363281 177.269531 L 886.363281 177.371094 C 886.363281 178.640625 886.582031 179.84375 887.015625 180.980469 C 887.449219 182.117188 888.066406 183.121094 888.851562 183.988281 C 889.636719 184.859375 890.582031 185.550781 891.691406 186.070312 C 892.796875 186.589844 894.023438 186.847656 895.359375 186.847656 Z M 895.285156 195.621094 C 892.578125 195.621094 890.070312 195.144531 887.765625 194.195312 C 885.460938 193.242188 883.472656 191.945312 881.804688 190.308594 C 880.132812 188.667969 878.820312 186.746094 877.867188 184.542969 C 876.917969 182.335938 876.441406 179.976562 876.441406 177.472656 L 876.441406 177.371094 C 876.441406 174.863281 876.917969 172.5 877.867188 170.277344 C 878.820312 168.050781 880.148438 166.113281 881.851562 164.460938 C 883.558594 162.804688 885.5625 161.5 887.867188 160.546875 C 890.171875 159.59375 892.679688 159.117188 895.382812 159.117188 C 898.089844 159.117188 900.597656 159.59375 902.902344 160.546875 C 905.207031 161.5 907.195312 162.796875 908.867188 164.433594 C 910.535156 166.070312 911.847656 167.992188 912.800781 170.199219 C 913.753906 172.40625 914.226562 174.761719 914.226562 177.269531 L 914.226562 177.371094 C 914.226562 179.878906 913.753906 182.242188 912.800781 184.464844 C 911.847656 186.6875 910.519531 188.628906 908.816406 190.28125 C 907.113281 191.9375 905.105469 193.242188 902.800781 194.195312 C 900.496094 195.144531 897.992188 195.621094 895.285156 195.621094 Z M 937.003906 186.847656 C 938.34375 186.847656 939.570312 186.597656 940.671875 186.09375 C 941.785156 185.59375 942.71875 184.917969 943.488281 184.066406 C 944.253906 183.210938 944.867188 182.21875 945.300781 181.082031 C 945.734375 179.945312 945.953125 178.742188 945.953125 177.472656 L 945.953125 177.371094 C 945.953125 176.101562 945.734375 174.898438 945.300781 173.761719 C 944.867188 172.625 944.238281 171.621094 943.4375 170.753906 C 942.636719 169.882812 941.683594 169.1875 940.570312 168.671875 C 939.46875 168.152344 938.242188 167.894531 936.90625 167.894531 C 935.570312 167.894531 934.347656 168.144531 933.265625 168.644531 C 932.167969 169.148438 931.234375 169.824219 930.449219 170.675781 C 929.664062 171.527344 929.054688 172.523438 928.636719 173.660156 C 928.21875 174.796875 928.007812 176 928.007812 177.269531 L 928.007812 177.371094 C 928.007812 178.640625 928.226562 179.84375 928.660156 180.980469 C 929.09375 182.117188 929.714844 183.121094 930.5 183.988281 C 931.285156 184.859375 932.226562 185.550781 933.339844 186.070312 C 934.441406 186.589844 935.667969 186.847656 937.003906 186.847656 Z M 936.929688 195.621094 C 934.222656 195.621094 931.71875 195.144531 929.414062 194.195312 C 927.109375 193.242188 925.121094 191.945312 923.449219 190.308594 C 921.777344 188.667969 920.46875 186.746094 919.515625 184.542969 C 918.5625 182.335938 918.085938 179.976562 918.085938 177.472656 L 918.085938 177.371094 C 918.085938 174.863281 918.5625 172.5 919.515625 170.277344 C 920.46875 168.050781 921.796875 166.113281 923.5 164.460938 C 925.203125 162.804688 927.207031 161.5 929.511719 160.546875 C 931.820312 159.59375 934.324219 159.117188 937.03125 159.117188 C 939.738281 159.117188 942.242188 159.59375 944.546875 160.546875 C 946.855469 161.5 948.839844 162.796875 950.511719 164.433594 C 952.183594 166.070312 953.492188 167.992188 954.445312 170.199219 C 955.398438 172.40625 955.875 174.761719 955.875 177.269531 L 955.875 177.371094 C 955.875 179.878906 955.398438 182.242188 954.445312 184.464844 C 953.492188 186.6875 952.164062 188.628906 950.460938 190.28125 C 948.757812 191.9375 946.753906 193.242188 944.449219 194.195312 C 942.144531 195.144531 939.636719 195.621094 936.929688 195.621094 Z M 960.9375 159.820312 L 970.660156 159.820312 L 970.660156 186.398438 L 987.648438 186.398438 L 987.648438 194.921875 L 960.9375 194.921875 Z M 960.9375 159.820312 "/>
<path style="fill-rule:nonzero;fill:rgb(100%,100%,100%);fill-opacity:1;stroke-width:0.99;stroke-linecap:butt;stroke-linejoin:miter;stroke:rgb(100%,100%,100%);stroke-opacity:1;stroke-miterlimit:10;" d="M 292.999354 459.999242 L 702.365936 459.999242 L 702.365936 518.409994 L 292.999354 518.409994 Z M 292.999354 459.999242 " transform="matrix(1.754941,0,0,-1.755884,-205.766794,949.424022)"/>
<path style="fill-rule:nonzero;fill:rgb(100%,100%,100%);fill-opacity:1;stroke-width:0.99;stroke-linecap:butt;stroke-linejoin:miter;stroke:rgb(100%,100%,100%);stroke-opacity:1;stroke-miterlimit:10;" d="M 352.000191 421.0009 L 686.620211 421.0009 L 686.620211 456.640001 L 352.000191 456.640001 Z M 352.000191 421.0009 " transform="matrix(1.754941,0,0,-1.755884,-205.766794,949.424022)"/>
</g>
</svg>
