<svg clip-rule="evenodd" fill-rule="evenodd" height="680" image-rendering="optimizeQuality" shape-rendering="geometricPrecision" text-rendering="geometricPrecision" viewBox="0 0 7278 7083" width="698.667" xmlns="http://www.w3.org/2000/svg"><linearGradient id="a" gradientUnits="userSpaceOnUse" x1="3632.53" x2="3632.53" y1="5310.25" y2="3865.5"><stop offset="0" stop-color="#40457d"/><stop offset="1" stop-color="#2aa2af"/></linearGradient><path d="M3842 1606l619-178 240 374 155 444-981-411-85-53 1-145zm-387 17l-516-202-224 374-144 444 824-350 100-109-3-157z" fill="#edbb43"/><path d="M3819 1814l805 213c48 127 97 254 146 382 70 238 96 509 56 829l-113 637-731-10c-44-622-88-1244-132-1867 112-65 87-126-31-184z" fill="#373435"/><path d="M2590 3879l712-7-4 135-137 7-4 167s162-47 180-29 206 75 206 75l212-3 112-29s166 14 187 14c22 0 69-50 69-50l-18-148-126-15 3-131 731 10-147 349-303 473-457 469-148 144-231-227-392-386-299-455-184-347z" fill="url(#a)"/><path d="M2618 3966l684-94 134-1871c-73-32-79-82-6-152l-785 246-121 141-81 644 27 623z" fill="#373435"/><path d="M2696 3956l1993-25c8-18 16-37 24-56-307-95-765-76-1208-69-266 39-564 24-799 115z" fill="#60b867"/><path d="M2696 3956l1993-13c8-9 16-18 24-28-307-47-765-38-1208-34-313 18-577 31-809 75z" fill="#2d6e4a"/><path d="M3102 4254c51-32 101-65 151-97 33-8 67-14 111-2l232 72 243-52 215 34 189-67s61 98 65 110-57 55-71 55-376 58-409 58-271-22-271-22l-231-4s-153 4-165 4-73-41-73-41z" fill="#8c7b5b"/><path d="M3325 3714l-27 293 686 11-41-306z" fill="#fefefe"/><path d="M2921 1485l479 116 164-142 14-201h120l10 192 183 142 464-86-189-315-536-473-449 438z" fill="#373435"/><path d="M3584 5923l31 23 38-27c-3 0-6-1-9-1-20 0-40 2-60 5z" fill="#a05e41"/><path d="M3614 5945h2l100-70c-23-4-48-7-72-7-39 0-77 6-113 16z" fill="#a05e41"/><path d="M3557 5903c28-6 57-10 87-10 14 0 28 1 42 3l86-60c-41-12-84-18-128-18-57 0-112 10-163 29z" fill="#a05f41"/><path d="M3506 5865c43-14 90-22 138-22 34 0 68 4 101 12l78-55c-56-21-116-32-179-32-75 0-146 16-210 44z" fill="#a16041"/><path d="M3457 5829c58-23 121-36 187-36 53 0 105 9 154 25l74-53c-70-30-147-47-228-47-92 0-179 22-256 60z" fill="#a16141"/><path d="M3411 5795c71-33 149-52 233-52 72 0 141 14 204 39l72-50c-84-41-177-64-276-64-109 0-212 28-301 77z" fill="#a16241"/><path d="M3365 5761c84-43 178-68 279-68 90 0 175 20 252 56l70-49c-96-52-206-82-322-82-124 0-239 33-338 91l28 29z" fill="#a36241"/><path d="M3324 5727c94-53 203-84 320-84 108 0 209 26 299 73l68-48c-107-63-233-100-367-100-137 0-265 38-374 104z" fill="#a36241"/><path d="M3288 5690c104-61 226-97 356-97 125 0 243 33 345 91l67-47c-119-75-261-119-412-119s-291 43-410 117z" fill="#a36441"/><path d="M3252 5653c114-70 248-110 392-110 143 0 276 40 390 109l66-46c-130-87-287-138-456-138-164 0-317 48-446 130z" fill="#a36441"/><path d="M3216 5617c124-79 270-124 428-124 160 0 309 47 434 128l66-46c-142-99-314-157-500-157-178 0-343 53-481 144z" fill="#a56541"/><path d="M3180 5580c134-87 293-137 464-137 177 0 342 54 478 147l66-46c-153-111-341-176-544-176-192 0-369 58-517 157z" fill="#a56541"/><path d="M3145 5543c143-95 314-150 499-150 194 0 375 62 522 167l65-46c-163-123-367-196-587-196-205 0-395 63-552 171z" fill="#a56541"/><path d="M3109 5507c153-104 337-164 535-164 212 0 407 69 565 186l33-22 24-29c-160-122-357-198-570-209-21 23-35 38-38 41-7 7-32-11-64-41-200 10-384 76-538 183z" fill="#a66741"/><path d="M3074 5471c156-109 344-174 547-178-20-16-47-42-75-71-195 18-374 87-525 194zm600-178c216 7 415 82 576 204l48-58c-158-121-350-199-560-217-28 31-50 56-64 71z" fill="#a66741"/><path d="M3039 5434c152-107 333-175 530-189-21-20-44-44-67-69-191 24-367 96-516 204zm678-189c212 15 406 92 565 213l48-57c-156-120-345-201-551-225-23 26-44 50-62 69z" fill="#a66741"/><path d="M3003 5398c150-107 328-178 520-199-21-22-42-45-62-67-189 29-363 104-510 211zm756-199c207 21 398 100 555 221l48-58c-155-119-340-201-543-231-21 24-42 47-60 68z" fill="#a66841"/><path d="M2968 5362c148-108 323-181 513-208-21-23-42-46-60-66-187 34-359 111-506 219zm831-209c204 28 391 109 547 228l48-57c-154-119-336-202-535-238-21 24-41 46-60 67z" fill="#a86941"/><path d="M2933 5325c147-108 320-183 508-215-23-25-43-48-58-66-186 39-356 117-503 227zm906-217c201 33 385 116 539 235l48-58c-152-118-332-203-528-242-21 22-40 44-59 65z" fill="#a86a42"/><path d="M2898 5289c146-109 318-187 504-223-31-35-52-59-52-59l-5-6c-184 43-354 123-500 234zm980-225c198 38 379 122 532 240l48-57c-151-118-329-204-522-247z" fill="#aa6a41"/><path d="M2863 5253c146-110 316-190 501-230-9-10-14-16-14-16l-42-48c-184 46-352 128-498 240zm1054-232c194 42 373 127 525 245l48-58c-150-117-326-204-516-251z" fill="#aa6a41"/><path d="M2827 5217c146-111 316-193 499-237l-56-63c-182 49-350 134-495 245zm1128-239c192 46 368 132 519 249l48-57c-149-117-322-205-511-255z" fill="#aa6c41"/><path d="M2792 5181c146-112 314-196 497-243l-56-63c-181 52-348 139-493 251zm1200-245c190 49 364 136 514 253l48-58c-148-116-320-205-506-258z" fill="#aa6c41"/><path d="M2757 5144c146-112 313-197 495-248l-55-62c-181 55-347 143-492 256zm1273-250c187 52 359 140 508 256l48-57c-148-116-317-206-501-261z" fill="#aa6d42"/><path d="M2722 5108c145-113 312-200 493-254l-54-61c-180 57-346 147-492 261zm1345-255c185 54 355 143 503 259l48-58c-147-115-315-205-497-263z" fill="#ac6d41"/><path d="M2687 5072c145-114 311-202 492-259l-55-61c-179 60-344 151-490 266zm1416-261c183 57 352 147 499 262l48-57c-146-116-312-206-492-266z" fill="#ac6d41"/><path d="M2652 5036c145-115 311-205 491-264l-54-61c-179 63-344 155-490 271zm1488-266c181 59 348 150 494 265l48-58c-145-115-310-206-488-268z" fill="#ac6f41"/><path d="M2617 5000c145-115 310-207 489-269l-53-60c-179 65-343 158-489 275zm1559-270c179 61 344 151 490 266l48-57c-145-115-308-206-484-270z" fill="#ac7041"/><path d="M2582 4964c145-116 310-209 489-273l-54-60c-178 67-342 161-488 279zm1630-275c177 63 341 154 486 269l48-58c-144-114-306-206-481-271z" fill="#ad7041"/><path d="M2547 4928c145-117 310-211 488-277l-53-61c-178 70-342 166-488 284zm1700-279c176 64 339 156 483 270l48-57c-143-114-304-207-477-273z" fill="#ad7042"/><path d="M2512 4892c145-118 310-213 488-281l-53-60c-178 71-342 168-488 287zm1771-283c174 66 335 158 479 272l48-58c-143-113-302-206-474-274z" fill="#af7242"/><path d="M2477 4856c146-119 310-215 487-286l-48-54-3-6c-178 73-342 172-489 292zm1842-287c172 67 332 160 475 273l48-57c-142-113-300-206-471-276z" fill="#af7242"/><path d="M2442 4820c146-119 310-217 487-289l-13-15-29-49c-181 75-349 176-498 299zm1912-291c171 69 330 162 472 275l48-58c-141-112-298-206-467-277z" fill="#b07442"/><path d="M2407 4784c147-122 313-221 493-295l-39-66c-184 78-355 181-507 307zm1982-295c170 70 327 164 469 276l48-57c-144-115-304-211-476-283l-15 35z" fill="#b07442"/><path d="M2372 4748c150-124 319-227 502-303l-39-65c-188 79-361 185-516 314zm2048-300c170 71 328 166 470 279l17-21 22-45c-146-114-306-209-479-282z" fill="#b27442"/><path d="M2337 4712c153-127 325-232 511-310l-39-66c-186 80-358 185-513 311l17 40zm2103-310c172 72 333 168 477 283l34-70c-147-114-308-209-481-282z" fill="#b27542"/><path d="M2306 4672c155-128 329-234 516-314l-38-65c-184 79-354 182-508 306zm2154-316c173 73 334 168 480 282l33-69c-147-113-309-209-483-282z" fill="#b27542"/><path d="M2286 4623c154-125 326-229 511-308l-39-65c-181 78-349 180-502 301zm2194-313c173 73 335 168 482 282l33-69c-148-113-311-208-485-282z" fill="#b47642"/><path d="M2266 4575c153-122 323-225 505-304l-39-65c-178 78-345 178-496 297zm2234-311c174 73 336 169 484 282l33-69c-149-113-312-208-487-282z" fill="#b47742"/><path d="M2246 4527c152-120 320-221 499-299l-38-65c-176 77-341 176-490 292zm2274-309c174 74 337 169 486 282l33-69c-150-113-314-208-489-282z" fill="#b47742"/><path d="M2227 4479c150-118 315-217 492-295l-38-65c-173 77-336 174-484 288zm2313-307c175 74 338 169 488 282l33-69c-151-113-315-207-491-281z" fill="#b47842"/><path d="M2207 4431c149-115 312-213 487-290l-39-65c-171 76-331 172-478 283zm2353-305c175 75 339 169 490 281l33-68c-152-112-317-207-493-281z" fill="#b57941"/><path d="M2187 4383c148-113 309-209 481-285l-39-65c-168 75-326 169-472 278zm2393-302c176 74 341 169 492 281l33-69c-153-112-318-207-495-281z" fill="#b57941"/><path d="M2167 4335c146-110 306-205 475-281l-38-65c-166 75-322 167-467 275zm2433-300c176 74 342 169 494 281l33-69c-154-112-320-206-497-281z" fill="#b57a42"/><path d="M2147 4288c145-109 302-202 469-277l-30-52-3-15c-165 74-321 166-465 272zm2473-299c177 75 343 169 496 281l33-69c-155-111-321-206-499-281z" fill="#b77b41"/><path d="M2127 4240c144-106 299-198 464-272l-5-9-13-66c-169 76-328 168-475 276zm2513-297c177 75 344 170 498 281l33-69c-155-111-323-205-501-281z" fill="#b87c41"/><path d="M2108 4192c146-106 303-199 470-273l-15-76c-172 76-334 169-485 278zm2552-295c178 75 345 170 500 281l33-69c-156-111-324-205-502-281z" fill="#b87c41"/><path d="M2088 4145c149-108 310-201 480-277l-15-75c-175 76-341 170-495 281zm2592-294c178 76 346 170 502 281l32-69c-156-110-325-205-503-281z" fill="#b87d41"/><path d="M2068 4097c153-109 317-203 490-279l-14-76c-179 77-348 173-505 284zm2633-292c178 76 346 170 502 281l33-69c-157-110-326-204-505-281z" fill="#ba7e42"/><path d="M2049 4050c155-111 322-206 499-283l-14-75c-182 78-355 174-515 287zm2672-291c178 76 347 171 504 281l33-68c-158-111-328-205-507-281z" fill="#ba7f42"/><path d="M2029 4002c158-112 329-207 510-285l-15-75c-186 78-361 176-525 289zm2712-288c179 76 348 170 506 280l33-68c-159-110-329-205-509-281z" fill="#ba7f42"/><path d="M2009 3955c162-113 336-210 520-288l-15-76c-189 80-368 178-534 293zm2752-287c179 76 349 171 508 281l33-69c-160-110-331-204-511-281z" fill="#bb7f42"/><path d="M1990 3908c165-115 342-213 529-292l-14-75c-193 80-375 179-545 296l1 1zm2791-286c180 76 351 171 510 281l31-65v-5c-160-109-331-203-511-280z" fill="#bb8142"/><path d="M1970 3860c168-115 349-214 539-294l-14-75c-193 79-376 178-547 293l13 54zm2831-284c180 77 352 171 512 281l9-19 7-60c-156-105-323-196-498-271z" fill="#bd8243"/><path d="M1954 3810c170-116 353-214 546-294l-15-75c-193 79-377 176-548 291zm2867-280c178 76 347 168 505 275l10-83c-158-104-327-195-504-269l-1 53z" fill="#bd8343"/><path d="M1942 3758c171-115 355-213 548-292l-15-75c-194 78-378 175-550 289zm2890-278c176 75 343 165 501 270l10-83c-161-104-331-194-510-268z" fill="#bf8342"/><path d="M1931 3706c172-114 356-212 549-290l-14-75c-195 78-380 174-553 287zm2901-280c178 74 348 164 507 268l11-83c-163-103-336-192-516-265z" fill="#bf8342"/><path d="M1919 3654c173-113 357-210 551-288l-8-41v-37c-197 78-385 174-561 288zm2914-281c180 73 352 162 513 266l10-82c-164-104-339-193-522-265z" fill="#c18542"/><path d="M1907 3602c174-113 360-209 555-287v-80c-202 78-393 175-573 289zm2927-283c182 73 355 162 519 265l10-82c-167-103-343-191-528-264z" fill="#c18542"/><path d="M1895 3550c178-114 368-211 567-288l-1-80c-205 78-400 175-584 290zm2940-285c183 72 359 161 525 264l10-82c-169-102-348-190-534-262z" fill="#c18542"/><path d="M1883 3498c182-115 375-212 578-290l-1-80c-208 78-408 177-595 293zm2952-286c186 72 364 160 531 262l11-81c-171-102-352-190-541-261z" fill="#c18642"/><path d="M1871 3446c186-115 383-213 590-291l-1-80c-211 77-411 175-600 290v30zm2965-288c188 72 367 160 537 262l10-81c-173-102-355-190-546-260z" fill="#c38742"/><path d="M1860 3395c188-117 389-215 600-293l-1-80c-210 76-410 171-599 285zm2977-290c189 71 371 159 543 261l10-82c-175-101-360-188-552-259z" fill="#c38842"/><path d="M1860 3336c189-114 389-211 600-288l-1-79c-209 75-410 168-598 279zm2978-284c191 70 375 158 548 259l10-81c-176-101-363-188-557-257z" fill="#c38842"/><path d="M1860 3277c189-112 390-206 599-282l-1-79c-208 73-408 165-597 274zm2978-278c194 70 379 157 555 258l10-80c-179-102-367-188-564-257z" fill="#c38842"/><path d="M1861 3219c189-110 389-203 598-276l-1-80c-208 72-408 162-597 269zm2978-273c195 70 383 156 561 257l10-80c-181-101-372-187-570-256z" fill="#c58a42"/><path d="M1861 3161c189-108 389-199 597-271l-1-80c-207 71-406 160-595 265zm2979-268c197 70 386 156 566 257l10-81c-183-100-375-186-575-255z" fill="#c58a42"/><path d="M1861 3103c189-105 389-195 597-266l-1-65 2-15c-208 70-407 157-597 260zm2980-263c199 69 390 155 572 256l10-80c-185-101-379-186-581-255z" fill="#c58c42"/><path d="M1862 3046c189-104 388-192 595-262v-12l9-70c-210 69-412 155-604 258zm2979-258c201 68 395 154 579 254l8-67-2-14c-186-100-381-184-584-252z" fill="#c78c43"/><path d="M1862 2989c191-103 392-190 600-260l11-82c-212 68-416 154-610 256zm2980-254c203 68 398 154 584 254l2-14-9-75c-184-96-376-178-576-244z" fill="#c78e43"/><path d="M1863 2932c193-103 395-189 606-257l11-83c-214 67-420 153-617 255zm2980-249c201 66 395 150 579 247l-10-90c-182-93-372-172-568-236z" fill="#c78e43"/><path d="M1863 2875c195-102 400-188 614-255l10-83c-216 67-425 152-624 253zm2980-245c199 65 390 145 572 240l-11-90c-179-90-366-166-559-228z" fill="#c78f43"/><path d="M1863 2818c198-101 405-186 621-253l10-82c-218 66-429 150-630 251zm2981-240c195 63 384 141 564 232l-11-89c-179-88-365-163-558-224l6 15z" fill="#c98f42"/><path d="M1864 2762c200-101 409-185 627-252l10-81c-221 65-434 149-637 249zm2981-237c192 62 378 137 556 226l-11-90c-184-88-377-163-576-224l31 75z" fill="#c98f42"/><path d="M1864 2706c202-101 414-184 634-250l10-82c-222 65-436 147-641 247l-3 7zm2963-239c196 60 385 136 567 224l-11-88c-190-90-388-165-593-225z" fill="#c99142"/><path d="M1864 2650c205-100 419-184 641-248l11-82c-218 62-427 141-628 235l-24 73zm2938-242c202 60 397 135 585 224l-11-88c-196-90-399-166-610-225z" fill="#cb9142"/><path d="M1877 2588c203-97 415-178 635-241l10-81c-212 59-417 134-614 225zm2901-240c208 60 409 135 602 226l-11-88c-201-91-411-167-627-226z" fill="#cb9342"/><path d="M1898 2523c199-92 406-169 621-230l10-80c-207 56-407 128-600 214zm2856-234c214 59 420 135 619 226l-11-87c-206-92-422-168-644-226z" fill="#cb9342"/><path d="M1918 2458c195-88 399-161 608-218l6-49c5-12 10-23 14-35-205 55-405 124-597 207zm2812-227c219 59 432 134 636 226l-11-87c-212-92-432-168-661-226z" fill="#cb9342"/><path d="M1939 2395c191-84 390-154 595-210 12-29 24-58 37-87-207 53-408 121-602 202zm2767-222c225 58 443 134 653 226l-11-86c-217-93-443-169-677-226z" fill="#cd9542"/><path d="M1959 2331c193-82 393-150 599-204 13-29 25-58 38-87-209 52-412 118-607 198zm2724-216c231 58 454 134 669 227l-10-87c-223-93-455-169-695-225z" fill="#cd9543"/><path d="M1979 2269c194-81 396-148 604-200l39-87c-211 50-416 115-614 194zm2680-211c237 57 466 132 686 226l-10-86c-228-94-466-170-711-225z" fill="#cd9543"/><path d="M1999 2207c196-80 400-145 610-196 13-29 27-58 40-86-213 48-420 112-621 189zm2637-206c242 56 477 132 702 226l-7-57-12-32c-230-93-470-167-718-221z" fill="#cf9743"/><path d="M2018 2145c199-78 406-143 618-192 14-29 28-57 42-86-217 47-428 110-632 187l-13 44zm2595-200c248 55 488 130 718 225l-36-96c-230-90-470-162-717-214z" fill="#cf9743"/><path d="M2037 2084c202-77 411-140 626-188 15-29 30-58 44-86-221 46-436 107-644 184zm2553-195c247 52 487 125 717 217l-35-94c-231-88-470-158-717-208z" fill="#d19a43"/><path d="M2054 2024c206-77 419-139 638-186 15-29 31-57 46-86-226 45-446 106-658 183zm2513-192c246 51 486 122 716 211l-35-94c-230-85-470-152-716-200z" fill="#d19a43"/><path d="M2071 1964c211-76 428-138 652-183 15-29 31-57 47-86-231 44-456 105-673 181zm2473-187c246 49 485 117 716 203l-35-92c-231-83-470-148-715-194z" fill="#d39a43"/><path d="M2088 1905c215-76 437-137 666-181 16-29 32-58 49-86-237 42-467 103-690 179zm2433-184c246 47 485 113 715 197l-34-92c-231-80-470-143-715-187z" fill="#d39b43"/><path d="M2105 1846c220-76 447-136 681-179 16-29 33-57 50-85-242 41-478 100-706 176zm2393-180c246 45 485 109 715 191l-34-92c-231-78-469-139-714-181z" fill="#d59c43"/><path d="M2122 1787c225-76 458-135 697-177 17-29 35-57 53-85-249 40-491 99-725 175zm2354-176c245 43 483 106 714 185l-34-91c-231-76-469-135-714-176z" fill="#d59d43"/><path d="M2138 1729c232-76 471-135 716-176 18-28 36-57 54-84-255 38-504 97-745 173zm2316-172c244 41 483 101 713 178l-34-90c-237-76-482-134-733-173l38 46z" fill="#d59d43"/><path d="M2155 1671c237-76 483-135 735-174 18-29 36-57 55-84-257 36-507 92-750 167l-27 45zm2269-170c247 40 487 98 721 174l-34-90c-245-76-499-133-758-171z" fill="#d59f43"/><path d="M2176 1612c243-76 493-134 750-171 19-29 38-57 58-84-257 34-508 87-750 159zm2200-169c256 38 505 96 746 172l-34-89c-252-76-514-133-782-169z" fill="#d7a042"/><path d="M2214 1548c243-73 494-128 750-163l60-84c-258 32-509 83-753 152zm2116-162c263 36 521 93 769 170l-28-76-10-14c-259-76-526-132-801-165z" fill="#d7a142"/><path d="M2253 1484c243-70 494-122 751-155 20-28 40-56 60-83-258 29-510 78-756 145zm2030-155c272 34 537 91 794 168l-6-17-54-79c-259-73-527-125-802-156z" fill="#d7a142"/><path d="M2290 1422c244-68 496-118 754-148 20-28 41-56 63-83-260 27-515 73-761 138zm1948-149c274 32 542 86 801 160l-64-95c-261-70-530-120-805-148z" fill="#d7a142"/><path d="M2327 1360c246-66 499-113 758-141 21-28 43-55 65-82-262 24-519 69-768 131zm1865-143c275 30 544 81 804 152l-64-95c-261-66-531-113-806-139z" fill="#d8a342"/><path d="M2364 1298c248-63 503-108 764-134 22-28 44-55 66-82-265 23-524 65-776 126zm1784-135c275 26 544 75 805 143l-63-93c-262-64-532-109-809-132z" fill="#d9a342"/><path d="M2400 1238c251-62 508-105 772-129 22-27 45-54 68-81-268 20-531 61-786 119zm1703-130c276 25 546 70 808 136l-62-93c-264-61-535-103-812-124z" fill="#d9a542"/><path d="M2436 1178c254-60 514-101 780-123 12-13 23-27 35-40l52-41c-278 17-549 56-814 115zm1623-124c277 22 547 65 810 128l-61-91c-268-60-544-100-826-117l28 20z" fill="#dca543"/><path d="M2472 1118c259-58 525-98 796-117l104-81c-289 14-572 51-847 110zm1544-117c277 19 548 60 812 120l-61-90c-279-60-566-98-860-112l103 75z" fill="#dca543"/><path d="M2507 1059c270-58 547-96 831-112l102-80c-298 11-589 46-872 102l-19 20zm1437-113c288 16 570 55 844 115l-61-90c-290-59-588-94-893-105z" fill="#dca743"/><path d="M2542 1000c281-58 569-94 864-107l101-79c-299 8-592 39-876 92l-82 83zm1329-107c299 12 591 49 876 108l-59-89c-301-58-610-91-926-98z" fill="#dca743"/><path d="M2599 938c284-55 576-88 874-97l98-78c-299 4-593 32-879 81zm1199-98c310 9 614 43 909 102l-27-40-56-53c-302-54-614-83-932-86z" fill="#dda842"/><path d="M2662 875c285-51 578-80 877-86l91-71 97 71c318 4 629 36 932 92l-100-93c-298-50-604-75-915-75-304 0-601 24-892 71z" fill="#dea943"/><path d="M2722 814c287-48 582-74 882-76l26-20 27 20c319 0 631 28 935 80l-98-92c-278-42-561-64-850-64-283 0-561 22-832 62z" fill="#dea943"/><path d="M2782 753c281-43 569-66 862-66 300 0 595 24 882 70l-96-90c-257-36-519-55-786-55-263 0-521 19-774 53z" fill="#e4ae43"/><path d="M2841 694c262-37 530-57 803-57 278 0 551 21 818 60l-95-89c-237-30-478-46-723-46-243 0-482 16-717 45z" fill="#e4ae43"/><path d="M2899 636c244-32 492-49 745-49 256 0 508 18 755 50l-93-87c-217-25-438-38-662-38s-444 13-660 38z" fill="#e4ae43"/><path d="M2956 578c225-26 455-41 688-41 234 0 466 15 693 42l-92-86c-198-20-398-31-601-31-204 0-406 11-604 31z" fill="#e4af43"/><path d="M3012 522c207-23 418-35 632-35 213 0 424 12 632 35l-90-85c-179-16-359-25-542-25-178 0-355 9-529 24l-45 27z" fill="#e5b042"/><path d="M3068 465c189-18 381-28 576-28 193 0 383 10 572 28l-89-83c-159-13-321-20-483-20-145 0-288 6-430 16l-144 85z" fill="#e6b242"/><path d="M3165 406c158-12 318-19 479-19 173 0 343 8 513 23l-36-34-113-53c-121-7-242-11-364-11-113 0-225 3-336 10z" fill="#e6b244"/><path d="M3261 350c127-8 254-13 383-13 143 0 285 5 426 15l-182-85c-81-3-163-5-244-5-82 0-163 2-244 5z" fill="#e8b444"/><path d="M3355 294c96-4 192-7 289-7 101 0 202 3 302 8l-173-81c-43-1-86-2-129-2-52 0-103 1-154 2z" fill="#e8b444"/><path d="M3445 241c66-3 132-4 199-4 62 0 124 1 185 3l-167-78h-18c-23 0-45 0-68 1z" fill="#e8b644"/><path d="M3533 188c37 0 74-1 111-1 24 0 49 1 73 1l-102-48z" fill="#e8b644"/><path d="M3412 1756l-598 97-51 127 666-174zm-9-51l-512-21-50 84 566-35zm-6-61l-428-105-53 80 478 49zm479 1l449-87 43 63-481 45zm14 53l502-15 47 77-549-31zm-3 61l580 82 54 126-655-163z" fill="#b97f41"/><path d="M3594 1481h91v-194h-91z" fill="#373435"/><path d="M3637 1444l-202 151-14 44 450-3-9-37z" fill="#373435"/><path d="M3476 1834h32v-211h-32zm292-13h33v-211h-33z" fill="#373435"/><path d="M3618 1502l-99 82 93-4z" fill="#fefefe"/><path d="M3476 1780c108-3 217 1 325-2 63 38 121 77 144 127-9 42-32 75-69 99-159-96-315-71-469-2-112-89 14-180 69-222z" fill="#373435"/><path d="M3401 1938l52 2-119 2081-52-2zm478-2l-52 3 119 2081 52-3z" fill="#373435"/><path d="M3782 3665l-51-1641-24 1-3 1658 57-18zm82-121l-64-1521-14 3 45 1517z" fill="#848688"/><path d="M3697 4011l14-273 100 2 9 273z" fill="#373435"/><path d="M3143 4030h1005v-45H3143z" fill="#373435"/><path d="M3143 4194h43v-209h-43zm962-10h48v-173h-48z" fill="#373435"/><path d="M3364 4155c44 12 88 26 132 43 88-8 175 15 264-10l159-25 186 14c78-62 99-75 166-55 50 35 97 74 105 152-46 106-248 53-372 79 0 0-130 30-144 31-544 49-405-37-492-29-114 11-316 45-299-105l89-85 160-17 2 38-146 45-52 52 33 29c78 28 166-39 244-4 109 50 339-6 407 6l107 20 106-43 237-25-12-105c10 90-380 60-432 69l-72 12c-87 22-174 19-262-2-56-3-109-13-129-64z" fill="#53473a"/><g fill="#fefefe"><path d="M2862 4093c54 8 98 0 132-25 33 22 92 37 126 17-125 91-246 27-258 8zm282 413c76-4 143-18 188-51 32 38 90 54 174 49-105 68-230 133-362 2zm1091-529c38-3 71-10 93-28 16 20 45 29 87 26-53 38-114 74-180 2zm3 74c24-2 44-9 58-28 10 21 28 30 54 27-33 38-71 73-112 1zm125 28c29-1 55-7 73-21 12 16 35 23 68 20-41 47-89 79-141 1zm-1475 97c34 10 62 1 83-32 21 28 57 47 78 22-77 114-153 34-161 10zm-49 113c34 10 61 1 82-32 21 28 58 47 79 22-78 114-153 34-161 10zm120 86c44 10 79 1 106-31 27 27 74 46 101 22-100 114-197 34-207 9z"/><path d="M3117 4424c75 10 134 0 180-32 46 28 126 46 172 22-170 114-335 34-352 10zm382 14c79 10 141 1 190-32 48 28 132 47 180 22-178 114-352 34-370 10zm-2 83c66 8 118 1 159-24 40 21 111 36 151 17-149 87-295 26-310 7zm402-79c65 8 117 1 158-24 40 21 111 36 151 17-149 87-295 26-309 7zm214-68c65 7 117 0 158-25 40 22 111 36 151 17-149 87-295 26-309 8zm-252 162c66 11 118 1 159-33 40 29 110 49 151 23-150 121-295 36-310 10zm-529 86c78 8 141 1 189-24 49 21 133 35 182 17-179 87-354 26-371 7z"/><path d="M3557 4629c40 8 72 0 96-24 25 21 68 35 92 16-91 88-179 26-188 8zm-342 54c65 8 117 0 158-24 40 21 111 35 151 16-149 88-295 26-309 8z"/><path d="M3656 4653c66 8 118 1 158-24 41 21 111 36 152 17-150 87-295 26-310 7zm296 32c37 8 67 0 90-24 23 21 63 35 85 16-84 88-167 26-175 8zm-455 48c83 11 149 1 200-33 51 29 140 49 191 23-189 121-372 36-391 10z"/><path d="M3702 4816c45 13 81 1 109-39 28 34 77 58 105 27-103 142-204 42-214 12zm-239 60c33 8 59 1 79-24 20 21 56 35 76 17-75 87-148 26-155 7zm161 106c43 14 77 1 103-43 27 38 73 63 100 30-98 156-194 47-203 13zm-198 129c66 8 118 1 159-24 40 21 111 35 151 17-149 87-295 26-310 7zm-115-71c66 7 118 0 158-25 41 22 111 36 152 17-150 88-295 26-310 8zm1073-855c48 7 86 0 116-25 30 22 82 36 112 17-110 87-218 26-228 8z"/></g><path d="M3635 644c-1839 1306-1526 3624 0 4736v-148c-1463-1158-1566-3306 0-4438 0-53 1-97 0-150z" fill="#34529c"/><path d="M3635 644c1840 1306 1526 3624 0 4736v-148c1463-1158 1566-3306 0-4438 1-53 0-97 0-150z" fill="#34529c"/><path d="M3635 14c-2673 1646-2215 4583 0 5997v-188c-2191-1469-2342-4189 0-5620 0-67 1-123 0-189z" fill="#34529c"/><path d="M3635 14c2673 1646 2215 4583 0 5997v-188c2191-1469 2342-4189 0-5620 1-67-1-123 0-189zM2521 5993l-204 593C514 6161 171 5092 169 3470c-56-224-99-452-167-642 197 109 348 248 461 411l222-571c550 1436-177 2614 1836 3325z" fill="#34529c"/><path d="M2380 6070l-100 391C759 6090 251 5041 285 3631c-2-228-43-371-99-527 161 89 221 203 313 337l185-373c349 1137-258 2211 1696 3002z" fill="#edbb43"/><path d="M2227 6258c0-25-20-44-44-44-25 0-44 19-44 44 0 24 19 44 44 44 24 0 44-20 44-44z" fill="#9b5b40"/><path d="M2212 6258c0 16-13 29-29 29-17 0-30-13-30-29 0-17 13-30 30-30 16 0 29 13 29 30zm44 0c0-41-33-74-73-74-41 0-74 33-74 74 0 40 33 73 74 73 40 0 73-33 73-73z" fill="#9b5b40"/><path d="M2242 6258c0 32-27 58-59 58-33 0-59-26-59-58 0-33 26-59 59-59 32 0 59 26 59 59zm44 0c0-57-46-103-103-103s-103 46-103 103c0 56 46 103 103 103s103-47 103-103z" fill="#9b5b40"/><path d="M2271 6258c0 48-40 88-88 88-49 0-88-40-88-88 0-49 39-89 88-89 48 0 88 40 88 89zm44 0c0-73-59-133-132-133s-133 60-133 133 60 132 133 132 132-59 132-132z" fill="#9c5c40"/><path d="M2300 6258c0 65-52 117-117 117s-118-52-118-117 53-118 118-118 117 53 117 118zm41-34l-36 139c-29 34-73 56-122 56-90 0-162-72-162-161 0-90 72-162 162-162 77 0 142 55 158 128z" fill="#9c5c41"/><path d="M2330 6258c0 4 0 8-1 12l25-97c-31-63-96-106-171-106-106 0-191 85-191 191 0 55 23 105 61 140 54 17 109 33 165 47 27-5 53-16 74-31l25-97c-23 52-74 88-134 88-81 0-147-66-147-147 0-82 66-147 147-147s147 65 147 147z" fill="#9e5e41"/><path d="M2298 6391c-31 27-71 43-115 43h-8c32 9 64 17 97 25 4-1 7-3 10-5zm-202 20c-54-30-90-87-90-153 0-98 79-177 177-177 75 0 140 48 165 115l16-64c-40-57-106-95-181-95-122 0-221 99-221 221 0 46 14 88 38 123 32 11 64 21 96 30z" fill="#a05e41"/><path d="M2287 6435c-12 7-25 13-39 18 11 3 21 6 32 8zm-262-46c-30-35-48-81-48-131 0-114 92-206 206-206 75 0 140 40 176 100l14-56c-21-25-48-46-78-62-9-3-17-7-26-11-27-10-56-15-86-15-138 0-250 112-250 250 0 39 9 76 25 109 22 8 44 15 67 22z" fill="#a05e41"/><path d="M1978 6374c-19-34-30-74-30-116 0-130 105-236 235-236 75 0 143 36 186 92l11-44c-74-30-144-61-210-91-149 7-267 129-267 279 0 34 6 66 18 96 19 7 38 14 57 20z" fill="#a05f41"/><path d="M1939 6361c-13-32-21-67-21-103 0-147 119-265 265-265 6 0 13 0 19 1-28-13-56-26-83-39-140 30-245 154-245 303 0 29 4 57 12 84 17 6 35 12 53 19zm421-300l18 18 2-9c-7-3-13-6-20-9z" fill="#a16041"/><path d="M1903 6348c-9-29-14-59-14-90 0-149 110-272 254-292-22-10-43-20-64-30-136 44-234 171-234 322 0 24 2 48 7 71 17 6 34 13 51 19z" fill="#a16141"/><path d="M1869 6335c-6-25-10-51-10-77 0-150 102-276 240-313l-57-27c-133 55-227 186-227 340 0 20 2 39 5 59 16 6 32 12 49 18z" fill="#a16241"/><path d="M1836 6323c-4-21-6-43-6-65 0-152 96-282 230-331-17-9-34-18-51-26-132 64-223 200-223 357 0 15 1 31 2 46 16 6 32 13 48 19z" fill="#a36241"/><path d="M1804 6310c-2-17-4-35-4-52 0-155 93-289 225-349-16-8-32-16-48-25-132 73-221 213-221 374 0 11 1 22 2 33 15 7 31 13 46 19z" fill="#a36241"/><path d="M1773 6298c-1-14-2-27-2-40 0-159 90-297 222-366-16-8-31-16-47-24-131 80-219 224-219 390v20c16 7 31 13 46 20z" fill="#a36441"/><path d="M1743 6285c-1-9-1-18-1-27 0-163 88-306 220-382-16-8-30-16-45-24-132 86-219 236-219 406v7c14 7 29 13 45 20z" fill="#a36441"/><path d="M1713 6272c-1-5-1-10-1-14 0-168 88-315 220-398-15-8-30-16-44-24-131 92-218 244-220 416 15 7 30 13 45 20z" fill="#a56541"/><path d="M1683 6259v-1c0-172 87-324 219-414l-42-24c-129 95-215 247-221 418 15 7 29 14 44 21z" fill="#a56541"/><path d="M1654 6245c4-172 90-323 220-417l-42-24c-127 98-212 249-222 420 15 7 29 14 44 21z" fill="#a56541"/><path d="M1625 6231c8-171 93-322 221-419-14-8-27-16-41-24-126 101-210 252-223 422 14 8 28 14 43 21z" fill="#a66741"/><path d="M1596 6217c12-170 96-321 223-421-14-8-27-17-40-25-125 104-209 255-225 425z" fill="#a66741"/><path d="M1568 6203c15-170 99-321 224-424l-39-24c-124 106-208 256-227 426 13 8 28 15 42 22z" fill="#a66741"/><path d="M1540 6189c18-171 102-321 226-426-14-8-26-16-39-25-123 108-207 258-229 428 14 8 27 15 42 23z" fill="#a66841"/><path d="M1512 6174c21-170 105-321 228-427-13-9-26-17-39-25-121 109-206 260-231 429 14 8 28 15 42 23z" fill="#a86941"/><path d="M1484 6159c24-170 108-320 230-429-13-8-25-17-38-25-121 111-205 261-233 430 14 8 27 16 41 24z" fill="#a86a42"/><path d="M1457 6143c26-169 110-319 232-430-13-8-25-17-38-25-120 112-205 262-235 431 13 8 27 16 41 24z" fill="#aa6a41"/><path d="M1429 6127c29-169 114-319 235-431-13-8-25-17-37-25-120 113-205 263-238 432 13 8 27 16 40 24z" fill="#aa6a41"/><path d="M1402 6111c32-169 117-319 237-432-12-8-24-17-36-26-120 115-206 265-241 433 14 9 27 17 40 25z" fill="#aa6c41"/><path d="M1376 6095c33-169 119-319 239-433-12-9-25-18-36-27-120 116-206 266-243 434 13 9 26 18 40 26z" fill="#aa6c41"/><path d="M1349 6078c36-168 122-318 242-434-13-9-24-18-36-27-119 117-206 267-245 435 13 9 26 17 39 26z" fill="#aa6d42"/><path d="M1323 6061c38-168 125-318 244-435-12-9-24-18-35-27-119 118-207 268-248 435z" fill="#ac6d41"/><path d="M1297 6043c40-168 127-318 246-435-11-9-23-18-34-28-119 119-207 269-251 436z" fill="#ac6d41"/><path d="M1271 6026c42-168 130-318 249-436-12-10-23-19-34-28-119 119-208 269-254 436 13 9 26 19 39 28z" fill="#ac6f41"/><path d="M1245 6007c45-167 133-317 252-436-11-9-23-19-34-28-119 119-208 269-256 436 13 10 25 19 38 28z" fill="#ac7041"/><path d="M1220 5989c46-168 135-317 254-437-11-9-22-19-33-29-119 121-209 270-259 437 12 10 25 19 38 29z" fill="#ad7041"/><path d="M1195 5970c48-167 138-317 257-437l-33-30c-119 122-210 271-262 438 13 9 25 19 38 29z" fill="#ad7042"/><path d="M1170 5950c50-166 141-316 260-437-11-9-22-20-32-30-120 122-212 271-265 438 12 10 24 20 37 29z" fill="#af7242"/><path d="M1145 5931c52-167 144-316 264-438-11-10-22-20-32-30-121 122-213 271-269 437 12 11 25 21 37 31z" fill="#af7242"/><path d="M1121 5911c54-167 146-316 266-438-11-10-21-20-31-31-121 123-215 272-272 438 12 10 24 20 37 31z" fill="#b07442"/><path d="M1096 5890c56-166 150-315 270-437-10-11-21-21-31-31-121 122-216 271-274 437 11 10 23 21 35 31z" fill="#b07442"/><path d="M1072 5869c58-166 152-314 273-437-10-11-20-21-30-32-122 123-217 272-278 437 12 11 23 22 35 32z" fill="#b27442"/><path d="M1049 5848c60-166 155-314 276-437l-30-33c-122 124-219 272-281 437 11 11 23 22 35 33z" fill="#b27542"/><path d="M1025 5826c62-165 158-314 280-437l-30-33c-122 124-220 272-284 437 11 11 23 22 34 33z" fill="#b27542"/><path d="M1002 5804c64-165 161-313 283-437-10-11-19-22-29-33-123 124-222 272-288 437 11 11 23 22 34 33z" fill="#b47642"/><path d="M979 5782c66-165 164-313 287-437-10-11-19-22-29-34-124 124-223 272-291 436 11 12 22 23 33 35z" fill="#b47742"/><path d="M957 5759c67-165 166-313 290-436-10-12-19-23-28-35-125 124-226 272-295 436 11 12 22 23 33 35z" fill="#b47742"/><path d="M935 5736c68-164 169-312 293-436-9-12-18-24-27-35-126 124-228 271-299 435z" fill="#b47842"/><path d="M913 5712c70-164 172-312 297-436-9-12-18-23-27-35-126 124-229 271-302 435 10 12 21 24 32 36z" fill="#b57941"/><path d="M891 5688c73-164 175-311 301-435-9-12-17-24-26-37-127 125-232 272-307 435 11 13 21 25 32 37z" fill="#b57941"/><path d="M870 5664c74-164 178-311 305-435-9-13-17-25-26-37-128 124-234 271-310 434 10 13 20 25 31 38z" fill="#b57a42"/><path d="M849 5639c76-164 181-311 309-435-9-12-17-25-25-37-129 124-236 271-315 434 10 13 21 25 31 38z" fill="#b77b41"/><path d="M828 5614c78-164 184-311 313-435-8-13-16-25-24-38-130 124-238 271-319 434z" fill="#b87c41"/><path d="M808 5588c80-163 187-310 317-434l-24-39c-131 125-240 271-323 434z" fill="#b87c41"/><path d="M788 5562c81-163 191-310 321-434-8-13-15-26-22-39-133 124-244 271-328 433 9 14 19 27 29 40z" fill="#b87d41"/><path d="M768 5536c84-163 194-310 326-434-8-13-15-26-22-40-134 125-246 271-332 433 9 14 19 27 28 41z" fill="#ba7e42"/><path d="M749 5509c85-163 197-309 330-433-7-14-14-27-21-41-135 124-249 270-337 433 9 14 19 27 28 41z" fill="#ba7f42"/><path d="M730 5482c87-163 201-309 335-433-7-14-14-27-21-41-136 124-251 270-341 432z" fill="#ba7f42"/><path d="M712 5454c89-162 204-308 339-432-7-14-14-28-20-42-137 124-255 270-346 432z" fill="#bb7f42"/><path d="M694 5426c90-162 207-308 344-432-7-14-13-28-19-42-139 124-258 269-352 431 9 15 18 29 27 43z" fill="#bb8142"/><path d="M676 5398c93-162 211-308 349-432-7-14-13-28-19-42-140 123-260 269-356 431 8 14 17 28 26 43z" fill="#bd8243"/><path d="M659 5369c94-162 214-307 353-431-6-14-12-29-17-43-142 123-264 268-362 430 9 15 17 30 26 44z" fill="#bd8343"/><path d="M642 5340c96-162 218-307 358-431-5-14-11-29-16-44-144 124-268 269-367 431 8 15 16 29 25 44z" fill="#bf8342"/><path d="M625 5311c99-162 222-307 364-431-6-15-11-29-16-44-145 123-271 268-372 430z" fill="#bf8342"/><path d="M609 5281c100-162 225-307 369-430l-15-45c-147 123-274 268-378 429 8 16 16 31 24 46z" fill="#c18542"/><path d="M593 5251c103-162 229-307 375-430l-15-45c-148 123-277 267-383 429 7 15 15 31 23 46z" fill="#c18542"/><path d="M578 5220c104-161 233-306 380-429-5-15-10-30-14-46-150 123-281 268-389 429 8 16 15 31 23 46z" fill="#c18542"/><path d="M563 5190c106-162 236-307 385-430-4-15-9-30-13-45-151 122-284 266-394 428 7 15 14 31 22 47z" fill="#c18642"/><path d="M548 5158c109-161 241-305 391-428-4-16-8-31-12-47-153 123-288 267-400 428 7 16 14 32 21 47z" fill="#c38742"/><path d="M534 5127c111-161 244-305 397-428-5-15-9-31-12-47-155 122-292 266-406 427z" fill="#c38842"/><path d="M520 5095c113-161 249-305 403-427-4-16-8-32-12-47-156 121-295 265-411 426 7 16 13 32 20 48z" fill="#c38842"/><path d="M507 5063c115-161 252-305 408-427-4-15-7-31-11-47-158 121-298 265-417 426 7 16 13 32 20 48z" fill="#c38842"/><path d="M494 5031c117-161 256-305 414-426-4-16-7-32-10-48-160 121-303 264-423 425 6 16 12 33 19 49z" fill="#c58a42"/><path d="M481 4998c119-160 261-304 420-425l-9-48c-162 120-307 263-429 424 6 17 12 33 18 49z" fill="#c58a42"/><path d="M469 4965c121-160 265-303 426-424-4-16-7-32-9-48-164 120-310 262-434 423 5 16 11 33 17 49z" fill="#c58c42"/><path d="M457 4932c124-160 269-303 431-423-2-16-5-33-8-49-165 120-313 262-439 422 5 17 11 34 16 50z" fill="#c78c43"/><path d="M446 4899c125-160 273-302 437-423-3-16-5-32-8-49-167 120-317 262-445 421 5 17 10 34 16 51z" fill="#c78e43"/><path d="M435 4865c128-160 277-301 443-421-3-16-5-33-8-49-168 119-320 260-450 419z" fill="#c78e43"/><path d="M425 4831c129-159 280-301 448-420-3-16-5-32-7-49-170 119-324 259-456 418z" fill="#c78f43"/><path d="M415 4797c131-159 284-300 453-418-2-17-4-33-6-50-172 118-327 258-462 417z" fill="#c98f42"/><path d="M405 4763c133-159 288-299 459-417-2-17-4-33-6-50-174 118-330 257-467 415 5 17 9 35 14 52z" fill="#c98f42"/><path d="M396 4729c135-159 291-299 464-416-2-17-4-33-6-49-175 116-333 255-471 412 4 18 8 35 13 53z" fill="#c99142"/><path d="M387 4694c137-158 295-297 469-414-2-16-4-33-6-49-176 116-336 254-476 410 4 18 9 35 13 53z" fill="#cb9142"/><path d="M378 4659c140-157 299-296 474-412-2-16-3-33-5-49-177 115-339 252-481 408 4 18 8 35 12 53z" fill="#cb9342"/><path d="M370 4624c141-156 302-294 479-410-2-16-4-33-5-49-179 114-342 251-485 406 4 17 7 35 11 53z" fill="#cb9342"/><path d="M363 4588c142-155 304-292 482-407-1-16-3-33-4-49-180 113-344 249-489 403 3 18 7 36 11 53z" fill="#cb9342"/><path d="M355 4553c145-154 308-291 487-405-1-16-3-33-4-49-181 113-346 247-493 401 3 18 7 35 10 53z" fill="#cd9542"/><path d="M349 4517c145-153 310-288 490-402-1-16-3-32-4-49-182 112-348 246-496 398 3 18 6 36 10 53z" fill="#cd9543"/><path d="M342 4482c147-153 313-287 494-399-1-17-2-33-4-50-182 111-350 244-499 395z" fill="#cd9543"/><path d="M336 4446c149-152 316-285 498-396-2-17-3-33-5-49-183 110-351 241-502 391z" fill="#cf9743"/><path d="M330 4410c150-151 318-283 501-393l-4-49c-184 109-353 239-505 388 3 18 5 36 8 54z" fill="#cf9743"/><path d="M325 4374c151-149 320-280 503-390l-4-49c-184 108-354 237-507 385 3 18 5 36 8 54z" fill="#d19a43"/><path d="M320 4338c152-148 322-278 505-386l-4-49c-184 107-355 234-508 380 2 18 4 37 7 55z" fill="#d19a43"/><path d="M315 4301c153-146 324-275 508-382-2-16-3-32-4-49-185 106-356 233-510 377z" fill="#d39a43"/><path d="M311 4265c154-145 325-272 509-378-1-16-3-33-4-49-185 105-356 230-511 372 2 19 3 37 6 55z" fill="#d39b43"/><path d="M307 4228c155-143 326-269 510-374-1-16-2-32-4-48-184 103-356 227-512 368z" fill="#d59c43"/><path d="M303 4192c155-142 327-266 512-370-2-16-3-32-5-48-184 102-356 224-512 363 2 18 3 37 5 55z" fill="#d59d43"/><path d="M300 4155c156-139 327-262 512-365-2-16-3-32-5-48-184 101-355 221-512 358 2 19 3 37 5 55z" fill="#d59d43"/><path d="M297 4119c156-138 328-259 512-361-2-16-3-32-5-48-183 100-355 218-511 353 1 19 2 37 4 56z" fill="#d59f43"/><path d="M294 4082c157-136 328-256 512-356-2-16-4-31-5-47-183 98-354 215-511 348 2 18 3 37 4 55z" fill="#d7a042"/><path d="M292 4045c156-134 327-252 510-350-1-16-3-32-5-48-181 97-352 212-508 343 1 18 2 37 3 55z" fill="#d7a142"/><path d="M290 4008c156-132 327-248 509-345-2-16-4-31-5-47-181 95-351 208-507 337 1 19 2 37 3 55z" fill="#d7a142"/><path d="M288 3971c156-129 326-243 507-339-1-16-3-32-5-47-180 94-348 205-504 331 0 19 1 37 2 55z" fill="#d7a142"/><path d="M286 3935c156-128 326-240 506-335-2-15-4-31-6-46-178 92-346 201-501 325 0 19 1 37 1 56z" fill="#d8a342"/><path d="M285 3898c156-126 324-236 503-329-2-15-4-31-6-46-177 90-344 197-498 319 0 19 1 37 1 56z" fill="#d9a342"/><path d="M284 3861c155-123 322-231 500-323-2-15-5-31-7-46-175 89-340 194-494 313 1 19 1 37 1 56z" fill="#d9a542"/><path d="M284 3824c154-121 320-227 495-317-2-15-4-30-6-46-173 88-337 191-490 308 0 18 0 36 1 55z" fill="#dca543"/><path d="M283 3787c154-118 318-222 492-310-2-16-5-31-7-46-171 86-333 186-485 300z" fill="#dca543"/><path d="M283 3750c152-115 315-217 487-304-2-15-5-30-7-45-169 84-329 182-479 293-1 19-1 38-1 56z" fill="#dca743"/><path d="M283 3713c151-113 312-212 482-297-2-15-5-30-8-45-166 82-324 178-473 287 0 18 0 36-1 55z" fill="#dca743"/><path d="M284 3676c149-110 308-207 476-290l-9-45c-163 80-320 174-466 280v10c-1 15-1 30-1 45z" fill="#dda842"/><path d="M285 3639c147-107 304-202 469-283-3-15-5-30-9-45-161 79-316 171-461 274 0 15 1 30 1 46z" fill="#dea943"/><path d="M284 3603c146-105 302-198 465-277-3-15-6-30-10-45-74 36-147 75-218 116l-22 44c-5-7-10-15-15-22-69 41-136 85-202 131 1 17 2 35 2 53z" fill="#dea943"/><path d="M283 3568c68-48 138-94 210-137-9-12-17-24-25-36-64 38-127 79-188 121 1 17 2 34 3 52zm226-147c76-44 154-86 233-125l-9-45c-64 31-127 64-189 99z" fill="#e4ae43"/><path d="M281 3533c64-44 129-86 195-126-8-13-16-25-25-37-59 36-117 73-174 112 2 17 3 34 4 51zm252-160c66-38 134-73 203-107-3-15-7-29-10-44-54 26-107 53-158 81z" fill="#e4ae43"/><path d="M279 3499c59-41 119-80 181-117-9-12-17-24-25-36-55 33-109 67-161 103 2 16 3 33 5 50zm277-172c57-32 115-62 173-90-3-15-7-30-10-44-44 21-87 42-129 65z" fill="#e4ae43"/><path d="M276 3466c54-38 110-74 167-108-8-12-16-25-25-36-50 30-100 61-149 94 3 16 5 33 7 50zm303-185c47-26 95-50 143-74-3-14-7-29-11-43-33 16-66 32-99 49z" fill="#e4af43"/><path d="M271 3433c51-35 103-68 156-99-9-13-17-25-26-36-46 27-92 57-137 87 3 15 5 31 7 48zm330-197c38-20 76-39 114-58-4-14-8-29-11-43-24 11-47 23-70 34z" fill="#e5b042"/><path d="M267 3400c47-31 94-61 143-91-9-12-18-23-27-35-42 25-84 52-125 79 3 16 6 31 9 47zm356-209l84-42c-3-14-7-28-12-43-13 7-26 13-40 20z" fill="#e6b242"/><path d="M261 3369c43-29 87-57 131-83-9-12-18-24-28-35-38 23-75 47-112 71 3 15 6 31 9 47zm384-222c18-9 36-18 55-26-4-15-9-29-13-43-3 1-7 3-10 5z" fill="#e6b244"/><path d="M255 3338c39-26 79-51 119-76-9-11-19-23-29-34-34 21-67 42-100 64 3 15 7 30 10 46zm411-234c8-4 17-8 25-12-2-8-4-16-7-24z" fill="#e8b444"/><path d="M248 3307c35-23 71-46 107-68-10-11-20-22-31-32-29 18-58 36-87 55 4 15 8 30 11 45z" fill="#e8b444"/><path d="M241 3277l93-60c-10-10-21-21-32-31-25 15-49 30-74 46 5 15 9 30 13 45z" fill="#e8b644"/><path d="M233 3247c26-17 53-34 80-51-11-10-22-20-35-30-19 12-39 24-59 37 5 14 9 29 14 44z" fill="#e8b644"/><path d="M224 3217c22-14 44-28 66-41-11-10-23-20-36-29-15 9-30 17-44 27 5 14 10 29 14 43z" fill="#ebb743"/><path d="M215 3188c17-11 34-21 51-32-12-9-25-19-39-28-9 6-18 11-27 17 5 14 10 29 15 43z" fill="#ebb943"/><path d="M205 3159c12-7 24-14 36-22-13-9-27-17-42-26-3 2-6 4-8 6 5 14 10 28 14 42z" fill="#edb943"/><path d="M196 3131c5-4 11-8 17-11-8-6-18-11-27-16 3 9 6 18 10 27z" fill="#edbb43"/><path d="M4756 5986l204 594c1804-425 2146-1495 2148-3116 57-224 99-452 167-642-197 109-348 248-461 411l-221-571c-541 1460 182 2622-1837 3324z" fill="#34529c"/><path d="M6593 3062c-349 1137 258 2211-1696 3002l100 391c1521-371 2029-1420 1996-2830 1-228 43-371 98-527-161 89-221 203-313 337z" fill="#edbb43"/><path d="M5226 6286c0-25-19-44-44-44-24 0-44 19-44 44 0 24 20 43 44 43 25 0 44-19 44-43z" fill="#9b5b40"/><path d="M5212 6286c0 16-14 29-30 29s-29-13-29-29c0-17 13-30 29-30s30 13 30 30zm44 0c0-41-33-74-74-74-40 0-73 33-73 74 0 40 33 73 73 73 41 0 74-33 74-73z" fill="#9b5b40"/><path d="M5241 6286c0 32-26 58-59 58-32 0-58-26-58-58 0-33 26-59 58-59 33 0 59 26 59 59zm44 0c0-57-46-103-103-103-56 0-102 46-102 103 0 56 46 102 102 102 57 0 103-46 103-102z" fill="#9b5b40"/><path d="M5270 6286c0 48-39 87-88 87-48 0-87-39-87-87 0-49 39-88 87-88 49 0 88 39 88 88zm-118 128c43-13 86-26 127-39 22-24 35-55 35-89 0-73-59-132-132-132-72 0-131 59-131 132 0 62 43 114 101 128z" fill="#9c5c40"/><path d="M5299 6286c0 43-23 81-58 101 28-9 57-18 85-28 11-22 17-47 17-73 0-89-72-161-161-161s-161 72-161 161c0 61 34 114 84 141 29-8 58-16 87-25-4 0-7 1-10 1-64 0-117-53-117-117 0-65 53-118 117-118 65 0 117 53 117 118z" fill="#9c5c41"/><path d="M5329 6286c0 29-9 57-25 80 20-6 40-13 59-20 6-19 10-39 10-60 0-106-86-191-191-191s-190 85-190 191c0 62 30 117 76 151 20-5 39-10 59-16-53-22-91-74-91-135 0-81 66-147 146-147 81 0 147 66 147 147z" fill="#9e5e41"/><path d="M5358 6286c0 23-5 46-13 66 17-6 34-12 52-18 3-16 5-32 5-48 0-122-98-220-220-220-121 0-219 98-219 220 0 63 27 120 70 160 17-4 35-9 53-14-48-31-79-85-79-146 0-97 78-176 175-176s176 79 176 176z" fill="#a05e41"/><path d="M5387 6286c0 18-2 36-7 54 16-6 32-12 49-18 1-12 2-24 2-36 0-138-111-249-249-249-118 0-217 83-242 194l55 219c2 1 3 3 5 4 17-4 33-8 50-12-44-38-73-94-73-156 0-114 92-205 205-205s205 91 205 205z" fill="#a05e41"/><path d="M5417 6286c0 14-2 28-4 42 15-6 31-12 46-18 1-8 1-16 1-24 0-154-124-279-278-279-115 0-214 71-256 170l23 90c9-121 110-216 233-216 130 0 235 105 235 235zm-401 164c-11-11-21-23-30-36l11 41c6-1 13-3 19-5z" fill="#a05f41"/><path d="M5446 6286c0 10-1 20-2 30l45-18c1-4 1-8 1-12 0-170-138-308-308-308-114 0-214 63-267 156l17 68c35-104 134-180 250-180 146 0 264 118 264 264z" fill="#a16041"/><path d="M5475 6286c0 6 0 12-1 18l45-18c0-186-151-337-337-337-8 0-17 0-25 1-65 31-134 61-207 92-16 16-32 33-45 53l15 60c48-96 148-162 262-162 162 0 293 131 293 293z" fill="#a16141"/><path d="M5504 6286v6c15-7 30-13 44-19-6-185-150-335-332-352-35 17-70 34-107 51 24-6 48-8 73-8 178 0 322 144 322 322zm-594-172c23-36 53-68 88-93-33 15-66 29-101 43z" fill="#a16241"/><path d="M4900 6076c6-7 11-14 17-21-7 3-13 6-20 9zm289-142c189 4 341 156 344 345 15-6 29-12 44-18-12-180-143-328-316-363-23 12-48 24-72 36z" fill="#a36241"/><path d="M5240 5909c177 27 314 176 322 358 15-7 29-13 43-19-16-177-139-322-304-370-20 10-41 21-61 31z" fill="#a36241"/><path d="M5281 5888c169 42 296 188 310 366 14-6 28-13 42-19-19-174-137-319-297-376-18 9-36 19-55 29z" fill="#a36441"/><path d="M5319 5868c162 53 283 198 300 373 14-6 28-13 42-20-23-172-136-315-291-381-17 10-34 19-51 28z" fill="#a36441"/><path d="M5353 5849c157 62 273 206 294 379 14-7 28-13 42-20-26-171-137-314-287-385-16 9-32 18-49 26z" fill="#a56541"/><path d="M5386 5832c153 68 264 211 289 382 14-6 27-13 41-20-29-170-136-312-284-389-15 9-30 18-46 27z" fill="#a56541"/><path d="M5417 5814c149 74 258 217 285 387 14-7 28-14 41-21-31-169-137-311-281-392-15 8-30 17-45 26z" fill="#a56541"/><path d="M5447 5796c146 80 252 222 283 391 13-7 27-15 40-22-34-167-138-310-280-395-14 9-28 18-43 26z" fill="#a66741"/><path d="M5476 5779c143 83 248 226 281 394 13-8 27-15 40-22-36-167-139-309-279-398-14 9-28 17-42 26z" fill="#a66741"/><path d="M5504 5762c141 87 244 229 280 396 13-8 26-15 40-23-39-166-141-308-279-399-13 9-27 17-41 26z" fill="#a66741"/><path d="M5532 5745c139 89 241 231 278 398 14-8 27-15 40-23-41-166-142-307-278-401-13 8-27 17-40 26z" fill="#a66841"/><path d="M5559 5727c137 93 238 235 278 401l39-24c-43-165-143-307-278-403-13 9-26 17-39 26z" fill="#a86941"/><path d="M5585 5710c136 95 236 237 278 402l39-24c-45-164-145-306-278-405l-39 27z" fill="#a86a42"/><path d="M5611 5692c134 98 234 239 278 404l39-24c-47-164-146-306-279-406-13 9-25 17-38 26z" fill="#aa6a41"/><path d="M5636 5675c134 99 233 241 279 405 13-8 26-16 39-25-49-163-148-305-281-407-12 9-24 18-37 27z" fill="#aa6a41"/><path d="M5661 5657c133 101 232 243 280 407 13-9 26-17 38-26-50-163-150-305-281-408-12 9-24 18-37 27z" fill="#aa6c41"/><path d="M5686 5639c131 102 231 244 281 408 12-9 25-17 37-26-52-163-151-305-282-410-12 10-24 19-36 28z" fill="#aa6c41"/><path d="M5710 5621c131 104 230 245 282 409 13-9 25-18 37-27-54-162-153-304-283-410-12 9-24 18-36 28z" fill="#aa6d42"/><path d="M5734 5602c130 106 230 247 283 410 12-9 25-18 37-27-56-162-155-304-285-411-12 10-23 19-35 28z" fill="#ac6d41"/><path d="M5757 5584c130 106 230 248 285 410 12-9 25-18 37-27-58-162-158-304-287-412-11 10-23 19-35 29z" fill="#ac6d41"/><path d="M5780 5565c130 107 230 249 287 411 12-9 24-19 36-28-59-162-160-303-289-412-11 10-22 19-34 29z" fill="#ac6f41"/><path d="M5803 5546c129 108 230 250 288 411 12-9 24-19 36-28-61-161-161-303-290-412-11 9-22 19-34 29z" fill="#ac7041"/><path d="M5826 5526c128 110 229 251 289 412 12-9 24-19 36-29-62-161-164-302-292-412-11 10-22 19-33 29z" fill="#ad7041"/><path d="M5848 5507c129 110 230 251 291 412l36-30c-64-160-166-301-295-412-10 10-21 20-32 30z" fill="#ad7042"/><path d="M5869 5487c129 110 231 252 294 412 12-10 24-20 35-30-66-160-168-301-296-413-11 11-22 21-33 31z" fill="#af7242"/><path d="M5891 5467c129 111 231 252 296 412 11-10 23-20 34-30-67-160-170-301-299-413l-31 31z" fill="#af7242"/><path d="M5912 5446c129 112 231 253 298 413 11-11 23-21 34-32-69-159-172-300-301-412l-31 31z" fill="#b07442"/><path d="M5933 5425c128 113 232 254 300 413 11-10 23-21 34-32-71-159-175-299-304-413-10 11-20 22-30 32z" fill="#b07442"/><path d="M5953 5404c129 113 233 254 302 413 12-11 23-22 34-33-72-158-177-299-306-412-10 11-20 21-30 32z" fill="#b27442"/><path d="M5973 5383c129 113 234 254 305 412l33-33c-73-158-179-298-309-412-9 11-19 22-29 33z" fill="#b27542"/><path d="M5993 5361c129 114 234 254 307 412l33-33c-75-158-182-298-312-412-9 11-19 22-28 33z" fill="#b27542"/><path d="M6012 5339c130 114 236 254 310 412 11-11 22-23 32-34-76-158-184-298-314-412-9 11-19 23-28 34z" fill="#b47642"/><path d="M6031 5316c130 115 237 255 313 413 11-12 21-24 32-35-78-158-187-297-318-412-9 12-18 23-27 34z" fill="#b47742"/><path d="M6049 5294c131 114 239 254 316 411 11-11 21-23 32-35-80-157-189-296-321-411-9 12-18 23-27 35z" fill="#b47742"/><path d="M6067 5271c131 114 240 254 319 411 11-12 21-24 31-36-81-157-191-296-324-411-8 12-17 24-26 36z" fill="#b47842"/><path d="M6085 5247c132 115 241 254 322 411l30-36c-82-157-194-296-327-411-8 12-16 24-25 36z" fill="#b57941"/><path d="M6102 5223c132 115 243 254 325 411 11-12 21-25 30-37-84-156-196-295-330-410-8 12-16 24-25 36z" fill="#b57941"/><path d="M6119 5199c133 115 245 254 328 411 11-13 20-25 30-38-86-156-199-295-334-410-8 13-16 25-24 37z" fill="#b57a42"/><path d="M6135 5175c134 115 247 253 332 409 10-12 20-25 29-38-87-155-202-294-337-409-8 13-16 25-24 38z" fill="#b77b41"/><path d="M6151 5150c135 115 249 254 336 409 9-12 19-25 28-38-89-156-205-294-341-409-7 13-15 25-23 38z" fill="#b87c41"/><path d="M6167 5125c135 115 250 253 339 409 9-13 19-26 28-40-91-155-208-293-345-408-7 13-15 26-22 39z" fill="#b87c41"/><path d="M6182 5099c136 115 252 253 343 409 9-14 18-27 27-40-92-155-211-293-349-408l-21 39z" fill="#b87d41"/><path d="M6196 5073c138 115 255 253 347 408 9-13 18-27 27-40-94-155-214-293-353-408-6 14-13 27-21 40z" fill="#ba7e42"/><path d="M6210 5047c139 115 258 252 351 407 9-13 18-27 27-40-96-155-217-292-357-407-7 13-14 26-21 40z" fill="#ba7f42"/><path d="M6224 5020c140 115 260 253 355 407 9-13 17-27 26-41-98-154-220-292-361-407-7 14-13 28-20 41z" fill="#ba7f42"/><path d="M6237 4993c141 115 262 252 359 407 9-14 17-28 26-42-100-154-223-291-366-406-6 14-12 27-19 41z" fill="#bb7f42"/><path d="M6250 4966c142 115 265 252 363 406 9-14 17-28 25-42-101-154-226-291-370-406l-18 42z" fill="#bb8142"/><path d="M6262 4938c143 115 268 252 368 406 8-14 16-29 24-43-103-154-229-291-374-405l-18 42z" fill="#bd8243"/><path d="M6274 4910c144 115 270 251 372 405 8-14 16-29 24-43-105-154-233-290-379-405-6 14-11 29-17 43z" fill="#bd8343"/><path d="M6286 4882c145 114 272 251 376 404 8-14 16-29 23-43-106-154-236-290-384-405-5 15-10 29-15 44z" fill="#bf8342"/><path d="M6296 4853c147 114 276 251 382 404 7-14 15-29 22-44-108-153-239-290-388-404-5 15-11 29-16 44z" fill="#bf8342"/><path d="M6307 4824c148 114 278 250 386 404 7-15 15-30 22-45-110-153-243-289-394-403-4 15-9 29-14 44z" fill="#c18542"/><path d="M6316 4795c150 114 282 250 392 403l21-45c-112-153-247-289-399-403-4 15-9 30-14 45z" fill="#c18542"/><path d="M6326 4765c151 114 285 250 396 403 7-15 14-31 21-46-114-153-250-288-404-402-4 15-9 30-13 45z" fill="#c18542"/><path d="M6335 4735c153 114 288 250 401 403 7-16 14-31 20-47-116-152-254-288-408-401-5 15-9 30-13 45z" fill="#c18642"/><path d="M6343 4705c155 113 292 249 407 402 6-16 13-31 19-47-118-152-257-287-414-401-4 16-8 31-12 46z" fill="#c38742"/><path d="M6351 4675c156 113 295 248 412 401 6-16 13-31 19-47-120-153-261-288-419-400-4 15-8 30-12 46z" fill="#c38842"/><path d="M6359 4644c157 113 298 248 417 401l18-48c-122-152-265-287-424-399-4 15-7 31-11 46z" fill="#c38842"/><path d="M6366 4613c159 113 301 248 422 400l18-48c-124-152-268-286-430-398-3 15-6 31-10 46z" fill="#c38842"/><path d="M6373 4582c161 113 304 247 427 399l18-48c-126-152-273-286-435-398-3 16-7 32-10 47z" fill="#c58a42"/><path d="M6380 4551c162 112 307 246 432 398 6-16 11-32 17-48-128-152-276-286-440-397-3 16-6 31-9 47z" fill="#c58a42"/><path d="M6386 4520c163 111 310 245 437 397 6-16 11-33 16-49-129-151-279-285-445-396-3 16-5 32-8 48z" fill="#c58c42"/><path d="M6391 4488c166 111 314 245 443 397 5-17 11-33 16-50-132-151-283-284-451-394-2 16-5 31-8 47z" fill="#c78c43"/><path d="M6397 4457c166 110 317 243 448 395 5-17 10-33 14-50-133-150-286-283-455-393-2 16-5 32-7 48z" fill="#c78e43"/><path d="M6402 4425c168 110 320 243 453 394 5-17 9-33 14-50-135-150-290-282-460-392-3 16-5 32-7 48z" fill="#c78e43"/><path d="M6406 4393c170 110 324 242 458 393 5-17 10-34 14-51-137-149-293-281-465-390-2 16-4 32-7 48z" fill="#c78f43"/><path d="M6411 4361c171 109 327 241 463 391 4-17 9-34 13-50-139-149-297-280-470-389l-6 48z" fill="#c98f42"/><path d="M6415 4329c173 109 330 240 468 390l12-51c-140-149-300-279-474-387l-6 48z" fill="#c98f42"/><path d="M6419 4297c174 108 333 239 472 388l12-51c-142-148-303-278-479-385-1 16-3 32-5 48z" fill="#c99142"/><path d="M6423 4265c175 107 335 237 476 386l12-51c-144-148-306-277-483-384-2 16-4 33-5 49z" fill="#cb9142"/><path d="M6426 4232c177 108 338 237 481 385 4-17 8-35 11-52-145-146-309-275-487-381-2 16-3 32-5 48z" fill="#cb9342"/><path d="M6429 4200c178 107 341 235 486 382 3-17 7-34 10-51-147-146-312-273-491-379-1 16-3 32-5 48z" fill="#cb9342"/><path d="M6433 4168c178 106 343 234 489 380 3-17 6-35 10-52-149-145-315-271-495-376-1 16-3 32-4 48z" fill="#cb9342"/><path d="M6436 4136c179 105 345 232 492 377 4-17 7-34 10-52-150-144-317-269-498-373-2 16-3 32-4 48z" fill="#cd9542"/><path d="M6439 4104c180 104 347 230 496 375 3-18 6-35 9-53-151-143-319-267-501-370-2 16-3 32-4 48z" fill="#cd9543"/><path d="M6441 4072c182 103 350 228 500 372 3-18 5-35 8-53-152-141-321-265-504-367-1 16-2 32-4 48z" fill="#cd9543"/><path d="M6444 4040c182 102 351 226 502 369 3-18 6-35 8-53-153-141-323-263-506-364-1 16-3 32-4 48z" fill="#cf9743"/><path d="M6447 4008c183 101 352 225 505 366 2-18 5-35 7-53-154-140-325-261-508-362z" fill="#cf9743"/><path d="M6449 3975c184 101 354 223 508 363 2-17 4-35 6-52-155-139-326-259-510-358z" fill="#d19a43"/><path d="M6452 3943c184 100 355 221 509 360 3-17 5-35 7-53-156-137-328-256-512-354z" fill="#d19a43"/><path d="M6455 3912c184 99 355 218 511 356 2-18 4-36 5-53-156-136-328-253-512-351-2 16-3 32-4 48z" fill="#d39a43"/><path d="M6457 3880c185 98 356 216 513 352 1-17 3-35 5-53-157-134-329-250-514-346-1 15-2 31-4 47z" fill="#d39b43"/><path d="M6460 3848c184 97 357 214 513 349 2-18 4-36 5-53-157-133-330-248-514-343-1 16-3 32-4 47z" fill="#d59c43"/><path d="M6463 3817c184 96 356 211 514 344 1-18 3-35 4-53-158-131-330-245-514-339-1 16-3 32-4 48z" fill="#d59d43"/><path d="M6466 3785c184 95 356 209 514 341 1-18 2-36 4-54-158-129-331-241-514-334-2 16-3 31-4 47z" fill="#d59d43"/><path d="M6468 3754c184 93 356 206 514 336 2-18 3-36 4-54-158-127-330-237-513-329-2 16-3 31-5 47z" fill="#d59f43"/><path d="M6472 3723c183 92 355 203 513 331l3-54c-158-125-330-234-512-324-1 15-3 31-4 47z" fill="#d7a042"/><path d="M6475 3691c182 92 354 201 512 327l3-54c-158-123-329-230-510-319-2 15-4 31-5 46z" fill="#d7a142"/><path d="M6478 3660c182 90 353 198 511 322 1-18 1-35 2-53-158-121-328-227-508-315-2 15-3 31-5 46z" fill="#d7a142"/><path d="M6481 3629c181 89 352 196 509 318 1-18 2-36 2-54-157-119-326-223-505-310-2 16-4 31-6 46z" fill="#d7a142"/><path d="M6485 3599c180 87 349 192 507 312 0-18 1-36 1-55-156-116-324-218-502-303-2 15-4 30-6 46z" fill="#d8a342"/><path d="M6489 3568c178 86 347 189 504 307 0-18 0-36 1-54-156-115-323-215-499-299-2 15-4 31-6 46z" fill="#d9a342"/><path d="M6493 3537c177 85 344 186 500 302 1-18 1-36 1-54-155-113-320-211-495-293l-6 45z" fill="#d9a542"/><path d="M6497 3507c175 83 342 182 497 296v-54c-154-110-318-206-490-287-3 15-5 30-7 45z" fill="#dca543"/><path d="M6501 3477c174 81 339 179 493 290v-54c-152-108-315-202-486-281-2 15-4 30-7 45z" fill="#dca543"/><path d="M6506 3447c172 80 335 175 488 283v-53c-151-105-312-198-480-275-3 15-5 30-8 45z" fill="#dca743"/><path d="M6511 3417c170 78 331 171 483 278 0-18-1-36-1-54-150-103-308-193-474-269-3 15-5 30-8 45z" fill="#dca743"/><path d="M6516 3387c167 77 327 168 477 272v-34-20c-148-100-305-188-469-263-2 15-5 30-8 45z" fill="#dda842"/><path d="M6522 3357c165 75 322 164 471 266 0-18 0-36 1-52-147-98-302-185-464-259-3 15-6 30-8 45z" fill="#dea943"/><path d="M6527 3327c163 74 319 162 466 261 1-18 1-35 2-51-65-44-133-85-202-124-5 7-10 15-15 22l-21-42c-72-39-146-76-221-110-3 15-6 29-9 44z" fill="#dea943"/><path d="M6533 3298c80 36 159 76 235 118l-33-68c-63-33-127-65-192-94-4 14-7 29-10 44zm252 127c71 40 141 83 209 128 1-17 2-34 4-50-62-40-125-78-189-114l-24 36z" fill="#e4ae43"/><path d="M6539 3268c71 32 139 66 207 102l-33-67c-54-27-109-54-164-78-3 14-6 29-10 43zm262 133c67 37 132 77 195 119 2-17 3-34 5-50-57-37-116-72-175-106-8 12-16 24-25 37z" fill="#e4ae43"/><path d="M6546 3239c60 27 119 56 178 86l-33-65c-44-23-89-44-135-64-3 14-7 29-10 43zm272 137c61 35 122 72 181 110 2-16 3-33 5-49-53-34-107-66-162-97l-24 36z" fill="#e4ae43"/><path d="M6553 3210c50 23 100 46 149 71l-32-65c-35-17-71-33-107-49-3 14-7 29-10 43zm281 142c57 32 113 66 168 102 2-17 4-33 7-48-49-32-99-62-150-90-8 12-17 24-25 36z" fill="#e4af43"/><path d="M6560 3181c40 19 81 37 120 57l-31-64-78-36c-4 15-7 29-11 43zm291 147c52 30 104 61 155 93 3-16 5-31 8-47-45-28-91-56-138-82-9 12-17 24-25 36z" fill="#e5b042"/><path d="M6567 3153c31 13 62 27 92 42l-31-63c-16-8-33-15-49-22-4 14-8 29-12 43zm300 151c49 27 97 56 144 86 3-16 6-31 9-47-42-25-84-51-126-75l-27 36z" fill="#e6b242"/><path d="M6575 3124c21 10 42 19 63 29l-31-63c-6-3-13-5-20-8l-12 42zm310 156c45 25 88 52 132 79 3-16 6-31 9-46-37-23-75-46-113-68-10 12-19 23-28 35z" fill="#e6b244"/><path d="M6583 3096c12 5 23 10 35 15l-25-49c-3 11-7 22-10 34zm320 161c41 23 80 47 120 71 3-15 7-30 10-45-33-21-67-41-101-60-10 11-20 22-29 34z" fill="#e8b444"/><path d="M6592 3067l5 3-4-8c0 2-1 4-1 5zm330 167c37 20 72 42 108 64 3-15 7-30 11-45-29-18-58-35-88-52-11 11-21 22-31 33z" fill="#e8b444"/><path d="M6943 3212c31 18 63 37 94 56 4-15 8-29 13-44-25-15-50-30-75-44-11 10-22 21-32 32z" fill="#e8b644"/><path d="M6964 3190c27 16 54 32 81 49 4-15 9-30 13-44-19-12-39-24-59-35-12 10-24 20-35 30z" fill="#e8b644"/><path d="M6987 3170c22 13 45 26 67 39 4-14 9-28 14-43-15-8-30-17-44-26-13 10-26 20-37 30z" fill="#ebb743"/><path d="M7011 3150c17 10 35 20 52 31 4-15 9-29 14-43-9-5-18-11-27-16-14 9-27 18-39 28z" fill="#ebb943"/><path d="M7037 3131c12 7 24 14 35 21l15-42c-3-2-6-4-8-5-15 8-29 17-42 26z" fill="#edb943"/><path d="M7064 3113c6 4 12 7 18 11 3-9 6-18 9-26l-27 15z" fill="#edbb43"/><path d="M1978 6034c1048 436 2140 439 3274 9l251 624c-1149 481-2371 602-3737 10 70-214 141-428 212-643z" fill="#34529c"/><path d="M2059 6205c953 396 2104 414 3135 23l136 352c-1044 412-2155 520-3398 9 64-195 62-189 127-384z" fill="#edbb43"/><path d="M3507 1805l273 1c52 31 95 56 114 96-15 34-23 39-45 63-132-80-288-54-415 3-84-75 32-129 73-163z" fill="#fefefe"/><path d="M3495 1793l18-5 40 153-18 5zm130 136h19v-148h-19zm-216-90l18-6 50 140-18 6zm469-3l-18-6-49 139 17 7zm-89-47l-18-4-41 153 18 5zm-84 1877l155-2 30 350-55-1-13-312-118-1z" fill="#373435"/><path d="M2677 4412l-241 123-40-78c-15-30-24-50-26-60-3-16-1-31 6-47 7-15 21-28 40-38 15-7 29-11 41-11 13 0 25 3 35 9 10 5 18 11 24 19 8 10 18 27 29 49l16 31 91-46zm-225 53l68-35-13-26c-10-19-18-32-24-37s-12-8-19-9c-8-1-15 0-22 4-9 4-15 11-18 19s-3 16 0 25c2 6 7 18 16 36zm-2-212c-25 11-48 17-69 17-15 0-29-3-44-8-14-6-26-13-36-22-14-13-25-29-34-49-16-37-18-71-5-103s40-57 80-75c40-17 76-20 108-9 32 12 57 36 73 72 16 37 18 71 5 103s-39 56-78 74zm-25-51c28-12 47-28 55-48 9-19 9-39 0-59s-23-33-43-39-45-3-73 10c-29 12-47 28-55 46-9 19-8 39 1 59 9 21 23 34 43 41 20 6 44 3 72-10zm35-287l-258 83-35-109c-9-27-13-48-13-62 1-14 6-27 15-38 10-11 22-20 37-24 19-7 37-6 53 1 17 7 30 22 41 43 3-13 7-25 12-35 6-10 17-24 32-43l40-48 21 63-44 55c-16 20-25 33-29 40s-6 13-6 19 2 15 6 27l3 11 108-35zm-166-4l-12-38c-8-25-14-41-19-46-4-6-9-9-15-11s-13-2-21 1c-9 3-15 7-19 14-4 6-5 14-4 23 1 4 5 17 12 38l13 40zm75-317l-221 42 16 79-45 9-41-211 45-9 15 79 221-43zm-162-866l18-53c29 10 51 24 65 43 13 20 19 44 18 73-1 36-14 65-39 87-26 22-60 33-102 31-45-1-80-14-104-38s-35-55-34-93c1-33 12-60 32-80 12-12 29-20 51-26l11 55c-14 2-26 9-34 19-9 9-13 22-13 36-1 20 5 37 19 50s37 20 70 21c34 1 58-4 73-16s23-28 24-47c0-15-4-27-13-38s-23-19-42-24zm112-96l-267-42 18-114c4-28 10-49 17-61s17-21 31-27c13-6 28-7 43-5 21 3 36 12 47 26 12 14 17 33 17 57 8-11 17-19 27-26 9-6 25-14 48-24l57-24-10 65-64 29c-23 11-38 18-44 23-6 4-11 9-14 14s-5 14-7 27l-2 11 112 17zm-146-78l7-40c4-26 5-42 4-49s-4-12-9-17c-4-4-11-7-19-9-9-1-16 0-23 4-6 4-11 10-13 19-2 4-4 17-8 39l-6 42zm192-193l-260-75 55-192 44 12-40 141 57 16 38-130 44 12-38 131 71 20 42-145 44 12zm-186-334l34-94c8-21 16-36 23-46 10-13 22-23 37-30s32-10 50-9c19 0 40 5 63 13 21 8 38 17 52 28 16 13 28 27 35 43 5 12 7 27 7 44-1 12-4 28-11 47l-35 97zm62-35l168 61 14-38c6-15 9-25 9-32 1-9 0-18-3-25s-9-15-20-22c-10-8-25-15-44-22-20-8-36-11-47-12-12 0-22 2-30 6s-15 10-21 19c-4 7-10 21-18 42zm292-127l-249-106 22-50 249 105zm71-150l-200-102-37 72-40-21 97-192 41 21-36 71 200 103zm1662-722l39 36c-11 14-16 28-16 41 1 13 6 25 17 38 12 13 24 20 35 22 12 1 21-1 29-8 4-4 7-9 8-15s-1-13-4-22c-3-7-10-20-21-41-14-26-21-48-21-64 0-22 8-40 24-54 10-10 22-15 36-18 14-2 29 0 43 7 15 7 29 18 43 33 22 26 34 50 34 72 1 23-8 43-26 60l-38-39c9-11 13-21 12-31s-6-20-16-32c-11-12-22-19-32-21-7-1-14 0-19 5-5 4-7 10-7 17 1 9 7 25 21 49 13 24 21 43 25 57 3 14 3 28-1 41s-12 25-25 37c-11 10-25 17-41 19-15 3-31 1-47-7-15-7-31-19-46-37-23-25-35-50-35-74-1-25 9-48 29-71zm110 260l222-155 115 164-38 27-83-120-49 35 77 111-37 26-78-111-60 42 87 124-38 26zm321 299l14 54c-29 9-55 9-77 1-22-9-41-25-56-50-19-30-25-62-16-95 8-32 31-60 67-82 38-24 74-33 107-26 34 6 61 25 81 58 17 28 23 56 17 84-3 16-12 33-27 49l-40-39c11-10 16-21 18-34 1-13-2-26-9-38-11-17-26-27-45-30-18-3-42 4-69 21-29 18-46 36-52 55-6 18-4 35 7 52 8 12 18 20 31 24 14 4 30 3 49-4zm83 74c25-11 48-17 68-17 15 0 30 3 45 8 14 5 26 13 36 22 13 13 24 29 33 49 17 37 18 71 5 103-12 32-39 56-79 74s-76 21-108 10c-32-12-57-36-73-72-16-37-18-71-5-103s39-56 78-74zm24 51c-28 12-46 28-55 48-8 19-8 39 1 58 9 20 23 33 43 40 20 6 44 3 73-10 28-12 47-28 55-47 9-18 8-38-1-58-9-21-24-34-43-41-20-6-44-3-73 10zm-23 287l253-97 19 49-129 169 169-65 18 47-253 97-19-51 125-165-164 63zm351 192l24 97c6 22 8 39 8 51-1 16-6 32-15 45-9 14-21 26-36 36s-35 18-60 24c-22 6-41 8-58 6-21-2-38-7-53-16-11-7-22-18-30-32-7-11-13-26-18-46l-25-100zm-31 64l-174 43 10 40c3 15 7 25 10 31 5 8 10 15 16 19 7 4 17 7 29 7 13 1 29-1 50-6 20-5 35-11 45-17s17-14 22-22c4-8 6-17 6-27 0-8-3-23-8-44zm-140 509l-7-59 58-31-13-108-64-14-7-58 281 72 7 57zm94-113l95-49-104-24zm-95 139l271-14 6 115c1 29 0 50-4 63-5 14-13 25-25 33-12 9-26 13-42 14-20 1-37-4-51-15s-23-29-27-52c-7 12-14 22-22 30-7 8-22 19-42 34l-51 35-3-65 56-42c21-16 33-26 39-31 5-6 8-11 10-17s2-15 2-28l-1-11-113 6zm159 47l2 40c2 26 4 43 6 49 3 6 7 11 12 15 6 3 13 5 21 4 9 0 16-3 22-8 5-5 8-12 9-21 1-5 0-18-1-40l-2-43zm-154 285l114 8 163-88-4 64-112 56 103 70-5 62-149-110-114-8zm27 490l-7 53c-18-1-33 3-43 10-10 8-17 20-21 36-4 17-4 31 2 41 5 11 12 17 22 19 6 2 12 1 17-1 6-3 11-9 16-17 4-6 11-19 22-40 13-27 27-45 39-54 19-13 38-17 59-12 14 3 25 10 35 20s16 23 19 39 2 34-2 54c-8 33-21 56-40 70-18 13-39 18-64 13l10-54c14 1 25-2 33-8s13-17 17-32c3-15 3-28-2-38-2-7-7-11-14-12-6-2-12 0-18 4-7 5-17 20-29 45-12 24-23 42-32 53s-21 18-34 23c-12 4-27 4-44 1-15-4-28-11-39-23-12-11-19-25-22-42s-1-37 4-60c8-33 21-57 41-71 19-15 44-20 75-17zm-116 436l-34 44c-25-18-41-38-48-61s-6-48 4-75c13-34 34-57 65-71 31-13 67-12 107 2 42 16 71 38 86 69 16 30 17 63 4 99-11 31-30 53-55 66-15 7-34 10-56 9l6-56c14 2 27 0 38-7s19-17 24-31c7-19 6-36-3-53-10-17-29-30-60-41-32-12-57-15-75-8-18 6-30 19-37 37-5 14-4 27 1 40s16 25 33 37zm-130 59l250 106-22 51-98-42-42 98 98 42-21 50-249-105 21-51 109 47 42-99-109-46zm8 304c24 13 42 28 54 44 9 12 16 26 21 40 4 15 5 29 4 43-2 18-8 36-19 56-19 35-46 57-79 65-33 9-69 3-107-18-39-21-63-48-73-81s-5-67 14-101c19-35 46-57 79-66s68-3 106 18zm-26 50c-27-15-51-20-71-15-21 4-37 16-47 35-11 19-13 39-6 59 7 19 25 37 52 52s51 20 71 16c20-5 35-17 46-36 11-20 13-40 6-59-7-20-24-37-51-52zm-128 218c23 15 39 32 50 50 8 13 13 27 16 42 3 14 3 29 0 42-4 18-12 36-25 54-23 33-51 52-85 57-34 6-69-4-105-30-36-25-57-54-64-88-6-33 2-66 25-99s51-52 85-57c34-6 68 4 103 29zm-30 47c-26-18-49-25-70-23-21 3-38 13-50 31-13 18-16 37-12 57 5 21 21 40 46 58 26 18 48 25 69 23 20-2 37-13 50-31 13-19 17-38 12-58s-20-39-45-57zm-259 123l209 169-35 43-173-141-85 106-36-29zM2659 6756l56-265 52 11 71 200 38-177 49 11-56 264-53-11-70-195-37 172zm307-216l54 8-23 145c-3 23-5 38-5 45 1 11 5 21 13 29 7 8 19 13 34 16 15 2 27 1 36-4s14-12 17-21c4-9 7-24 10-45l23-148 54 9-22 140c-5 32-10 54-15 67s-12 23-21 31c-10 8-21 14-35 17s-32 3-53 0c-26-4-44-10-57-18-12-8-21-17-27-28s-10-21-11-32c-1-16 1-39 6-69zm227 306l19-270 82 6 36 188 61-181 82 6-19 270-51-4 15-213-68 209-53-3-38-217-15 213zm533-18c13 10 28 17 44 23l-19 39c-9-3-17-6-25-10-1-1-14-9-36-24-18 9-38 13-59 13-42 1-75-11-99-35-23-24-36-58-37-102 0-45 11-79 34-104s55-38 96-39c40 0 72 11 96 35 23 25 36 59 37 103 0 23-3 44-9 62-5 13-12 27-23 39zm-45-30c7-8 12-18 16-30 3-11 5-25 4-40 0-31-8-55-22-70s-32-22-54-22-40 8-54 24c-13 16-20 39-19 71 0 31 7 55 22 70 14 16 31 23 53 23 7 0 15-2 22-5-11-7-23-12-34-16l15-31c18 5 35 14 51 26zm103-210l54-4 10 146c2 23 4 38 5 45 3 11 10 19 19 25 9 7 21 9 37 8 15-1 27-5 34-12s12-15 12-24c1-10 1-25 0-46l-11-150 55-3 10 141c2 33 2 56 0 69-2 14-7 26-14 35-7 10-17 18-30 25-13 6-30 10-51 12-26 1-46 0-60-5-13-5-25-12-33-21s-14-19-17-29c-5-15-8-38-10-68zm533 215l-59 8-32-57-107 15-13 64-58 8 67-283 57-8zm-114-92l-51-94-22 104zm144 86l-56-264 80-17 87 170 9-191 80-17 56 265-50 10-44-208-8 220-52 11-96-198 44 209zM477 4598l258-74 15 53-214 61 37 131-44 12zm311 124l20 51-137 52c-22 8-36 15-42 18-9 6-16 15-19 25-3 11-2 23 4 38 5 14 13 24 21 29 9 5 18 7 27 5s24-7 44-14l140-54 19 51-132 51c-31 12-53 18-66 20-14 3-26 2-38-3-11-4-22-11-32-21-10-11-18-26-26-46-9-24-14-44-13-58 1-15 4-27 11-38 6-11 13-19 22-25 13-9 34-19 62-30zm-163 324l167 19 78-134 29 57-53 88 102 8 28 56-155-15-82 146-30-59 56-96-111-11zm5613 214l51-85c12-19 22-33 31-42 12-11 26-18 42-22 16-3 33-3 51 1s38 12 60 25c19 12 34 24 45 37 13 16 22 32 26 49 3 13 2 28-2 44-3 13-9 27-20 45l-53 88zm67-23l154 93 21-35c7-13 12-23 14-30 3-9 4-17 2-25-1-8-7-16-15-25-8-10-22-20-40-31s-32-17-44-20c-11-2-21-2-30 0s-17 7-24 15c-6 6-14 18-25 37zm306-73l-247-110 81-184 42 19-59 133 55 25 55-124 42 18-56 124 68 30 61-138 42 19zm14-242l12-52c17 2 32 0 43-7 11-6 19-18 24-33 6-17 6-31 2-42-5-10-11-17-21-21-6-1-12-1-17 1-6 2-11 7-17 15-5 5-13 18-25 38-16 25-31 42-45 50-19 11-39 14-59 7-13-4-24-12-33-23s-15-25-16-41 1-33 8-53c10-32 25-54 45-66 19-12 41-14 65-7l-15 52c-14-2-25 0-33 5-8 6-15 16-20 30-4 15-5 28-2 39 2 7 7 11 13 13 7 2 13 1 19-2 7-5 18-19 32-43 15-23 27-40 37-50s22-16 35-20c14-3 29-2 45 3 15 5 27 14 37 26 10 13 16 27 18 44 1 17-2 37-9 59-11 33-26 55-47 68s-46 16-76 10zm161-227l-262-70 14-53 262 70zm42-164l-222-39-14 79-45-8 37-212 46 8-14 79 221 39z" fill="#373435" fill-rule="nonzero"/></svg>