<svg clip-rule="evenodd" fill-rule="evenodd" height="6in" image-rendering="optimizeQuality" shape-rendering="geometricPrecision" text-rendering="geometricPrecision" viewBox="0 0 7819 6000" width="750.666" xmlns="http://www.w3.org/2000/svg"><g fill="#201e1c"><path d="M1757 2621C1648 2651-111 4235 16 5794c-17 143 220 216 297 198 1335-224 2727-2396 3333-3456 56-202-77-816-457-595-81 296-2440 3800-2879 3502 285-1248 860-1847 1489-2490 106-106 207-83-42-332zm3741 721c-40 10-779 1863-2286 2415-185 82-444-73-450-257 84-1338 1562-2877 2524-3197 133 107 254 60 150 307-485-456-2773 2180-2323 2803 770-508 1223-1048 1903-1970 0-30 259-223 482-101z"/><path d="M2566 3768l1834-72-154 170-1916 235s211-332 236-333zm-408-910c778 116-169-34 293-579 1327-1211 2789-724 2938-1422 32-125-237-289-551-187-1492 115-3458 2072-2680 2188z"/><path d="M2873 654c1313-400 2656-416 3437-346 892 81 1477 872-470 578 3 32-497 409-333 427 1638 414 2573-43 2245-690-769-1116-3945-450-4963-54-438 175-456 249 84 85zm2741 913l-351-127c-507 393-639 784-502 1006 137 221 568 398 949 284 579-173 702 97 818 310 143 260 273-221-111-441-2439-385-132-853-803-1032z"/></g></svg>