<svg clip-rule="evenodd" fill-rule="evenodd" height="542.667" image-rendering="optimizeQuality" shape-rendering="geometricPrecision" text-rendering="geometricPrecision" viewBox="0 0 7014 5653" width="673.333" xmlns="http://www.w3.org/2000/svg" xmlns:xlink="http://www.w3.org/1999/xlink"><linearGradient id="a" gradientUnits="userSpaceOnUse" x1="6565.44" x2="6565.44" y1="5357.83" y2="527.626"><stop offset="0" stop-color="#c8b08b"/><stop offset="1" stop-color="#fefefe"/></linearGradient><linearGradient id="b" gradientUnits="userSpaceOnUse" x1="3975.85" x2="3975.85" xlink:href="#a" y1="5357.87" y2="534.236"/><linearGradient id="c" gradientUnits="userSpaceOnUse" x1="2662.43" x2="2662.43" y1="5232.76" y2="848.492"><stop offset="0" stop-color="#ffe7c0"/><stop offset="1" stop-color="#ce8f64"/></linearGradient><path d="M7 5636h7000V7H7z" fill="#903d51"/><g fill="#fefefe"><path d="M5384 1250h1165v-67H5384zm-1 787h1166v-67H5383zm0 787h1166v-67H5383zm0 787h1166v-67H5383zm1 787h1165v-68H5384zm-1 787h1166v-67H5383z"/></g><path d="M5120 5358h477V534h-477v2163H2828V534h-474v4824h474V3157h2292z" fill="url(#b)"/><path d="M6471 5358h189V528h-189z" fill="url(#a)"/><path d="M4956 556c322-97-3192 354-1629 2194C5887 5011 974 4583 7 4090v1279c0 595 8477 420 4344-2698-1360-1040-155-1887 605-2115z" fill="#373435"/><path d="M4956 556c255-65-3348 327-1629 2194C5581 4964 861 4346 7 4090v1116c0 665 8137 526 4268-2486-1555-1084-234-1930 681-2164z" fill="url(#c)"/></svg>