<svg clip-rule="evenodd" fill-rule="evenodd" height="762.666" image-rendering="optimizeQuality" shape-rendering="geometricPrecision" text-rendering="geometricPrecision" viewBox="0 0 7917 7944" width="759.999" xmlns="http://www.w3.org/2000/svg"><path d="M2235 4558c-146-314-243-610-196-1162 22-255 27-466 89-697 29-108 283-584 366-496 61 81 60 170 105 215 70 73 96 153 176 235-27 26-128 248-190 185-212-181-252 194-189 132 143 2 72-71 170 29 221 154-172 221-175 471-127 142-31 420 131 261 197-70 145-160 30-277 18-71 237-426 263-399 136-133 287-122 411 4 43 117-31 420-14 438-72 71-200 391 14 393 26 27 222 119 221 208-89-37-115-117-196-38-275-173-363 496 104 269l493-182c133 117 276 83 455 85 330 31 246 432 65 608 159 163 241 12 346 245 44 45 365 120 256 226-232-2-377 175-573 173-234 104-528 92-687-70-88-108-434-335-416-371-17-89 56-196 39-285-9-45-124-109-70-162-160-91-240-83-438-13-443-309-111 373-393 85-99 25 7 177-108 60-44-45-124-188-89-170zm1702-3285c-297 287-432 498-200 577 141 198 91 129 85 321-5 140 134 138 131 225-58 158 145 347 19 470 39 113 317 162 389 91 93-158-16-287 24-427 133-316 417 29 435 11 19-35 12-96 13-131 0 0-78-7-51-34-275-101-189-84 19-288 72-53 493-398 282-73 117 138-113 733-340 736-134 98-497 486-362 624 227-3 137 338 431 151 188-133 449 116 675 148l488 264c52 107 248 145 356 39-70-108-192-359-191-484 56-232-157-341-208-610 1-107-13-447-40-420-61-81-223 6-295 6-268-3 228-373 325-274 376-592-1194-1127-1985-922zm2664 3087c-17-3-7-17-27-9-13 5-49 9-70 6-13 13-44-15-54-24-13-12-43 3-55 8-39 15-46 50-71 68l-237 182c-79 60-197-46-277-3-172 191-121 591-367 690-179 70-96 317-154 463 656-282 1086-781 1312-1381zM3765 2666c-172 168 58 403 165 368 90-35-183-368-165-368z" fill="#d2d3d5"/><path d="M4221 4366l137 102c-872 433-3042 740-4354-882 875 1008 2706 1438 4217 780z" fill="#373435"/><path d="M2676 7936l297 8c-71-1019 1245-2076 1439-415 266-692 40-222 1196 207-37-113-155-214-184-308 389 40 695 310 949 511 19-14-158-608-628-858 118 4 80-49 441-77-117-158-712-314-873-387 121-68 888 189 1844-373l-567-14c599-287 656-658 459-1405-186 449-263 726-636 868 89-114 90-357 60-463-757 1285-3424 532-3797 2706z" fill="#ed3237"/><g fill="#373435"><path d="M6238 5022c428-1458-1753-3473-3203-3463 1915-233 4027 2712 3203 3463zm-5089 41c2049 1146 3369 177 3885 60 0 37 200 112 153 127-867 279-2442 939-4038-187z"/><path d="M6479 4651C7807 2042 4263-274 2400 2158c1518-1667 5018-893 4079 2493z"/><path d="M5554 5017c575-318 1099-1237 1113-1791 25-314-40-598-290-820 439 527 85 1904-1000 2519zm651 49c-377 204-956 387-1328 213l-252 79c596 252 1339-70 1580-292zM2622 2000c55 356-31 2507 1652 3077l-198 62c-1698-469-1566-3479-1454-3139zm2137 2237c603-400 1041-1012 1197-1642l-103-99c-242 844-649 1315-1188 1630zm1262-2418c18 57-9 626-35 576s-93-131-95-133 26-502-36-591zm-1500 780l100 128c547-524 731-1410 519-1398-6 0-244-176-100-8 222 258-278 1105-519 1278zm-2336-23c-117 194-481 1816 957 3000-1692-927-1059-2969-957-3000z"/></g><path d="M7151 4531c984-2605-2045-5174-4591-3334C5744-498 7800 2500 7151 4531z" fill="#ed3237"/><path d="M6001 5277c-466 461-1321 780-2174 573 749 48 1668-150 2174-573zM4429 1201c-240 1089-1606 1464-1601 1481l31 93c956-246 1576-1025 1751-1517z" fill="#373435"/><path d="M599 3094c726 331 2176 897 3660-216l106 112c-1691 1170-2888 597-3766 104z" fill="#ed3237"/><path d="M2641 2732c-402 118-815 135-1704-214 824 492 1234 440 1717 326zm717-2366l37 123-316 121-8-21c5-2 11-5 19-9 9-4 14-8 17-11 5-4 8-10 8-15 1-6 0-13-3-20l-110-290c-2-7-6-12-10-16s-10-6-17-7c-6-1-13-1-21 0-9 1-16 2-21 4l-8-20 171-65 8 20c-6 2-12 6-20 11s-13 8-17 11c-5 5-8 10-9 17 0 6 1 13 4 19l103 272c5 13 9 22 13 28 4 7 9 11 15 13s13 2 22-1c9-2 21-6 37-12 7-2 14-5 22-9 7-3 14-6 21-10 6-4 11-8 16-12s8-8 10-12c4-12 8-29 12-50 3-22 5-39 5-52zm420-71l16 99-276 63-4-17c5-1 11-4 19-6 7-3 12-5 14-7 5-3 7-7 8-11 2-5 2-10 0-15l-54-239c-1-5-3-9-6-13-2-4-7-6-13-7-5-1-11-2-18-2-8 0-13 1-18 1l-3-16 256-59 19 80-18 4c-6-11-15-22-29-33-13-11-25-16-34-15-5 0-11 1-18 2-7 2-14 3-23 5l-52 12 30 132 37-9c12-2 21-6 26-9s9-8 12-15c2-5 4-12 5-20v-22l17-4 30 130-18 4c-2-8-6-15-10-23-5-8-9-13-13-16-6-5-13-8-19-8-7-1-15 0-25 2l-38 9 23 100c2 10 5 17 7 23 3 5 7 9 12 11 4 2 10 3 18 2 7-1 17-3 30-6 5-1 12-2 20-4 9-2 16-4 21-6 6-2 12-5 18-8s10-6 12-9c5-10 10-23 15-40 4-17 6-29 7-37zm471 52l-141 11-2-17c13-1 23-4 31-7s12-6 12-10c-1-1-1-3-1-5-1-2-2-4-2-5l-35-74-119 10c-3 12-6 22-8 30-2 9-4 16-6 24-1 7-2 12-3 17v10c1 7 6 11 16 14 11 3 22 4 35 3l1 17-127 11-2-17c4-1 9-2 15-4 7-2 12-4 15-7 6-5 11-10 14-15s6-12 9-21c13-43 28-93 44-148s30-103 43-146l19-2 138 283c3 6 6 11 9 15 4 3 8 7 14 10 4 2 9 3 15 4s11 2 15 2zm-148-128l-63-127-39 136zm555 147l-91-7c-18-33-35-62-49-86-15-25-31-50-48-76l-35-2-8 108c0 5 0 10 2 14 1 5 5 8 10 11 3 1 8 3 15 4 7 2 13 3 18 3l-1 17-144-10 2-17c3 0 9-1 16-1 8 0 13-1 16-2 5-2 8-4 11-8 2-4 4-9 4-15l18-246c0-5 0-10-1-15-2-4-5-8-11-10-4-2-9-4-15-5-6-2-12-3-16-4l1-17 157 12c14 1 28 3 40 7s23 9 33 17c9 7 17 16 22 26 5 11 7 24 6 38-1 13-4 25-8 35-5 9-12 17-20 24s-17 12-27 16c-11 5-22 8-34 11 15 23 27 43 37 59s23 35 37 58c6 10 12 18 18 23 5 4 10 9 16 12 4 2 9 4 15 6 6 1 11 2 15 3zm-107-263c1-20-4-37-15-50-10-13-27-20-48-21l-41-3-11 145 32 3c22 1 41-5 56-18 16-13 25-31 27-56zm582 0c-5-1-12-1-21 0-10 1-17 2-21 4-7 3-12 10-15 21-4 11-7 25-10 42l-40 246-21-3-159-308-28 174c-3 19-4 34-3 45 0 11 3 19 7 24 3 4 10 9 21 13 11 5 18 8 22 9l-3 17-138-23 3-16c4 0 12 0 22-2 11-1 18-2 21-4 6-3 11-10 14-18 4-9 7-24 11-46l26-166c2-7 2-15 0-22-1-8-4-14-7-19-5-6-12-12-21-17s-17-8-23-10l3-17 96 16 148 287 25-160c4-20 5-35 4-46s-3-18-8-23c-4-3-10-7-20-12-9-4-17-7-22-8l3-17 136 22zm184 389l-148-40 4-17c4 1 11 2 19 4s13 2 17 2c6-1 10-3 13-5 4-3 6-8 8-14l64-238c2-5 2-10 1-14 0-4-3-8-9-13-4-3-10-6-16-10-7-3-12-6-17-7l5-17 148 40-5 17c-5-1-10-2-17-3s-13-1-19-1-11 2-14 6-5 8-7 13l-64 238c-2 5-2 10-1 14 2 5 5 9 9 13 3 2 8 5 15 8 7 4 13 6 18 8zm596-110c-4-1-11-3-21-4-9-2-16-2-21-1-7 1-13 7-20 16-6 10-13 23-19 39l-98 229-20-8-80-337-69 161c-8 18-12 33-14 43-2 11-2 19 1 25 2 5 8 11 17 18 10 8 16 12 20 14l-7 16-129-55 7-16c4 1 12 3 22 4 11 2 17 2 21 1 7-2 13-7 18-15 6-7 13-21 22-42l66-154c3-7 4-14 5-22 0-7-1-14-3-19-3-7-9-15-16-22-8-7-14-12-20-15l7-16 89 39 74 314 64-149c8-19 13-33 14-44 2-11 2-19-1-24-3-4-9-10-17-17-8-6-15-11-19-13l6-16 128 55zm299 383c-4-2-9-3-15-6-6-2-12-3-16-3-5-1-10 1-14 3-4 3-7 7-10 13l-13 23c-9 16-15 28-19 34-3 6-5 11-7 15-23-2-45-6-66-12s-40-14-58-24c-19-10-35-24-49-41s-23-36-29-56c-6-21-8-43-5-66 3-24 11-47 24-70s28-42 46-57c19-15 39-26 60-33 21-6 43-8 66-6 23 3 44 10 65 21 17 10 31 20 41 31s18 22 24 33l17-9 17 9-56 105-18-10c4-13 7-26 8-40 2-13 2-26 0-39s-6-24-13-35-17-20-31-28c-15-8-30-12-45-13-15 0-30 3-46 10-15 7-29 18-44 33-14 14-27 32-39 54-10 19-18 38-23 57s-6 37-4 54c2 18 7 33 16 48 9 14 22 26 38 35 12 7 25 11 37 13s22 2 28 0c5-6 10-13 14-21 4-7 8-13 11-18l9-17c3-6 5-11 6-17 1-5 0-10-4-15s-9-10-16-15c-8-6-13-10-18-13l9-15 130 73zm813 476l-16-16c8-14 15-33 19-55 3-23 2-39-6-49-3-5-8-11-14-18-6-6-12-13-20-21l-50-53-126 121 35 36c10 11 19 18 27 22 9 3 17 5 26 5 6 0 13-2 23-6 9-5 18-10 26-17l16 17-123 118-16-17c6-7 12-15 18-26 6-10 9-18 10-25 1-10 0-19-5-27-4-9-11-18-20-27l-34-36-108 103c-5 5-9 10-11 16-2 5-1 12 1 19 1 3 4 9 10 18 6 8 10 15 14 19l-16 15-130-136 16-15c4 4 10 10 18 16 8 7 13 11 16 12 6 3 12 3 18 2 6-2 11-5 16-10l226-217c5-4 8-9 10-15 3-5 2-11 0-19-2-5-5-12-11-20-4-9-9-15-12-19l15-15 236 245zm210 309c-4 22-13 42-26 62s-30 38-52 53c-22 16-44 27-67 33s-45 7-67 4c-21-3-41-10-59-21s-34-26-47-44c-14-19-23-40-28-61-4-22-4-43 0-64 4-20 13-41 26-60 13-20 30-37 50-52 23-16 45-27 68-33 23-5 45-7 67-4 21 3 41 10 59 22 19 11 34 25 47 43s22 38 27 59 6 42 2 63zm-217 112c17-1 34-5 51-13 18-7 36-17 54-31 19-13 35-28 48-43s23-30 29-45 8-31 6-46c-1-15-7-30-17-43-11-16-24-27-39-32-15-6-31-8-48-6-16 1-33 6-51 14-17 8-35 18-52 30-18 14-34 27-46 42-13 14-23 29-29 45-6 15-9 30-8 45 2 16 8 31 18 45s23 24 37 31c15 6 30 9 47 7zm195 430l-47-79c17-33 31-63 42-89 12-26 23-54 35-83l-18-30-93 56c-5 3-9 6-11 10-3 3-4 8-3 14 1 3 2 8 5 15l8 16-15 9-73-124 14-8c3 3 6 7 10 13 5 6 8 10 11 12 4 3 8 4 13 4 4 0 9-2 15-5l211-126c5-3 9-6 12-10s3-9 2-15c0-4-2-9-4-15-3-6-5-11-7-15l15-9 80 135c8 12 14 25 17 37 4 12 6 25 6 37-1 11-4 23-10 33-5 10-15 19-27 27-11 6-22 11-33 12-11 2-21 1-32-1-9-3-19-7-28-14-10-6-19-13-28-22-11 26-20 48-27 65s-16 39-27 64c-4 11-7 20-8 27s-1 14-1 20c0 5 2 10 4 16s4 11 6 14zm153-238c18-11 29-24 33-41 4-16 1-34-10-52l-21-35-126 75 17 27c11 19 26 31 46 36 20 6 40 2 61-10zm154 1135l-43-176 21-5c4 15 9 28 15 37 6 10 10 14 15 13l6-3c3-1 5-2 6-3l86-58-36-148c-15-2-28-3-40-4-11-1-21-2-30-3h-22c-6 1-10 1-14 2-8 2-12 10-14 23-1 14 0 28 3 44l-21 5-39-158 21-5c2 5 4 11 8 18s8 13 12 17c8 7 15 12 22 15s16 5 27 6c58 9 123 17 195 27 72 9 136 17 193 25l6 23-329 230c-7 5-12 10-16 14-4 6-7 12-10 20-2 5-3 11-3 19s1 14 2 19zm130-212l147-104-178-23zm8 555l-101 3-27-265 17-1c0 4 1 9 3 16 1 7 3 12 5 15 2 5 6 8 10 9 4 2 9 3 15 2l243-25c5 0 10-2 14-4s7-6 9-12c1-4 3-9 4-16 1-6 1-12 1-16l17-2 15 143-17 2c-1-5-2-11-4-17-2-7-4-12-6-15-2-6-6-9-10-11-5-1-10-2-16-1l-227 23c-11 1-19 3-24 4-6 2-10 5-13 9s-4 9-4 17c0 7 0 17 2 30 0 6 1 12 2 19 1 6 2 12 4 18 1 5 3 10 5 15 3 4 5 7 8 9 8 6 20 13 35 20 16 7 29 12 38 14zm7 389l-101-7v-266h17c1 4 1 9 2 16 1 8 2 13 3 16 2 4 5 8 9 10s9 3 16 3l243 1c6 0 11-1 15-3 4-1 7-5 10-10 2-4 4-9 6-16 1-7 2-12 3-16h17l-1 143h-17c0-4-1-10-2-17s-3-12-4-16c-2-5-5-9-10-11-4-2-9-3-14-3h-229c-11 0-19 0-25 1s-10 3-13 7-5 9-6 17c-1 7-1 17-1 30v19c0 6 1 12 2 18s2 11 4 16c2 4 4 8 6 10 8 7 19 14 34 23 14 9 27 15 36 18z" fill="#373435"/></svg>