<svg clip-rule="evenodd" fill-rule="evenodd" height="714.666" image-rendering="optimizeQuality" shape-rendering="geometricPrecision" text-rendering="geometricPrecision" viewBox="0 0 7903 7444" width="758.667" xmlns="http://www.w3.org/2000/svg"><path d="M5579 6279c20-10 1603-1258 1603-1258l-366 817 425 101-1050 906-642-584z" fill="#727376"/><path d="M5578 6246c138-104 1583-1244 1587-1247l87-69-45 102-352 787 392 93 53 12-41 36-1050 906-19 16-18-17-642-583-184-168 216 123zm1533-1135c-306 242-1324 1044-1495 1174l575 523 991-855-372-88-32-8 13-30z" fill="#373435" fill-rule="nonzero"/><path d="M5755 6318l1131-923-221 523 336 66-769 667z" fill="#f37835"/><path d="M5738 6297l1131-923 85-70-43 102-207 491 302 60 55 11-42 37-769 667-17 14-17-12-477-333-29-21zm1080-811l-1017 831 429 300 711-617-281-55-33-7 13-31z" fill="#373435" fill-rule="nonzero"/><path d="M2317 6281c-20-10-1603-1258-1603-1258l366 818-425 100 1050 906 642-583z" fill="#727376"/><path d="M2280 6288c-171-131-1188-933-1495-1175l320 716 13 31-32 7-372 88 991 856zM731 5001c5 4 1449 1143 1587 1248l16-9 216-124-184 168-642 584-18 16-18-16-1051-906-41-35 53-13 392-93-352-787-45-102z" fill="#373435" fill-rule="nonzero"/><path d="M2141 6321l-1131-924 221 523-336 66 769 668z" fill="#f37835"/><path d="M2095 6319l-1016-830 177 420 13 31-33 7-280 55 710 617zm-1067-943l1130 923 28 23-29 21-477 333-17 12-17-14-769-667-42-37 55-11 302-60-207-491-43-102z" fill="#373435" fill-rule="nonzero"/><path d="M4272 6005l98-95 154-127 137-92 147-82 134-52 78-43 191-67 43-14-107-200-101-190-72-134-10-17 85-117 120-177 84-134 167-294 61-119 99-211 84-200 133-370 74-248 79-319 51-253 44-274 11-78-135-54-284-203-129-121-46-59-206 17-351-10-223-40-140-40-168-69-177-100-124-92-63-54-12-11-66 62-148 107-225 118-112 42-169 47-180 29-183 13-171-2-144-10-62-7-77 97-92 93-93 76-120 78-172 79-39 14 33 227 47 259 46 208 40 162 65 228 76 233 76 204 99 234 115 242 98 184 72 126 106 172 103 154 102 143 6 32-87 161-95 178-84 157-17 31 101 33 253 98 176 89 184 118 213 178 66 67 140 164 86 118 38 49 118-167z" fill="#fefefe"/><path d="M1359 709c-260 119-511 251-730 436l693 731c304-211 621-394 966-514-248-246-681-406-929-653z" fill="#727376"/><path d="M1354 742c-123 57-245 117-362 184-113 66-221 138-323 222l657 692c146-101 296-195 450-279 149-81 302-152 461-210-118-107-273-200-427-292-166-99-332-198-456-317zM965 879c123-72 252-135 383-195l17-8 14 14c121 120 290 221 459 322 171 102 343 205 469 331l31 31-41 14c-171 60-335 135-494 221s-314 184-465 289l-19 14-17-17-693-731-20-21 22-19c111-93 230-174 354-245z" fill="#373435" fill-rule="nonzero"/><path d="M1450 789c-260 119-426 184-645 369l548 591c304-211 520-330 866-450-248-247-522-263-769-510z" fill="#f37835"/><path d="M1444 822c-31 15-49 23-68 31-203 92-350 159-531 307l512 553c144-100 270-179 401-247 125-66 254-122 409-178-111-101-228-160-345-219-128-65-255-129-378-247zm-90-19c32-15 68-31 84-39l18-8 13 14c121 120 249 185 377 250 133 66 265 133 392 259l31 31-41 15c-172 59-311 119-445 189-134 71-263 153-414 258l-20 13-16-17-548-591-19-22 22-18c197-167 350-237 566-334z" fill="#373435" fill-rule="nonzero"/><path d="M6524 770c260 119 512 251 730 437l-693 730c-304-211-620-394-965-514 247-246 680-406 928-653z" fill="#727376"/><path d="M6535 745c131 60 260 123 384 195s243 152 353 246l22 18-20 22-693 730-16 17-20-13c-151-106-305-204-464-290s-323-161-494-221l-42-14 31-31c126-126 298-228 470-331 168-101 337-201 459-322l13-14zm356 242c-117-67-238-127-361-184-125 120-291 218-456 317-155 93-309 185-427 292 159 58 312 129 460 210 155 84 304 178 450 279l657-692c-101-84-210-156-323-222z" fill="#373435" fill-rule="nonzero"/><path d="M6434 851c260 119 425 183 644 368l-548 591c-304-211-520-330-865-450 248-246 521-263 769-509z" fill="#f37835"/><path d="M6445 826c19 8 52 23 85 38 215 98 369 167 566 334l22 19-20 21-548 591-16 17-19-13c-152-105-281-187-415-258-134-70-273-129-444-189l-42-14 32-31c127-127 259-194 391-260 128-65 257-130 377-250l14-13zm62 88c-18-8-38-17-68-31-122 118-250 183-377 247-117 59-234 118-346 219 155 56 285 112 410 178 130 68 256 147 400 247l512-552c-180-149-328-216-531-308z" fill="#373435" fill-rule="nonzero"/><path d="M1434 2344c211-462 407-951 759-1174s614-213 614-213l779-113 482-9 818 59 906 267 328 511 357 721 66 345c170 655 138 1310 77 1964l-130 465-300 606-330 346-587 273-183 37-1099 538-1157-531c-700-196-887-306-1240-885l-297-873-67-282-33-832 85-680z" fill="#fefefe"/><path d="M1324 4672c134 629 345 1037 607 1301 260 262 572 382 907 436l-9 54c-345-55-667-179-937-451-269-271-485-688-621-1329zm85-2340c13-29 35-77 56-124 193-427 386-853 713-1061l30 46c-314 199-503 618-693 1037-16 36-32 72-57 125zm5011 24c-24-53-40-88-56-125-190-419-380-838-693-1037l30-46c327 208 520 634 713 1061 21 47 43 94 56 124z" fill="#373435" fill-rule="nonzero"/><path d="M1007 753c1818-967 3764-978 5849 58l-492 768c-1658-882-3293-860-4907-50z" fill="#fefefe"/><path d="M994 728C1907 243 2852-2 3832 3c978 6 1990 263 3037 783l27 14-16 26-493 768-14 21-22-12c-825-439-1644-653-2457-656s-1621 204-2424 606l-24 12-12-22-451-777-14-24zM3831 58c-960-5-1889 234-2786 706l423 729c803-399 1612-604 2426-601 815 4 1635 216 2461 651l462-721C5787 315 4793 64 3831 58z" fill="#373435" fill-rule="nonzero"/><path d="M1194 820c158-30 2242-1539 5504 40l-374 565c-1638-846-3170-847-4822-51z" fill="#373435"/><path d="M1292 3104c8-255 80-475 150-664L331 2078C150 2510 86 2979 59 3459l705 209v460l-251 14-7-223-470 6 86 866 1142-254c-35-412-53-824 9-1236l-684-212c15-150-14-360 128-334l137 34 42 237z" fill="#727376"/><path d="M1266 3071c6-118 25-228 51-331 25-101 57-195 90-283L347 2112c-84 207-142 422-182 643-41 223-63 452-77 684l683 203 20 5v507l-26 2-251 14-28 1-1-28-6-196-413 5 80 805 1088-242c-16-198-28-396-29-596s9-400 38-599l-662-205-21-6 2-22v-1c3-29 4-62 5-94 2-49 4-98 11-140 15-84 51-141 143-124h2l138 35 17 4 3 18 39 218zm104-317c-27 109-47 226-51 351l-27-1-6 27-395-78-19-3-3-19-39-219-120-30c-48-8-68 28-78 80-7 38-8 85-10 132-1 25-2 51-3 75l662 206 23 7-4 23c-30 205-41 409-40 614 1 204 14 409 31 615l2 24-24 6-1141 253-30 7-3-31-87-865-3-30 30-1 470-5 27-1 1 27 6 195 197-11v-414L52 3485l-21-6 1-22c13-241 36-479 79-712 42-233 104-460 195-678l10-23 24 8 1111 361 27 9-10 27c-35 94-70 195-98 305z" fill="#373435" fill-rule="nonzero"/><path d="M1206 2959c30-242 24-220 76-417l-872-291c-181 432-191 640-218 1120l681 214 14 633-450 21-12-192-268 4 55 581 949-223c-34-412-57-599 5-1011l-683-226c3-196 38-380 92-557l391 108 6 182c132 26 102 28 234 54z" fill="#f37835"/><path d="M1182 2926l4-32c10-82 16-126 23-169 9-45 19-85 40-165l-824-275c-167 406-179 613-204 1066l660 208 19 6v19l14 634 1 27-27 1-450 21-27 1-2-27-10-166-212 3 50 520 895-211-5-54c-30-354-46-543 9-916l-662-219-19-6v-20c2-100 11-197 28-290 16-94 38-185 66-275l7-26 26 8 391 107 20 6v20l6 161c50 10 74 16 97 23 21 5 41 11 86 20zm59-26l-8 62-3 30-29-6c-66-13-93-20-119-27-25-7-49-14-115-27l-22-4v-22l-6-162-346-95c-23 79-42 159-56 242-15 85-24 172-27 261l665 220 22 7-3 23c-58 382-42 569-12 926l7 78 2 24-23 5-949 224-31 7-3-32-56-581-3-29 30-1 269-3 26-1 1 26 11 166 396-19-13-587-662-208-20-6 1-22 1-18c26-470 38-680 218-1110l10-24 24 8 873 291 25 8-7 25-1 4c-25 93-36 136-44 182-8 39-13 83-23 165z" fill="#373435" fill-rule="nonzero"/><path d="M2668 5792l16-118c-296-447-438-936-668-1799l-73 22c121 858 453 1543 725 1895z" fill="#373435"/><path d="M1789 3089c270 226 335 555 223 931-264-229-317-547-223-931z" fill="#373435"/><path d="M1839 3295c147 125 199 311 125 521-140-107-166-297-125-521z" fill="#fefefe"/><path d="M1523 3964c348 53 574 301 674 680-345-58-555-303-674-680z" fill="#373435"/><path d="M1673 4115c191 30 332 162 377 380-175-19-296-168-377-380z" fill="#fefefe"/><path d="M2315 3827c167 310 105 639-137 948-161-311-93-626 137-948z" fill="#373435"/><path d="M2285 4037c91 171 70 363-77 530-90-151-44-337 77-530z" fill="#fefefe"/><path d="M1680 4799c352-2 614 207 772 566-350-3-596-212-772-566z" fill="#373435"/><path d="M1851 4925c193 0 353 108 432 316-176 9-319-119-432-316z" fill="#fefefe"/><path d="M4021 1282c-53 49-107 93-164 134-57 40-117 76-179 108-314 162-690 217-1127 166-75 101-161 188-259 259-95 70-201 126-317 168 75 561 208 1065 389 1519 185 460 419 870 694 1239l11 14-8 16-275 512c218 68 432 157 636 294 214 144 416 340 599 621l-46 30c-179-274-376-465-584-605s-428-229-653-298l-32-9 16-30 282-526c-274-369-507-778-691-1237-185-465-321-980-395-1555l-3-23 21-7c119-40 227-96 324-167 96-71 182-158 256-261l9-13 17 2c433 54 803 1 1111-158 59-31 117-65 172-104s108-82 158-129z" fill="#373435" fill-rule="nonzero"/><path d="M4014 1470c-192 143-395 234-625 289-225 53-477 71-772 68-73 100-132 170-203 226-69 54-148 93-261 133 74 561 196 1048 367 1486 172 443 395 836 671 1205l10 14-8 16c-49 92-90 159-130 227-36 62-72 123-114 199 202 85 366 158 528 267 169 115 335 269 539 517l-43 35c-200-244-363-394-527-506-165-112-333-185-546-274l-28-12 14-26c50-92 90-160 130-228 38-64 76-129 120-210-273-369-495-761-668-1204-174-447-298-946-373-1521l-3-22 22-8c118-40 198-78 266-132 69-53 127-123 201-226l8-11h15c296 4 548-13 772-67 224-53 420-141 606-279z" fill="#373435" fill-rule="nonzero"/><path d="M4017 1242c180 167 390 283 630 349 240 65 511 79 812 42l16-2 10 13c74 103 159 190 256 261 96 71 204 127 323 167l22 7-3 23c-75 575-210 1090-396 1555-184 459-417 868-690 1237l282 526 15 30-32 9c-224 69-445 158-653 298s-405 331-583 605l-46-30c183-281 385-477 599-621 203-137 417-226 636-294l-275-512-8-16 10-14c276-369 510-779 694-1239 182-454 315-958 390-1519-117-42-223-98-318-168-97-71-183-158-258-259-302 35-575 20-818-46-248-68-466-188-652-362z" fill="#373435" fill-rule="nonzero"/><path d="M4000 1461l-37 13-179 109-143 67-157 55-184 45-241 34-163 11-213 5-80-1-71 95-111 117-123 84-91 42-85 30 57 371 25 132 42 197s38 133 33 133c-6 0 39 147 39 147l57 188 80 230 63 160 96 214 136 299 116 205 93 165 146 198 64 88-31 66-119 162-63 135-45 90 145 63 250 129 119 78 173 136 205 192s99 104 107 104c7 0 79 71 79 71l146-118 68-65 166-165 122-93 112-89 306-164 99-44 82-35-46-91-103-169-120-193 74-102 223-362 81-136 157-291 121-245 128-360 29-91 90-313 69-305 10-55 50-288 12-81 13-98-89-39-187-98-114-113-91-118-76 1-206 2-240-25-465-107-166-72-168-98z" fill="#373435"/><path d="M4019 1426c186 138 382 226 605 279 225 54 477 71 773 67h14l9 11c74 103 132 173 200 226 68 54 148 92 267 132l21 8-3 22c-75 575-201 1074-378 1521-175 442-400 835-674 1204 45 82 85 146 126 209 43 69 86 137 135 229l14 26-28 12c-212 89-382 162-548 274-165 112-329 262-529 505l-43-35c205-247 372-401 542-516 163-109 327-182 529-267-42-76-80-137-119-198-43-69-86-137-135-229l-9-15 11-14c275-369 501-762 676-1205 174-438 298-925 373-1486-114-40-193-79-262-133-70-56-129-126-203-226-294 3-546-15-772-68-230-55-433-146-625-289z" fill="#373435" fill-rule="nonzero"/><path d="M2617 4437c154 317 78 643-178 941-147-317-65-629 178-941z" fill="#373435"/><g fill="#fefefe"><path d="M2578 4646c83 174 54 365-100 526-83-155-29-339 100-526zm197-2620c27 4 41 59 32 122-9 64-39 113-66 109s-41-59-32-123c9-63 39-112 66-108zm184 61c23 15 13 70-22 124s-83 86-105 71c-23-15-13-71 22-125s83-85 105-70zm97 93c18 18-1 67-44 109-42 42-91 62-109 44s2-67 44-109c43-42 92-62 109-44zm108 114c14 18-20 54-76 80-56 27-112 34-126 17-13-18 21-53 76-80 56-27 112-34 126-17zm-565-243c-27 7-35 63-18 125 16 62 51 107 77 100 27-7 35-63 18-125-16-63-51-107-77-100zm-156 88c20-14 65 14 99 63s45 100 24 115c-20 14-65-14-99-63s-45-100-24-115zm-151 131c6-21 55-16 110 13 54 28 94 69 88 90-5 21-55 16-109-12-55-29-95-69-89-91z"/><path d="M2460 2370c109 116-44 84-102 38-27-21-55-30-87-14-101 48 223 141 260 82 209-330 385-9 391-9h262c79-116-149-46-205-42-49-30 73-42 56-79-29 6-73 45-105 28-24-28 29-65 62-78l-46-28c-78 83-120 77-68-31l-24-14c-27 42-53 96-86 68l-7-63-31 3c2 0-2 87-37 61-9-6-23-69-23-69h-26l-5 80c-32 46-51 0-94-33l-9 12c23 50 50 114-59 75zm1541-499c58 0 105 37 105 82 0 46-47 83-105 83-59 0-106-37-106-83 0-45 47-82 106-82zm-5 2456l-760-407 7 181 759 422z"/></g><path d="M3993 4329l-754-404 7 175 753 418zm-756-412l760 408 1 1 1 1 6 196v5l-5-2-759-422-1-1v-1l-7-182v-5z" fill="#373435" fill-rule="nonzero"/><path d="M4069 4313v205l786-419-1-180z" fill="#fefefe"/><path d="M4072 4314v199l779-416v-173zm-6 204v-207l2-1 785-394 4-2v187l-1 1-785 418-5 3z" fill="#373435" fill-rule="nonzero"/><path d="M3672 3607c221 185 516 182 692-4l468 242-823 390-780-406z" fill="#fefefe"/><path d="M3971 2032l-9 116-815 437c-19 11-323 34-354 31-32-3-65-109-59-109l-45-3c-63 327 173 225 481 253 230 225 365 439 743 482l-21 163-160 145c189 137 381 195 565-9l-191-135-27-160c405-92 517-236 771-494 348 291 815 195 872-313 47-418-583-152-730-11-174 84-243 90-403 45l-551-328-10-109z" fill="#fefefe"/><path d="M3192 2615c516 74 1055 52 1539-45-136 104-1405 232-1539 45z" fill="#4b4b4d"/><path d="M6653 4676c-136 641-352 1058-621 1328-270 272-592 396-937 452l-9-54c335-54 647-174 907-436 262-264 473-672 607-1301z" fill="#373435" fill-rule="nonzero"/><path d="M5427 5792l-17-118c296-448 438-936 668-1799l73 21c-121 858-452 1543-724 1896z" fill="#373435"/><path d="M6305 3088c-270 226-334 555-223 931 264-229 317-547 223-931z" fill="#373435"/><path d="M6256 3294c-148 126-200 312-126 522 140-108 166-298 126-522z" fill="#fefefe"/><path d="M6571 3964c-348 53-574 301-674 680 345-59 555-303 674-680z" fill="#373435"/><path d="M6421 4114c-191 31-332 163-377 381 175-19 296-168 377-381z" fill="#fefefe"/><path d="M5779 3827c-167 309-105 639 137 947 161-311 93-626-137-947z" fill="#373435"/><path d="M5809 4036c-90 171-70 363 77 531 90-152 44-338-77-531z" fill="#fefefe"/><path d="M6414 4799c-351-2-614 207-772 566 350-4 596-212 772-566z" fill="#373435"/><path d="M6243 4924c-193 0-353 108-432 317 176 8 319-120 432-317z" fill="#fefefe"/><path d="M5477 4437c-153 316-78 643 178 941 147-318 65-629-178-941z" fill="#373435"/><path d="M5517 4645c-84 175-55 366 99 527 83-155 30-339-99-527z" fill="#fefefe"/><path d="M4929 2649c75 300 772 241 711-260-33-266-685 106-711 260z" fill="#373435"/><path d="M1067 6694c1819 966 3765 978 5850-58l-492-768c-1659 882-3293 859-4907 50z" fill="#fefefe"/><path d="M1106 6683c897 472 1825 711 2786 706 962-6 1956-257 2985-764l-462-721c-825 435-1645 647-2460 651-814 3-1623-202-2426-601zm2786 760c-979 6-1924-239-2838-724l-25-14 15-25 450-776 13-22 23 12c803 402 1611 609 2425 606 813-4 1632-217 2457-656l22-12 14 21 492 768 17 26-28 13c-1046 521-2058 778-3037 783z" fill="#373435" fill-rule="nonzero"/><path d="M1254 6627c158 30 2243 1538 5504-40l-374-565c-1637 846-3169 847-4821 51z" fill="#373435"/><path d="M6501 2518l1090-401 181 817-472 61-54-212-200 60 31 412c252 44 504 89 756 133 64 488 20 960-85 1422l-1119-206c27-206 41-425 39-665l409 12 42 224h248l-30-345-669-114c26-405-69-802-167-1198z" fill="#727376"/><path d="M6491 2492l1090-401 30-11 7 31 181 817 7 29-30 4-472 61-24 3-6-24-47-184-152 46 27 368 736 130 20 3 2 20c32 247 37 489 21 727s-53 473-106 705l-6 26-26-5-1119-206-26-5 3-26c14-102 24-207 31-317 7-111 10-225 8-344v-28h28l409 12 22 1 5 22 38 201h195l-26-294-648-110-24-4 2-25c13-200-4-399-37-596-32-198-81-396-130-594l-6-24zm1080-338l-1038 381c48 191 94 382 125 574 32 193 49 387 39 584l644 110 21 3 2 21 30 345 3 30h-301l-4-22-38-202-359-11c1 111-2 217-8 319s-16 200-28 295l1068 197c49-221 84-444 99-671 16-229 11-460-18-695l-736-130-21-4-2-21-30-412-2-22 21-6 200-61 27-8 8 28 48 188 418-53z" fill="#373435" fill-rule="nonzero"/><path d="M7500 2272l115 535-242 54-60-206-382 122 57 597c228 47 604 84 694 129 89 45 20 1165-67 1150l-820-147c-5-1 21-189 10-434l179-8 38 226 458 3-29-583-662-91c2-317-52-718-148-1026z" fill="#f37835"/><path d="M7527 2266l115 535 6 27-27 6-242 54-25 5-7-24-52-180-334 107 52 555c82 16 183 31 281 46 174 26 341 52 400 81 60 30 66 395 42 712-8 108-19 211-33 293-14 85-30 149-49 176-12 16-27 24-44 21l-819-147c-26-5-24-31-21-77 5-71 15-213 7-383l-1-27 27-2 180-8 24-1 4 24 34 203 406 4-26-532-639-88-24-3v-34c0-44-1-90-3-137-2-46-5-94-9-143-21-248-68-511-135-728l-8-25 25-9 859-321 29-11zm56 520l-103-477-805 301c65 215 109 473 129 714 4 48 8 97 10 146 2 42 3 84 3 125l638 88 22 3 2 23 28 583 2 29h-29l-458-4h-23l-4-23-34-202-128 6c6 161-3 294-8 361-1 15-47 15-25 19l811 146c13-21 26-76 38-150 13-80 24-181 32-288 23-300 27-639-12-658-51-26-214-51-383-76-106-16-214-33-303-51l-21-4-2-20-56-598-2-22 21-6 382-122 26-9 8 27 54 182z" fill="#373435" fill-rule="nonzero"/><path d="M1585 1048l56-31c26 44 57 59 94 44 19-8 31-18 38-32 6-14 7-28 1-42-3-8-8-15-14-19s-14-7-23-7c-9-1-29 0-62 3-29 2-51 1-67-3s-30-12-43-24-23-27-30-44c-8-20-11-40-9-59 3-20 11-37 23-52 13-14 31-26 55-36 35-14 67-16 94-4 28 11 50 34 65 69l-59 28c-11-19-22-30-34-35-12-4-27-3-43 4s-27 15-33 25c-7 11-8 21-3 31 4 10 11 17 22 20 11 4 32 4 64 1 34-4 60-3 78 1 17 4 33 12 46 25 13 12 25 30 34 51 12 32 13 63 3 92-11 30-38 53-79 70-74 29-132 4-174-76zm534-69l-107-310-91 32-22-63 243-84 22 63-91 31 107 310zm312-100l-95-383 134-33c34-8 59-11 76-8 16 3 31 12 45 27 13 15 23 34 29 57 7 30 6 56-4 78-9 22-27 38-52 50 16 6 30 14 41 23 12 9 30 27 52 53l57 65-75 19-67-72c-24-25-40-42-48-48s-16-9-23-11c-7-1-18 0-33 4l-13 3 40 160zm9-237l47-11c29-8 47-13 54-18 7-4 12-11 15-20s3-20 0-32-8-22-15-28-15-9-24-10c-6-1-23 3-52 10l-50 12zm434 129l-62-389 238-37 11 66-174 27 14 86 161-25 10 65-161 26 17 106 179-29 11 66zm423-63l-34-393 240-21 5 67-174 15 7 87 163-14 6 66-163 14 9 107 181-16 6 66zm501-31V350h-96v-67h258v67h-96v327zm323-121l64-3c4 51 26 78 65 80 20 2 36-2 48-12 12-9 19-22 20-37 0-9-1-16-5-23-3-7-9-12-17-17-7-4-26-12-57-24-27-10-47-21-59-32-12-10-22-24-28-40-7-17-9-35-8-53 2-21 8-40 19-57 11-16 25-28 43-36 18-7 39-10 65-9 38 3 67 15 87 37s29 53 27 91l-65-1c-2-21-7-36-16-46-9-9-22-14-39-15-18-1-32 2-42 8-10 7-15 16-16 27-1 10 3 20 11 27 8 8 27 18 58 29 32 12 55 23 69 35 14 11 24 25 31 42 6 18 9 38 7 61-2 35-15 63-38 84-23 22-56 31-101 28-79-5-121-53-123-144zm517 178l-52-407 70 11 35 301 124-276 69 11-177 371zm333 66l83-386 63 14-82 385zm250 57l102-377 63 16-85 314 158 42-17 64zm378 118l128-370 61 22-106 306 155 53-22 63zm371 134l154-363 222 94-26 61-162-68-34 80 150 64-26 61-150-64-42 99 167 71-26 61zM1630 6672l124-290 176 75-20 49-129-55-28 65 120 51-21 48-119-50-34 79 133 56-21 49zm343 30l50 12c-8 40 2 65 32 76 15 5 28 6 39 1 12-5 19-13 24-24 2-7 3-13 1-19-1-6-4-11-9-16-5-6-18-16-38-32-19-14-32-26-39-37s-11-24-12-38c-2-14 0-28 5-42 6-16 15-29 27-39 12-11 26-17 41-19 16-1 33 1 52 8 28 10 48 26 58 48 11 21 11 46 1 75l-50-15c4-17 3-29-1-38-5-9-14-16-27-21-14-5-25-6-34-3s-15 9-18 17-2 16 2 24c5 8 17 19 38 34 22 16 37 30 45 42s13 25 14 40c2 15-1 31-7 49-10 25-26 44-48 56s-50 11-84-1c-59-22-80-68-62-138zm313 112l50 8c-5 40 7 65 38 74 15 4 28 3 39-2 11-6 18-14 22-26 2-7 2-13 0-19-1-5-5-11-10-16-6-4-19-14-41-28-19-13-33-24-41-35-8-10-13-22-15-36s-1-28 3-43c4-16 12-30 24-41 11-11 24-18 40-21 15-3 32-2 51 4 30 8 50 23 62 43 12 21 14 46 7 76l-51-12c2-17 1-30-5-38-5-9-15-15-28-19-14-4-25-4-34 0-9 3-15 9-17 18-2 8-1 16 4 23 5 8 18 18 40 32 23 15 39 27 48 39 9 11 15 24 17 38 2 15 1 31-4 49-8 27-22 46-44 60-21 13-49 15-83 5-61-18-85-62-72-133zm313 193l66-309 187 40-11 52-137-29-14 69 127 27-11 52-127-27-18 84 141 30-11 52zm745 85c12 12 25 22 39 31l-24 42c-7-3-15-8-21-14-2-1-13-11-32-31-18 7-38 9-60 7-37-4-66-21-86-51s-27-72-21-124c5-53 21-92 47-117 26-26 58-36 95-32s65 21 85 51 28 71 22 124c-3 25-7 47-14 65s-17 34-30 49zm-38-40c15-18 25-44 29-79 3-37 0-65-12-84-11-19-27-30-48-32s-39 5-54 21-25 43-29 79c-4 38 0 66 12 85 11 19 27 30 46 32 8 1 15 0 22-2-10-10-20-17-30-23l18-35c17 9 32 22 46 38zm220-223l52 2-9 171c-1 26-1 44-1 52 2 14 7 25 15 33s20 12 34 13c12 1 22-2 30-6 8-5 13-13 16-22 4-9 6-30 8-61l9-174 52 2-8 166c-3 42-7 73-12 91-6 19-16 33-33 44-16 11-38 16-63 14-27-1-48-7-63-17-14-11-25-25-30-43-6-18-8-50-6-97zm565 326h-56l-23-71h-103l-21 71h-56l101-315h55zm-96-124l-35-117-35 117zm211 113l-28-314 78-7 65 211 28-219 78-7 27 315-48 4-21-248-30 252-50 5-73-243 22 247zm663-80l-146-294 56-10 105 219 22-241 54-10-36 327zm270-55l-65-308 51-11 65 308zm116-350l92-25c24-6 42-8 55-6s27 8 40 18c13 9 25 23 36 41s21 42 28 71c7 27 11 50 10 71s-4 39-10 53c-7 13-15 25-27 34-11 9-27 17-47 22l-95 26zm64 38l54 202 38-10c16-5 28-9 34-14 7-5 11-12 14-19s5-18 4-32c0-14-4-32-9-54-6-23-13-40-19-52-7-12-15-21-23-27-9-6-18-9-28-8-8 0-22 2-42 8zm366 164l-98-300 183-59 17 50-134 44 22 66 124-40 16 50-124 41 27 81 138-45 16 51zm323-107l-107-296 103-38c26-9 46-14 59-12 14 1 26 7 38 17 12 11 22 25 28 43 9 24 10 44 4 62-6 19-18 33-38 44 14 4 25 9 36 16 10 6 25 19 45 38l51 47-59 21-59-52c-21-18-35-30-42-34-6-4-13-6-19-7-6 0-14 2-26 6l-10 4 45 123zm-13-189l37-13c22-8 36-14 41-18s9-10 10-17c2-8 1-16-3-26-3-10-8-17-14-21-5-4-12-6-19-6-5 0-19 4-41 12l-38 14zm346 57l-118-293 48-19 119 292z" fill="#fefefe" fill-rule="nonzero"/><path d="M4020 1244l-20-18-19 19 18 26zm-43 186l23-18 22 17-21 28zm-9 4715s30 39 31 38 28-37 28-37l-33-26zm72 192l-41 74-42-78 37-7z" fill="#373435"/></svg>